SplineFontDB: 3.0
FontName: Basic-Regular
FullName: Basic Regular
FamilyName: Basic
Weight: Regular
Copyright: Copyright (c) 2011, Sorkin Type Co (www.sorkintype.com)\nwith Reserved Font Name "Basic".
Version: 1.001
ItalicAngle: 0
UnderlinePosition: -50
UnderlineWidth: 50
Ascent: 1638
Descent: 410
LayerCount: 2
Layer: 0 1 "Back"  1
Layer: 1 1 "Fore"  0
XUID: [1021 631 1661839179 4450034]
FSType: 0
OS2Version: 3
OS2_WeightWidthSlopeOnly: 0
OS2_UseTypoMetrics: 1
CreationTime: 1323765840
ModificationTime: 1323753484
PfmFamily: 17
TTFWeight: 400
TTFWidth: 5
LineGap: 0
VLineGap: 0
Panose: 2 0 5 0 0 0 0 2 0 4
OS2TypoAscent: 382
OS2TypoAOffset: 1
OS2TypoDescent: -130
OS2TypoDOffset: 1
OS2TypoLinegap: 0
OS2WinAscent: 0
OS2WinAOffset: 1
OS2WinDescent: 0
OS2WinDOffset: 1
HheadAscent: 0
HheadAOffset: 1
HheadDescent: 0
HheadDOffset: 1
OS2SubXSize: 1434
OS2SubYSize: 1331
OS2SubXOff: 0
OS2SubYOff: 287
OS2SupXSize: 1434
OS2SupYSize: 1331
OS2SupXOff: 0
OS2SupYOff: 977
OS2StrikeYSize: 102
OS2StrikeYPos: 512
OS2Vendor: 'STC '
OS2CodePages: 20000093.00000000
OS2UnicodeRanges: a00000af.4000204a.00000000.00000000
Lookup: 6 0 0 "'calt' Contextual Alternates in Latin lookup 0"  {"'calt' Contextual Alternates in Latin lookup 0 subtable"  } ['calt' ('latn' <'dflt' > ) ]
Lookup: 1 0 0 "Single Substitution lookup 1"  {"Single Substitution lookup 1 subtable"  } []
DEI: 91125
ChainSub2: coverage "'calt' Contextual Alternates in Latin lookup 0 subtable"  0 0 0 1
 1 0 1
  Coverage: 1 g
  FCoverage: 1 g
 1
  SeqLookup: 0 "Single Substitution lookup 1" 
EndFPST
TtTable: prep
PUSHW_1
 511
SCANCTRL
PUSHB_1
 4
SVTCA[y-axis]
EndTTInstrs
ShortTable: maxp 16
  1
  0
  426
  122
  7
  132
  4
  1
  0
  0
  0
  0
  0
  0
  2
  1
EndShort

StartChar: .notdef
Encoding: 65536 -1 0
Width: 1365
Flags: HW
LayerCount: 2
Fore
SplineSet
0 2020 m 1,0,-1
 1365 2020 l 1,1,-1
 1365 -540 l 1,2,-1
 0 -540 l 1,3,-1
 0 2020 l 1,0,-1
286 107 m 1,4,-1
 680 508 l 1,5,-1
 1075 107 l 1,6,-1
 1177 209 l 1,7,-1
 775 604 l 1,8,-1
 1177 1000 l 1,9,-1
 1075 1102 l 1,10,-1
 680 699 l 1,11,-1
 286 1102 l 1,12,-1
 183 1000 l 1,13,-1
 584 604 l 1,14,-1
 183 209 l 1,15,-1
 286 107 l 1,4,-1
EndSplineSet
EndChar

StartChar: I
Encoding: 73 73 4
Width: 513
Flags: HW
LayerCount: 2
Fore
SplineSet
165 1358 m 1,0,-1
 348 1358 l 1,1,-1
 348 0 l 1,2,-1
 165 0 l 1,3,-1
 165 1358 l 1,0,-1
EndSplineSet
EndChar

StartChar: J
Encoding: 74 74 5
Width: 512
Flags: HW
LayerCount: 2
Fore
SplineSet
166 1358 m 1,0,-1
 349 1358 l 1,1,-1
 349 -50 l 2,2,3
 349 -215.683 349 -215.683 291.5 -296 c 0,4,5
 230.665 -380.975 230.665 -380.975 75 -416 c 1,6,7
 40.2 -363.8 40.2 -363.8 29 -263 c 1,8,9
 117.691 -245.262 117.691 -245.262 142.5 -196.5 c 0,10,11
 166 -150.31 166 -150.31 166 0 c 2,12,-1
 166 1358 l 1,0,-1
EndSplineSet
EndChar

StartChar: H
Encoding: 72 72 6
Width: 1365
Flags: HW
LayerCount: 2
Fore
SplineSet
205 1358 m 1,0,-1
 388 1358 l 1,1,-1
 388 770 l 1,2,-1
 976 770 l 1,3,-1
 976 1358 l 1,4,-1
 1159 1358 l 1,5,-1
 1159 0 l 1,6,-1
 976 0 l 1,7,-1
 976 619 l 1,8,-1
 388 619 l 1,9,-1
 388 0 l 1,10,-1
 205 0 l 1,11,-1
 205 1358 l 1,0,-1
EndSplineSet
EndChar

StartChar: comma
Encoding: 44 44 7
Width: 511
Flags: HW
LayerCount: 2
Fore
SplineSet
60 -201 m 1,0,1
 186.969 -14.0728 186.969 -14.0728 197 174 c 1,2,3
 329.231 174 329.231 174 380 108 c 1,4,5
 360.259 -30.184 360.259 -30.184 262 -155 c 0,6,7
 219 -210 219 -210 168 -251 c 1,8,9
 96.2308 -247.582 96.2308 -247.582 60 -201 c 1,0,1
EndSplineSet
EndChar

StartChar: period
Encoding: 46 46 8
Width: 512
Flags: HW
LayerCount: 2
Fore
SplineSet
128 128 m 256,0,1
 128 181 128 181 155.5 208.5 c 0,2,3
 203 256 203 256 256 256 c 256,4,5
 309 256 309 256 336.5 228.5 c 0,6,7
 384 181 384 181 384 128 c 256,8,9
 384 74 384 74 356.5 46.5 c 0,10,11
 309 -1 309 -1 256 -1 c 256,12,13
 203 -1 203 -1 175.5 26.5 c 0,14,15
 128 74 128 74 128 128 c 256,0,1
EndSplineSet
EndChar

StartChar: grave
Encoding: 96 96 9
Width: 551
Flags: HW
LayerCount: 2
Fore
SplineSet
-97 1492 m 1,0,1
 -72.8597 1540.28 -72.8597 1540.28 10.5 1596.5 c 0,2,3
 32 1611 32 1611 46 1615 c 1,4,-1
 286 1277 l 1,5,6
 262.556 1225.42 262.556 1225.42 209 1204 c 1,7,-1
 -97 1492 l 1,0,1
EndSplineSet
EndChar

StartChar: a
Encoding: 97 97 10
Width: 1024
Flags: HW
LayerCount: 2
Fore
SplineSet
643 71 m 1,0,1
 559 -20 559 -20 404 -20 c 0,2,3
 262.111 -20 262.111 -20 174.5 65.5 c 0,4,5
 88 149.916 88 149.916 88 286 c 0,6,7
 88 517.326 88 517.326 287.5 573 c 0,8,9
 352 591 352 591 434 596 c 2,10,-1
 686 610 l 1,11,-1
 686 706 l 2,12,13
 686 824.137 686 824.137 638.5 873.5 c 0,14,15
 588.943 925 588.943 925 455.027 925 c 128,-1,16
 321.111 925 321.111 925 202 858 c 1,17,18
 162.103 911.978 162.103 911.978 151 986 c 1,19,20
 314.429 1064 314.429 1064 451.714 1064 c 128,-1,21
 589 1064 589 1064 662 1041.5 c 128,-1,22
 735 1019 735 1019 778.5 975.5 c 0,23,24
 858 896 858 896 858 720 c 2,25,-1
 858 154 l 1,26,-1
 960 50 l 1,27,-1
 960 0 l 1,28,-1
 787 0 l 1,29,-1
 707 71 l 1,30,-1
 643 71 l 1,0,1
473 122 m 0,31,32
 602.571 122 602.571 122 686 195 c 1,33,-1
 686 489 l 1,34,-1
 455 474 l 1,35,36
 264 463.582 264 463.582 264 296 c 0,37,38
 264 155.662 264 155.662 387.5 130 c 0,39,40
 426 122 426 122 473 122 c 0,31,32
EndSplineSet
EndChar

StartChar: b
Encoding: 98 98 11
Width: 1196
Flags: HW
LayerCount: 2
Fore
SplineSet
192 20 m 1,0,-1
 192 1420 l 1,1,-1
 364 1420 l 1,2,-1
 364 973 l 1,3,-1
 407 973 l 1,4,5
 516.2 1064 516.2 1064 672 1064 c 0,6,7
 948.525 1064 948.525 1064 1039.5 787 c 0,8,9
 1073 685 1073 685 1073 539.5 c 128,-1,10
 1073 394 1073 394 1032 290.5 c 128,-1,11
 991 187 991 187 921.5 118 c 0,12,13
 782.5 -20 782.5 -20 556.341 -20 c 128,-1,14
 330.182 -20 330.182 -20 192 20 c 1,0,-1
698.5 904 m 0,15,16
 637 923 637 923 550 923 c 128,-1,17
 463 923 463 923 364 857 c 1,18,-1
 364 142 l 1,19,20
 420.667 112 420.667 112 515.333 112 c 128,-1,21
 610 112 610 112 679 140 c 128,-1,22
 748 168 748 168 795 222 c 0,23,24
 891 332.298 891 332.298 891 532 c 0,25,26
 891 844.528 891 844.528 698.5 904 c 0,15,16
EndSplineSet
EndChar

StartChar: c
Encoding: 99 99 12
Width: 1024
Flags: HW
LayerCount: 2
Fore
SplineSet
489 150.5 m 128,-1,1
 548 126 548 126 645.545 126 c 128,-1,2
 743.091 126 743.091 126 864 164 c 1,3,4
 893.444 97.7519 893.444 97.7519 891 22 c 1,5,6
 740.5 -20 740.5 -20 623.75 -20 c 128,-1,7
 507 -20 507 -20 414.5 13.5 c 128,-1,8
 322 47 322 47 257 114 c 0,9,10
 122 253.154 122 253.154 122 513 c 256,11,12
 122 772.504 122 772.504 259.5 920.5 c 0,13,14
 392.823 1064 392.823 1064 622 1064 c 0,15,16
 731 1064 731 1064 885 1020 c 1,17,18
 874.296 945.074 874.296 945.074 847 888 c 1,19,20
 732.3 925 732.3 925 640.15 925 c 128,-1,21
 548 925 548 925 489 893.5 c 128,-1,22
 430 862 430 862 389 806.5 c 0,23,24
 304 691.439 304 691.439 304 513 c 0,25,26
 304 325.585 304 325.585 389 224 c 0,27,0
 430 175 430 175 489 150.5 c 128,-1,1
EndSplineSet
EndChar

StartChar: d
Encoding: 100 100 13
Width: 1196
Flags: HW
LayerCount: 2
Fore
SplineSet
798 71 m 1,0,1
 710.5 -20 710.5 -20 558 -20 c 0,2,3
 388.56 -20 388.56 -20 269 102.5 c 0,4,5
 131 243.893 131 243.893 131 493 c 0,6,7
 131 765.64 131 765.64 282.5 921.5 c 0,8,9
 421.014 1064 421.014 1064 638 1064 c 0,10,11
 770 1064 770 1064 840 1044 c 1,12,-1
 840 1422 l 1,13,-1
 1013 1422 l 1,14,-1
 1013 154 l 1,15,-1
 1114 50 l 1,16,-1
 1114 0 l 1,17,-1
 941 0 l 1,18,-1
 860 71 l 1,19,-1
 798 71 l 1,0,1
840 913 m 1,20,21
 790 933 790 933 697 933 c 128,-1,22
 604 933 604 933 533 903 c 128,-1,23
 462 873 462 873 413 816.5 c 0,24,25
 313 701.194 313 701.194 313 493 c 0,26,27
 313 122 313 122 644 122 c 0,28,29
 744 122 744 122 840 186 c 1,30,-1
 840 913 l 1,20,21
EndSplineSet
EndChar

StartChar: e
Encoding: 101 101 14
Width: 1196
Flags: HW
LayerCount: 2
Fore
SplineSet
947 39 m 1,0,1
 818.588 -20 818.588 -20 677.294 -20 c 128,-1,2
 536 -20 536 -20 442.5 13.5 c 128,-1,3
 349 47 349 47 284.5 114 c 0,4,5
 153 250.597 153 250.597 153 513 c 256,6,7
 153 771.667 153 771.667 286 920.5 c 0,8,9
 414.234 1064 414.234 1064 627 1064 c 0,10,11
 818 1064 818 1064 927.5 954.5 c 0,12,13
 1036 846 1036 846 1036 658 c 0,14,15
 1036 573 1036 573 1020 509 c 1,16,-1
 335 509 l 1,17,18
 335 126 335 126 655 126 c 0,19,20
 798.067 126 798.067 126 909 178 c 1,21,22
 934.957 115.269 934.957 115.269 947 39 c 1,0,1
868 635 m 1,23,24
 876.317 759.751 876.317 759.751 811.5 840 c 0,25,26
 742.846 925 742.846 925 627 925 c 0,27,28
 512.895 925 512.895 925 435 845 c 128,-1,29
 356.987 764.878 356.987 764.878 343 635 c 1,30,-1
 868 635 l 1,23,24
EndSplineSet
EndChar

StartChar: f
Encoding: 102 102 15
Width: 683
Flags: HW
LayerCount: 2
Fore
SplineSet
652 976 m 1,0,1
 652 918.643 652 918.643 629 871 c 1,2,-1
 398 871 l 1,3,-1
 398 0 l 1,4,-1
 226 0 l 1,5,-1
 226 871 l 1,6,-1
 63 871 l 1,7,8
 59 911 59 911 59 943 c 256,9,10
 59 978 59 978 63 1014 c 1,11,-1
 226 1014 l 1,12,-1
 226 1107 l 2,13,14
 226 1320.14 226 1320.14 399.5 1394.5 c 0,15,16
 459 1420 459 1420 557.875 1420 c 128,-1,17
 656.75 1420 656.75 1420 722 1391 c 1,18,19
 714.131 1312.31 714.131 1312.31 684 1259 c 1,20,21
 634 1279 634 1279 554.5 1279 c 128,-1,22
 475 1279 475 1279 436.5 1237.5 c 128,-1,23
 398 1196 398 1196 398 1101 c 2,24,-1
 398 1014 l 1,25,-1
 649 1014 l 1,26,-1
 652 976 l 1,0,1
EndSplineSet
EndChar

StartChar: g
Encoding: 103 103 16
Width: 1024
Flags: HW
LayerCount: 2
Fore
SplineSet
723 166 m 2,0,1
 953 166 953 166 953 -101 c 0,2,3
 953 -256.81 953 -256.81 830.5 -354 c 0,4,5
 701.938 -456 701.938 -456 474 -456 c 0,6,7
 287.225 -456 287.225 -456 176 -381.5 c 0,8,9
 66 -307.821 66 -307.821 66 -184 c 0,10,11
 66 -102.957 66 -102.957 127 -34 c 1,12,13
 153 -3 153 -3 188 20 c 1,14,-1
 188 50 l 1,15,16
 139 99 139 99 139 188 c 0,17,18
 139 259.8 139 259.8 193 330 c 0,19,20
 217 360 217 360 248 383 c 1,21,-1
 248 424 l 1,22,23
 111 533.6 111 533.6 111 706 c 0,24,25
 111 865.037 111 865.037 227 966 c 0,26,27
 339.596 1064 339.596 1064 513 1064 c 0,28,29
 575.333 1064 575.333 1064 642 1044 c 1,30,-1
 964 1044 l 1,31,-1
 964 975 l 1,32,-1
 838 921 l 1,33,34
 914 816.5 914 816.5 914 721.25 c 128,-1,35
 914 626 914 626 883 560.5 c 128,-1,36
 852 495 852 495 797.5 448 c 0,37,38
 683.862 350 683.862 350 513 350 c 0,39,40
 405.5 350 405.5 350 348 373 c 1,41,42
 294 322.375 294 322.375 294 242 c 0,43,44
 294 166 294 166 389 166 c 2,45,-1
 723 166 l 2,0,1
513 476 m 0,46,47
 618 476 618 476 676.5 535 c 128,-1,48
 735 594 735 594 735 706 c 0,49,50
 735 808.368 735 808.368 676.5 872 c 0,51,52
 616.742 937 616.742 937 513 937 c 0,53,54
 408.806 937 408.806 937 348 872 c 0,55,56
 289 808.931 289 808.931 289 706 c 0,57,58
 289 546.048 289 546.048 418.5 493 c 0,59,60
 460 476 460 476 513 476 c 0,46,47
245.5 -204.5 m 128,-1,62
 252 -234 252 -234 276.5 -257 c 0,63,64
 331.891 -309 331.891 -309 480 -309 c 0,65,66
 628.439 -309 628.439 -309 703 -246.5 c 0,67,68
 766 -193.691 766 -193.691 766 -103 c 0,69,70
 766 -49 766 -49 747.5 -24.5 c 128,-1,71
 729 0 729 0 677 0 c 2,72,-1
 286 0 l 1,73,-1
 272 -22 l 2,74,75
 239 -75.625 239 -75.625 239 -125.312 c 128,-1,61
 239 -175 239 -175 245.5 -204.5 c 128,-1,62
EndSplineSet
Substitution2: "Single Substitution lookup 1 subtable" .notdef
EndChar

StartChar: h
Encoding: 104 104 17
Width: 1196
Flags: HW
LayerCount: 2
Fore
SplineSet
781.5 867 m 128,-1,1
 726 923 726 923 589.158 923 c 128,-1,2
 452.316 923 452.316 923 370 855 c 1,3,-1
 370 0 l 1,4,-1
 198 0 l 1,5,-1
 198 1420 l 1,6,-1
 370 1420 l 1,7,-1
 370 973 l 1,8,-1
 413 973 l 1,9,10
 470 1020.5 470 1020.5 540.5 1042.25 c 128,-1,11
 611 1064 611 1064 680 1064 c 128,-1,12
 749 1064 749 1064 812 1039.5 c 128,-1,13
 875 1015 875 1015 919 969 c 0,14,15
 1009 874.909 1009 874.909 1009 714 c 2,16,-1
 1009 0 l 1,17,-1
 837 0 l 1,18,-1
 837 693 l 2,19,0
 837 811 837 811 781.5 867 c 128,-1,1
EndSplineSet
EndChar

StartChar: i
Encoding: 105 105 18
Width: 512
Flags: HW
LayerCount: 2
Fore
SplineSet
261 1225 m 256,0,1
 214 1225 214 1225 189 1250 c 0,2,3
 146 1293 146 1293 146 1341 c 256,4,5
 146 1390.56 146 1390.56 171 1414.78 c 0,6,7
 214.581 1457 214.581 1457 261 1457 c 256,8,9
 337.349 1457 337.349 1457 368.5 1386.5 c 0,10,11
 378 1365 378 1365 378 1341 c 256,12,13
 378 1294.61 378 1294.61 353 1268.81 c 0,14,15
 310.562 1225 310.562 1225 261 1225 c 256,0,1
174 1021 m 1,16,-1
 348 1021 l 1,17,-1
 348 0 l 1,18,-1
 172 0 l 1,19,-1
 174 1021 l 1,16,-1
EndSplineSet
EndChar

StartChar: j
Encoding: 106 106 19
Width: 512
Flags: HW
LayerCount: 2
Fore
SplineSet
261 1225 m 256,0,1
 214 1225 214 1225 189 1250 c 0,2,3
 146 1293 146 1293 146 1341 c 256,4,5
 146 1390.56 146 1390.56 171 1414.78 c 0,6,7
 214.581 1457 214.581 1457 261 1457 c 256,8,9
 337.349 1457 337.349 1457 368.5 1386.5 c 0,10,11
 378 1365 378 1365 378 1341 c 256,12,13
 378 1294.61 378 1294.61 353 1268.81 c 0,14,15
 310.562 1225 310.562 1225 261 1225 c 256,0,1
176 1020 m 1,16,-1
 350 1020 l 1,17,-1
 350 -114 l 2,18,19
 350 -300.588 350 -300.588 206 -374 c 0,20,21
 155 -400 155 -400 83 -416 c 1,22,23
 43.6723 -353.076 43.6723 -353.076 37 -263 c 1,24,25
 116.084 -245.901 116.084 -245.901 138.042 -219.95 c 0,26,27
 176 -175.091 176 -175.091 176 -85 c 2,28,-1
 176 1020 l 1,16,-1
EndSplineSet
EndChar

StartChar: k
Encoding: 107 107 20
Width: 1024
Flags: HW
LayerCount: 2
Fore
SplineSet
190 1420 m 1,0,-1
 362 1420 l 1,1,-1
 362 586 l 1,2,-1
 434 586 l 1,3,-1
 784 1020 l 1,4,-1
 981 1020 l 1,5,-1
 573 530 l 1,6,-1
 999 0 l 1,7,-1
 801 0 l 1,8,-1
 428 474 l 1,9,-1
 362 474 l 1,10,-1
 362 0 l 1,11,-1
 190 0 l 1,12,-1
 190 1420 l 1,0,-1
EndSplineSet
EndChar

StartChar: l
Encoding: 108 108 21
Width: 512
Flags: HW
LayerCount: 2
Fore
SplineSet
162 1422 m 1,0,-1
 335 1422 l 1,1,-1
 335 0 l 1,2,-1
 162 0 l 1,3,-1
 162 1422 l 1,0,-1
EndSplineSet
EndChar

StartChar: m
Encoding: 109 109 22
Width: 1705
Flags: HW
LayerCount: 2
Fore
SplineSet
927 882 m 1,0,1
 960 802.8 960 802.8 960 714 c 2,2,-1
 960 0 l 1,3,-1
 788 0 l 1,4,-1
 788 693 l 2,5,6
 788 810 788 810 742 866.5 c 128,-1,7
 696 923 696 923 582 923 c 0,8,9
 475.538 923 475.538 923 418 889 c 0,10,11
 392 874 392 874 381 855 c 1,12,-1
 381 0 l 1,13,-1
 209 0 l 1,14,-1
 209 911 l 1,15,-1
 128 994 l 1,16,-1
 128 1044 l 1,17,-1
 288 1044 l 1,18,-1
 361 973 l 1,19,-1
 424 973 l 1,20,21
 515 1064 515 1064 639 1064 c 0,22,23
 729 1064 729 1064 787 1033.5 c 128,-1,24
 845 1003 845 1003 889 946 c 1,25,26
 957.615 1014.62 957.615 1014.62 1066.5 1049 c 0,27,28
 1114 1064 1114 1064 1182.5 1064 c 128,-1,29
 1251 1064 1251 1064 1316 1039.5 c 128,-1,30
 1381 1015 1381 1015 1426.5 969 c 0,31,32
 1522 872.451 1522 872.451 1522 714 c 2,33,-1
 1522 0 l 1,34,-1
 1350 0 l 1,35,-1
 1350 693 l 2,36,37
 1350 923 1350 923 1114 923 c 0,38,39
 1009 923 1009 923 927 882 c 1,0,1
EndSplineSet
EndChar

StartChar: n
Encoding: 110 110 23
Width: 1196
Flags: HW
LayerCount: 2
Fore
SplineSet
786 867 m 128,-1,1
 731 923 731 923 594.158 923 c 128,-1,2
 457.316 923 457.316 923 375 855 c 1,3,-1
 375 0 l 1,4,-1
 203 0 l 1,5,-1
 203 911 l 1,6,-1
 122 994 l 1,7,-1
 122 1044 l 1,8,-1
 284 1044 l 1,9,-1
 354 973 l 1,10,-1
 418 973 l 1,11,12
 475 1020.5 475 1020.5 545.5 1042.25 c 128,-1,13
 616 1064 616 1064 685 1064 c 128,-1,14
 754 1064 754 1064 817 1039.5 c 128,-1,15
 880 1015 880 1015 924 969 c 0,16,17
 1014 874.909 1014 874.909 1014 714 c 2,18,-1
 1014 0 l 1,19,-1
 841 0 l 1,20,-1
 841 693 l 2,21,0
 841 811 841 811 786 867 c 128,-1,1
EndSplineSet
EndChar

StartChar: o
Encoding: 111 111 24
Width: 1195
Flags: HW
LayerCount: 2
Fore
SplineSet
130 523 m 256,0,1
 130 783.419 130 783.419 260 926 c 0,2,3
 385.824 1064 385.824 1064 600 1064 c 0,4,5
 938 1064 938 1064 1032.5 768.5 c 0,6,7
 1064 670 1064 670 1064 537.5 c 128,-1,8
 1064 405 1064 405 1031.5 301.5 c 128,-1,9
 999 198 999 198 939 126.5 c 0,10,11
 816.063 -20 816.063 -20 600 -20 c 0,12,13
 259.576 -20 259.576 -20 162 289.5 c 0,14,15
 130 391 130 391 130 523 c 256,0,1
312 523 m 0,16,17
 312 123 312 123 600 123 c 0,18,19
 741.571 123 741.571 123 815.5 243 c 0,20,21
 882 350.942 882 350.942 882 539.471 c 128,-1,22
 882 728 882 728 815.5 827.5 c 128,-1,23
 749 927 749 927 600 927 c 0,24,25
 457.102 927 457.102 927 381.5 812 c 0,26,27
 312 706.282 312 706.282 312 523 c 0,16,17
EndSplineSet
EndChar

StartChar: p
Encoding: 112 112 25
Width: 1195
Flags: HW
LayerCount: 2
Fore
SplineSet
582.5 -20 m 0,0,1
 475 -20 475 -20 385 0 c 1,2,-1
 385 -395 l 1,3,-1
 213 -395 l 1,4,-1
 213 911 l 1,5,-1
 132 994 l 1,6,-1
 132 1044 l 1,7,-1
 284 1044 l 1,8,-1
 365 973 l 1,9,-1
 428 973 l 1,10,11
 479.445 1020.63 479.445 1020.63 551.223 1042.32 c 128,-1,12
 623 1064 623 1064 693.5 1064 c 128,-1,13
 764 1064 764 1064 837 1038 c 128,-1,14
 910 1012 910 1012 967.5 950.5 c 0,15,16
 1095 814.13 1095 814.13 1095 532 c 0,17,18
 1095 276.586 1095 276.586 943 123.5 c 0,19,20
 800.518 -20 800.518 -20 582.5 -20 c 0,0,1
719.5 906 m 0,21,22
 658 923 658 923 571 923 c 128,-1,23
 484 923 484 923 385 857 c 1,24,-1
 385 132 l 1,25,26
 451.667 112 451.667 112 535.333 112 c 128,-1,27
 619 112 619 112 689.5 142 c 128,-1,28
 760 172 760 172 809.5 227 c 0,29,30
 913 342 913 342 913 532 c 0,31,32
 913 852.512 913 852.512 719.5 906 c 0,21,22
EndSplineSet
EndChar

StartChar: q
Encoding: 113 113 26
Width: 1195
Flags: HW
LayerCount: 2
Fore
SplineSet
799 71 m 1,0,1
 704.5 -20 704.5 -20 577 -20 c 0,2,3
 382.217 -20 382.217 -20 264.5 105.5 c 0,4,5
 132 246.76 132 246.76 132 509 c 0,6,7
 132 772.095 132 772.095 291.5 924 c 0,8,9
 438.5 1064 438.5 1064 671 1064 c 0,10,11
 826 1064 826 1064 1014 1024 c 1,12,-1
 1014 -395 l 1,13,-1
 841 -395 l 1,14,-1
 841 71 l 1,15,-1
 799 71 l 1,0,1
841 892 m 1,16,17
 788.818 933 788.818 933 695.409 933 c 128,-1,18
 602 933 602 933 533.5 906 c 128,-1,19
 465 879 465 879 416.5 827 c 0,20,21
 314 717.103 314 717.103 314 527 c 0,22,23
 314 221.122 314 221.122 506.5 146 c 0,24,25
 568 122 568 122 656.5 122 c 128,-1,26
 745 122 745 122 841 186 c 1,27,-1
 841 892 l 1,16,17
EndSplineSet
EndChar

StartChar: r
Encoding: 114 114 27
Width: 852
Flags: HW
LayerCount: 2
Fore
SplineSet
716 872 m 1,0,1
 670.545 892 670.545 892 604.773 892 c 0,2,3
 495.292 892 495.292 892 433 827 c 1,4,5
 407 798 407 798 397 762 c 1,6,-1
 397 0 l 1,7,-1
 225 0 l 1,8,-1
 225 911 l 1,9,-1
 144 994 l 1,10,-1
 144 1044 l 1,11,-1
 288 1044 l 1,12,-1
 385 944 l 1,13,-1
 426 944 l 1,14,15
 478.317 1017.24 478.317 1017.24 567 1050.5 c 0,16,17
 603 1064 603 1064 641 1064 c 0,18,19
 726.5 1064 726.5 1064 772 1050 c 1,20,21
 759.721 935.396 759.721 935.396 716 872 c 1,0,1
EndSplineSet
EndChar

StartChar: s
Encoding: 115 115 28
Width: 1023
Flags: HW
LayerCount: 2
Fore
SplineSet
796 882 m 1,0,1
 713.5 927 713.5 927 569 927 c 0,2,3
 461.857 927 461.857 927 422.429 904 c 128,-1,4
 383 881 383 881 365.5 848.5 c 128,-1,5
 348 816 348 816 348 772.5 c 128,-1,6
 348 729 348 729 356.5 706 c 128,-1,7
 365 683 365 683 388 665 c 0,8,9
 430.64 631.63 430.64 631.63 534.82 607.815 c 128,-1,10
 639 584 639 584 699.5 558.5 c 128,-1,11
 760 533 760 533 798.5 497 c 0,12,13
 872 428.273 872 428.273 872 296 c 0,14,15
 872 69.1118 872 69.1118 647 2.5 c 0,16,17
 571 -20 571 -20 486 -20 c 0,18,19
 297 -20 297 -20 164 29 c 1,20,21
 160.653 102.634 160.653 102.634 190 172 c 1,22,23
 347.667 128 347.667 128 427.833 128 c 128,-1,24
 508 128 508 128 549 131.5 c 128,-1,25
 590 135 590 135 621 150 c 0,26,27
 688 182.419 688 182.419 688 281 c 0,28,29
 688 385.352 688 385.352 585.5 420 c 0,30,31
 550 432 550 432 502 442 c 0,32,33
 168 508.8 168 508.8 168 738 c 0,34,35
 168 899.029 168 899.029 277.5 983.5 c 0,36,37
 381.852 1064 381.852 1064 574 1064 c 0,38,39
 743.933 1064 743.933 1064 841 1012 c 1,40,41
 830.286 933.429 830.286 933.429 796 882 c 1,0,1
EndSplineSet
EndChar

StartChar: t
Encoding: 116 116 29
Width: 852
Flags: HW
LayerCount: 2
Fore
SplineSet
774 49 m 1,0,1
 677.4 -20 677.4 -20 515 -20 c 0,2,3
 302.5 -20 302.5 -20 260 150 c 0,4,5
 246 206 246 206 246 280 c 2,6,-1
 246 871 l 1,7,-1
 101 871 l 1,8,9
 97 907 97 907 97 943 c 256,10,11
 97 974 97 974 101 1014 c 1,12,-1
 246 1014 l 1,13,-1
 246 1196 l 1,14,-1
 354 1318 l 1,15,-1
 418 1318 l 1,16,-1
 418 1014 l 1,17,-1
 720 1014 l 1,18,19
 723 993 723 993 723 954 c 128,-1,20
 723 915 723 915 701 871 c 1,21,-1
 418 871 l 1,22,-1
 418 280 l 2,23,24
 418 199 418 199 449 162.5 c 128,-1,25
 480 126 480 126 557.571 126 c 128,-1,26
 635.143 126 635.143 126 728 176 c 1,27,28
 763.056 129.259 763.056 129.259 774 49 c 1,0,1
EndSplineSet
EndChar

StartChar: u
Encoding: 117 117 30
Width: 1195
Flags: HW
LayerCount: 2
Fore
SplineSet
413.5 178 m 128,-1,1
 462 122 462 122 599.553 122 c 128,-1,2
 737.105 122 737.105 122 817 188 c 1,3,-1
 817 1022 l 1,4,-1
 989 1022 l 1,5,-1
 989 154 l 1,6,-1
 1091 50 l 1,7,-1
 1091 0 l 1,8,-1
 919 0 l 1,9,-1
 838 71 l 1,10,-1
 774 71 l 1,11,12
 665.5 -20 665.5 -20 519 -20 c 0,13,14
 361.055 -20 361.055 -20 275 75.5 c 0,15,16
 193 166.5 193 166.5 193 331 c 2,17,-1
 193 1022 l 1,18,-1
 365 1022 l 1,19,-1
 365 350 l 2,20,0
 365 234 365 234 413.5 178 c 128,-1,1
EndSplineSet
EndChar

StartChar: v
Encoding: 118 118 31
Width: 1025
Flags: HW
LayerCount: 2
Fore
SplineSet
50 1022 m 1,0,-1
 223 1022 l 1,1,-1
 507 116 l 1,2,-1
 540 116 l 1,3,-1
 820 1022 l 1,4,-1
 984 1022 l 1,5,-1
 657 0 l 1,6,-1
 377 0 l 1,7,-1
 50 1022 l 1,0,-1
EndSplineSet
EndChar

StartChar: w
Encoding: 119 119 32
Width: 1535
Flags: HW
LayerCount: 2
Fore
SplineSet
10 1022 m 1,0,-1
 183 1022 l 1,1,-1
 416 116 l 1,2,-1
 445 116 l 1,3,-1
 660 1022 l 1,4,-1
 897 1022 l 1,5,-1
 1130 116 l 1,6,-1
 1163 116 l 1,7,-1
 1376 1022 l 1,8,-1
 1541 1022 l 1,9,-1
 1280 0 l 1,10,-1
 1002 0 l 1,11,-1
 785 893 l 1,12,-1
 764 893 l 1,13,-1
 565 0 l 1,14,-1
 287 0 l 1,15,-1
 10 1022 l 1,0,-1
EndSplineSet
EndChar

StartChar: x
Encoding: 120 120 33
Width: 1022
Flags: HW
LayerCount: 2
Fore
SplineSet
409 534 m 1,0,-1
 62 1022 l 1,1,-1
 246 1022 l 1,2,-1
 504 653 l 1,3,-1
 527 653 l 1,4,-1
 774 1022 l 1,5,-1
 957 1022 l 1,6,-1
 606 515 l 1,7,-1
 971 0 l 1,8,-1
 787 0 l 1,9,-1
 508 400 l 1,10,-1
 485 400 l 1,11,-1
 232 0 l 1,12,-1
 50 0 l 1,13,-1
 409 534 l 1,0,-1
EndSplineSet
EndChar

StartChar: y
Encoding: 121 121 34
Width: 1022
Flags: HW
LayerCount: 2
Fore
SplineSet
39 1022 m 1,0,-1
 212 1022 l 1,1,-1
 494 116 l 1,2,-1
 529 116 l 1,3,-1
 809 1022 l 1,4,-1
 973 1022 l 1,5,-1
 534 -395 l 1,6,-1
 370 -395 l 1,7,-1
 492 0 l 1,8,-1
 366 0 l 1,9,-1
 39 1022 l 1,0,-1
EndSplineSet
EndChar

StartChar: z
Encoding: 122 122 35
Width: 852
Flags: HW
LayerCount: 2
Fore
SplineSet
773 113 m 1,0,1
 773 48.4615 773 48.4615 752 0 c 1,2,-1
 74 0 l 1,3,-1
 74 127 l 1,4,-1
 580 913 l 1,5,6
 323.25 913 323.25 913 115 896 c 1,7,8
 107 924.8 107 924.8 107 967 c 256,9,10
 107 1004 107 1004 115 1044 c 1,11,-1
 765 1044 l 1,12,-1
 765 919 l 1,13,-1
 269 135 l 1,14,15
 463 135 463 135 771 147 c 1,16,17
 771 142 771 142 772 137 c 2,18,-1
 773 113 l 1,0,1
EndSplineSet
EndChar

StartChar: bullet
Encoding: 8226 8226 36
Width: 681
Flags: HW
LayerCount: 2
Fore
SplineSet
339 371 m 256,0,1
 266 371 266 371 214 423 c 128,-1,2
 162 475 162 475 162 547 c 256,3,4
 162 620 162 620 214 672 c 128,-1,5
 266 724 266 724 339 724 c 256,6,7
 411 724 411 724 463 672 c 128,-1,8
 515 620 515 620 515 547 c 256,9,10
 515 475 515 475 463 423 c 128,-1,11
 411 371 411 371 339 371 c 256,0,1
EndSplineSet
EndChar

StartChar: acute
Encoding: 180 180 37
Width: 567
Flags: HW
LayerCount: 2
Fore
SplineSet
351 1204 m 1,0,1
 319.294 1215.53 319.294 1215.53 298.647 1240.76 c 128,-1,2
 278 1266 278 1266 274 1277 c 1,3,-1
 514 1615 l 1,4,5
 562.06 1601.27 562.06 1601.27 632 1525.5 c 0,6,7
 650 1506 650 1506 657 1492 c 1,8,-1
 351 1204 l 1,0,1
EndSplineSet
EndChar

StartChar: quotedblleft
Encoding: 8220 8220 38
Width: 854
Flags: HW
LayerCount: 2
Fore
SplineSet
757 1604 m 1,0,1
 629.599 1416.44 629.599 1416.44 622 1229 c 1,2,3
 489.111 1229 489.111 1229 437 1296 c 1,4,5
 456.63 1431.77 456.63 1431.77 556 1558 c 0,6,7
 599 1613 599 1613 650 1654 c 1,8,9
 723.56 1646.99 723.56 1646.99 757 1604 c 1,0,1
416 1604 m 1,10,11
 288.599 1416.44 288.599 1416.44 281 1229 c 1,12,13
 148.111 1229 148.111 1229 96 1296 c 1,14,15
 115.63 1431.77 115.63 1431.77 215 1558 c 0,16,17
 258 1613 258 1613 309 1654 c 1,18,19
 382.56 1646.99 382.56 1646.99 416 1604 c 1,10,11
EndSplineSet
EndChar

StartChar: quotedblright
Encoding: 8221 8221 39
Width: 854
Flags: HW
LayerCount: 2
Fore
SplineSet
437 1275 m 1,0,1
 564.737 1468.43 564.737 1468.43 572 1650 c 1,2,3
 704.889 1650 704.889 1650 757 1583 c 1,4,5
 735.649 1445.04 735.649 1445.04 638 1321 c 0,6,7
 595 1266 595 1266 544 1225 c 1,8,9
 473.269 1228.37 473.269 1228.37 437 1275 c 1,0,1
96 1275 m 1,10,11
 223.737 1468.43 223.737 1468.43 231 1650 c 1,12,13
 363.889 1650 363.889 1650 416 1583 c 1,14,15
 394.649 1445.04 394.649 1445.04 297 1321 c 0,16,17
 254 1266 254 1266 203 1225 c 1,18,19
 132.269 1228.37 132.269 1228.37 96 1275 c 1,10,11
EndSplineSet
EndChar

StartChar: ae
Encoding: 230 230 40
Width: 1702
Flags: HW
LayerCount: 2
Fore
SplineSet
1212 -20 m 0,0,1
 982 -20 982 -20 860 130 c 1,2,-1
 808 130 l 1,3,4
 747.38 47.87 747.38 47.87 623.5 3 c 0,5,6
 560 -20 560 -20 479 -20 c 128,-1,7
 398 -20 398 -20 337.5 3 c 128,-1,8
 277 26 277 26 233 68.5 c 0,9,10
 140 158.33 140 158.33 140 312 c 0,11,12
 140 454.27 140 454.27 236.5 528 c 0,13,14
 319.697 591.567 319.697 591.567 466 596 c 2,15,-1
 748 606 l 1,16,-1
 748 706 l 2,17,18
 748 822.824 748 822.824 702.5 871 c 0,19,20
 651.5 925 651.5 925 519.583 925 c 128,-1,21
 387.667 925 387.667 925 274 870 c 1,22,23
 232.189 924.108 232.189 924.108 225 996 c 1,24,25
 375.316 1064 375.316 1064 525 1064 c 0,26,27
 757.053 1064 757.053 1064 832.5 972.5 c 0,28,29
 856 944 856 944 873 909 c 1,30,31
 950.716 1015.86 950.716 1015.86 1092.5 1052.5 c 0,32,33
 1137 1064 1137 1064 1203.5 1064 c 128,-1,34
 1270 1064 1270 1064 1340.5 1035 c 128,-1,35
 1411 1006 1411 1006 1460 953.5 c 0,36,37
 1561 845.286 1561 845.286 1561 667 c 0,38,39
 1561 597 1561 597 1553 521 c 1,40,-1
 904 501 l 1,41,42
 904 317 904 317 983 221.5 c 128,-1,43
 1062 126 1062 126 1209.57 126 c 128,-1,44
 1357.13 126 1357.13 126 1475 178 c 1,45,46
 1507.68 99.0176 1507.68 99.0176 1514 39 c 1,47,48
 1382.12 -20 1382.12 -20 1212 -20 c 0,0,1
1415 637 m 1,49,50
 1415 761.873 1415 761.873 1358.5 842 c 0,51,52
 1299.97 925 1299.97 925 1204 925 c 0,53,54
 1019.12 925 1019.12 925 944.5 744 c 0,55,56
 921 687 921 687 912 617 c 1,57,-1
 1415 637 l 1,49,50
798 231 m 1,58,59
 748 347.667 748 347.667 748 484 c 1,60,-1
 486 474 l 1,61,62
 392 469 392 469 354 431 c 128,-1,63
 316 393 316 393 316 331.5 c 128,-1,64
 316 270 316 270 333.5 232.5 c 128,-1,65
 351 195 351 195 382 170.5 c 0,66,67
 443.367 122 443.367 122 543 122 c 0,68,69
 689 122 689 122 798 231 c 1,58,59
EndSplineSet
EndChar

StartChar: oslash
Encoding: 248 248 41
Width: 1195
Flags: HW
LayerCount: 2
Fore
SplineSet
349 182 m 1,0,-1
 367 196 l 1,1,-1
 737 913 l 1,2,-1
 737 934 l 1,3,-1
 865 1185 l 1,4,5
 935.422 1174.44 935.422 1174.44 974 1123 c 1,6,-1
 842 868 l 1,7,-1
 821 853 l 1,8,-1
 455 136 l 1,9,-1
 455 112 l 1,10,-1
 316 -159 l 1,11,12
 253.231 -144.231 253.231 -144.231 205 -96 c 1,13,-1
 349 182 l 1,0,-1
130 523 m 256,14,15
 130 783.419 130 783.419 260 926 c 0,16,17
 385.824 1064 385.824 1064 600 1064 c 0,18,19
 938 1064 938 1064 1032.5 768.5 c 0,20,21
 1064 670 1064 670 1064 537.5 c 128,-1,22
 1064 405 1064 405 1031.5 301.5 c 128,-1,23
 999 198 999 198 939 126.5 c 0,24,25
 816.063 -20 816.063 -20 600 -20 c 0,26,27
 259.576 -20 259.576 -20 162 289.5 c 0,28,29
 130 391 130 391 130 523 c 256,14,15
312 523 m 0,30,31
 312 123 312 123 600 123 c 0,32,33
 741.571 123 741.571 123 815.5 243 c 0,34,35
 882 350.942 882 350.942 882 539.471 c 128,-1,36
 882 728 882 728 815.5 827.5 c 128,-1,37
 749 927 749 927 600 927 c 0,38,39
 457.102 927 457.102 927 381.5 812 c 0,40,41
 312 706.282 312 706.282 312 523 c 0,30,31
EndSplineSet
EndChar

StartChar: quotesinglbase
Encoding: 8218 8218 42
Width: 512
Flags: HW
LayerCount: 2
Fore
SplineSet
106 -205 m 1,0,1
 232.969 -18.0728 232.969 -18.0728 243 170 c 1,2,3
 355.231 170 355.231 170 406 104 c 1,4,5
 386.259 -34.184 386.259 -34.184 288 -159 c 0,6,7
 245 -214 245 -214 194 -255 c 1,8,9
 142.203 -251.547 142.203 -251.547 106 -205 c 1,0,1
EndSplineSet
EndChar

StartChar: quotedblbase
Encoding: 8222 8222 43
Width: 854
Flags: HW
LayerCount: 2
Fore
SplineSet
425 -205 m 1,0,1
 552.737 -11.5693 552.737 -11.5693 560 170 c 1,2,3
 692.889 170 692.889 170 745 103 c 1,4,5
 723.649 -34.9592 723.649 -34.9592 626 -159 c 0,6,7
 583 -214 583 -214 532 -255 c 1,8,9
 461.269 -251.632 461.269 -251.632 425 -205 c 1,0,1
84 -205 m 1,10,11
 211.737 -11.5693 211.737 -11.5693 219 170 c 1,12,13
 351.889 170 351.889 170 404 103 c 1,14,15
 382.649 -34.9592 382.649 -34.9592 285 -159 c 0,16,17
 242 -214 242 -214 191 -255 c 1,18,19
 120.269 -251.632 120.269 -251.632 84 -205 c 1,10,11
EndSplineSet
EndChar

StartChar: dotaccent
Encoding: 729 729 44
Width: 523
Flags: HW
LayerCount: 2
Fore
SplineSet
261 1225 m 256,0,1
 214 1225 214 1225 189 1250 c 0,2,3
 146 1293 146 1293 146 1341 c 256,4,5
 146 1390.56 146 1390.56 171 1414.78 c 0,6,7
 214.581 1457 214.581 1457 261 1457 c 256,8,9
 337.349 1457 337.349 1457 368.5 1386.5 c 0,10,11
 378 1365 378 1365 378 1341 c 256,12,13
 378 1294.61 378 1294.61 353 1268.81 c 0,14,15
 310.562 1225 310.562 1225 261 1225 c 256,0,1
EndSplineSet
EndChar

StartChar: ring
Encoding: 730 730 45
Width: 538
Flags: HW
LayerCount: 2
Fore
SplineSet
468 1225 m 128,-1,1
 407 1171 407 1171 294.5 1171 c 128,-1,2
 182 1171 182 1171 123.5 1224 c 128,-1,3
 65 1277 65 1277 65 1372 c 256,4,5
 65 1467 65 1467 123.5 1521 c 128,-1,6
 182 1575 182 1575 294.5 1575 c 128,-1,7
 407 1575 407 1575 468 1522 c 128,-1,8
 529 1469 529 1469 529 1374 c 128,-1,0
 529 1279 529 1279 468 1225 c 128,-1,1
409 1379 m 0,9,10
 409 1479 409 1479 295 1479 c 0,11,12
 238 1479 238 1479 207.5 1449 c 128,-1,13
 177 1419 177 1419 177 1371.5 c 128,-1,14
 177 1324 177 1324 207.5 1296.5 c 128,-1,15
 238 1269 238 1269 297 1269 c 128,-1,16
 356 1269 356 1269 382.5 1301.5 c 128,-1,17
 409 1334 409 1334 409 1379 c 0,9,10
EndSplineSet
EndChar

StartChar: A
Encoding: 65 65 46
Width: 1192
Flags: HW
LayerCount: 2
Fore
SplineSet
440 1358 m 1,0,-1
 748 1358 l 1,1,-1
 1147 0 l 1,2,-1
 961 0 l 1,3,-1
 836 436 l 1,4,-1
 346 436 l 1,5,-1
 221 0 l 1,6,-1
 41 0 l 1,7,-1
 440 1358 l 1,0,-1
791 588 m 1,8,-1
 602 1242 l 1,9,-1
 578 1242 l 1,10,-1
 389 588 l 1,11,-1
 791 588 l 1,8,-1
EndSplineSet
EndChar

StartChar: quoteleft
Encoding: 8216 8216 47
Width: 512
Flags: HW
LayerCount: 2
Fore
SplineSet
416 1604 m 1,0,1
 288.599 1416.44 288.599 1416.44 281 1229 c 1,2,3
 148.111 1229 148.111 1229 96 1296 c 1,4,5
 115.63 1431.77 115.63 1431.77 215 1558 c 0,6,7
 258 1613 258 1613 309 1654 c 1,8,9
 382.56 1646.99 382.56 1646.99 416 1604 c 1,0,1
EndSplineSet
EndChar

StartChar: quoteright
Encoding: 8217 8217 48
Width: 512
Flags: HW
LayerCount: 2
Fore
SplineSet
204 1227 m 1,0,1
 132.231 1230.42 132.231 1230.42 96 1277 c 1,2,3
 224.571 1466.29 224.571 1466.29 232 1652 c 1,4,5
 365.231 1652 365.231 1652 416 1586 c 1,6,7
 396.259 1447.82 396.259 1447.82 298 1323 c 0,8,9
 255 1268 255 1268 204 1227 c 1,0,1
EndSplineSet
EndChar

StartChar: hyphen
Encoding: 45 45 49
Width: 1023
Flags: HW
LayerCount: 2
Fore
SplineSet
174 652 m 1,0,-1
 846 650 l 1,1,-1
 846 518 l 1,2,-1
 174 520 l 1,3,-1
 174 652 l 1,0,-1
EndSplineSet
EndChar

StartChar: F
Encoding: 70 70 50
Width: 1025
Flags: HW
LayerCount: 2
Fore
SplineSet
654 593 m 2,0,-1
 365 596 l 1,1,-1
 365 0 l 1,2,-1
 182 0 l 1,3,-1
 182 1358 l 1,4,-1
 929 1358 l 1,5,6
 929 1353 929 1353 930 1348 c 2,7,-1
 931 1321 l 1,8,9
 931 1251 931 1251 909 1207 c 1,10,-1
 729 1213 l 2,11,12
 690 1214 690 1214 645 1215 c 2,13,-1
 553 1217 l 2,14,15
 459 1219 459 1219 365 1219 c 1,16,-1
 365 730 l 1,17,18
 389 730 389 730 424 730.5 c 128,-1,19
 459 731 459 731 499.5 731.5 c 2,20,-1
 583.5 732.5 l 2,21,22
 627 733 627 733 697 734.5 c 128,-1,23
 767 736 767 736 876 738 c 1,24,25
 876 733 876 733 877 726 c 2,26,27
 878 693 l 1,28,29
 878 635.5 878 635.5 865 590 c 1,30,31
 753 591 753 591 654 593 c 2,0,-1
EndSplineSet
EndChar

StartChar: E
Encoding: 69 69 51
Width: 1025
Flags: HW
LayerCount: 2
Fore
SplineSet
939 107 m 1,0,1
 939 45 939 45 927 0 c 1,2,-1
 182 0 l 1,3,-1
 182 1358 l 1,4,-1
 929 1358 l 1,5,6
 929 1353 929 1353 930 1348 c 2,7,-1
 931 1321 l 1,8,9
 931 1251 931 1251 909 1207 c 1,10,-1
 727 1213 l 1,11,12
 487 1219 487 1219 365 1219 c 1,13,-1
 365 764 l 1,14,15
 392 764 392 764 428.5 764.5 c 128,-1,16
 465 765 465 765 506 765.5 c 2,17,18
 590.5 766.5 l 2,19,20
 634 767 634 767 702.5 768.5 c 128,-1,21
 771 770 771 770 876 772 c 1,22,23
 876 767 876 767 877 760 c 2,24,25
 878 728 l 1,26,27
 878 670.5 878 670.5 865 625 c 1,28,29
 761 626 761 626 693 627 c 128,-1,30
 625 628 625 628 582.5 628.5 c 2,31,-1
 500.5 629.5 l 2,32,33
 461 630 461 630 425.5 630.5 c 128,-1,34
 390 631 390 631 365 631 c 1,35,-1
 365 138 l 1,36,37
 457 138 457 138 530.5 139.5 c 2,38,-1
 651.5 142 l 2,39,40
 739.349 143.849 739.349 143.849 937 152 c 1,41,42
 937 147 937 147 938 140 c 2,43,-1
 939 107 l 1,0,1
EndSplineSet
EndChar

StartChar: D
Encoding: 68 68 52
Width: 1362
Flags: HW
LayerCount: 2
Fore
SplineSet
182 1358 m 1,0,1
 407 1368 407 1368 562.5 1368 c 128,-1,2
 718 1368 718 1368 836.5 1325.5 c 128,-1,3
 955 1283 955 1283 1035.5 1197.5 c 0,4,5
 1200 1022.78 1200 1022.78 1200 685 c 256,6,7
 1200 348.065 1200 348.065 1025.5 171.5 c 0,8,9
 856.006 1.62933e-05 856.006 1.62933e-05 551 0 c 2,10,-1
 182 0 l 1,11,-1
 182 1358 l 1,0,1
568.5 1217 m 0,12,13
 457 1217 457 1217 365 1209 c 1,14,-1
 365 152 l 1,15,-1
 580 152 l 2,16,17
 775.361 152 775.361 152 893 306 c 0,18,19
 1006 453.927 1006 453.927 1006 685 c 0,20,21
 1006 932.236 1006 932.236 893 1074 c 0,22,23
 779.014 1217 779.014 1217 568.5 1217 c 0,12,13
EndSplineSet
EndChar

StartChar: G
Encoding: 71 71 53
Width: 1192
Flags: HW
LayerCount: 2
Fore
SplineSet
977 617 m 256,0,1
 1004 617 1004 617 1070 606 c 1,2,3
 1070 394.5 1070 394.5 1066 238.75 c 128,-1,4
 1062 83 1062 83 1060 -2 c 1,5,6
 910 -27 910 -27 742 -27 c 0,7,8
 435 -27 435 -27 278.5 149 c 128,-1,9
 122 325 122 325 122 667 c 0,10,11
 122 1010.42 122 1010.42 282.5 1197.5 c 0,12,13
 443.361 1385 443.361 1385 742 1385 c 0,14,15
 888.143 1385 888.143 1385 1056 1335 c 1,16,17
 1048.83 1256.15 1048.83 1256.15 1014 1184 c 1,18,19
 879 1229 879 1229 760 1229 c 128,-1,20
 641 1229 641 1229 562 1189 c 128,-1,21
 483 1149 483 1149 427.5 1075.5 c 0,22,23
 314 925.189 314 925.189 314 667 c 256,24,25
 314 411.108 314 411.108 427.5 270 c 0,26,27
 541.717 128 541.717 128 742 128 c 0,28,29
 842 128 842 128 898 136 c 1,30,31
 898 169 898 169 897 206.5 c 128,-1,32
 896 244 896 244 895.5 283 c 128,-1,33
 895 322 895 322 894 361 c 0,34,35
 891.636 449.637 891.636 449.637 888 606 c 1,36,37
 927.286 617 927.286 617 977 617 c 256,0,1
EndSplineSet
EndChar

StartChar: K
Encoding: 75 75 54
Width: 1195
Flags: HW
LayerCount: 2
Fore
SplineSet
182 1358 m 1,0,-1
 365 1358 l 1,1,-1
 365 752 l 1,2,-1
 424 752 l 1,3,-1
 880 1358 l 1,4,-1
 1107 1358 l 1,5,-1
 592 695 l 1,6,-1
 1147 0 l 1,7,-1
 915 0 l 1,8,-1
 416 639 l 1,9,-1
 365 639 l 1,10,-1
 365 0 l 1,11,-1
 182 0 l 1,12,-1
 182 1358 l 1,0,-1
EndSplineSet
EndChar

StartChar: L
Encoding: 76 76 55
Width: 1025
Flags: HW
LayerCount: 2
Fore
SplineSet
957 152 m 1,0,1
 960 125 960 125 960 84.5 c 128,-1,2
 960 44 960 44 944 0 c 1,3,-1
 182 0 l 1,4,-1
 182 1358 l 1,5,-1
 365 1358 l 1,6,-1
 365 136 l 1,7,8
 470.667 136 470.667 136 537.333 138 c 128,-1,9
 604 140 604 140 653 141 c 128,-1,10
 702 142 702 142 777 145 c 2,11,-1
 957 152 l 1,0,1
EndSplineSet
EndChar

StartChar: T
Encoding: 84 84 56
Width: 1195
Flags: HW
LayerCount: 2
Fore
SplineSet
1073 1207 m 1,0,1
 761 1213 761 1213 682 1213 c 1,2,-1
 682 0 l 1,3,-1
 499 0 l 1,4,-1
 499 1213 l 1,5,6
 320 1213 320 1213 112 1205 c 1,7,8
 108 1237 108 1237 108 1275.9 c 128,-1,9
 108 1314.8 108 1314.8 117 1358 c 1,10,-1
 1083 1358 l 1,11,-1
 1086 1306 l 1,12,13
 1086 1249.25 1086 1249.25 1073 1207 c 1,0,1
EndSplineSet
EndChar

StartChar: O
Encoding: 79 79 57
Width: 1362
Flags: HW
LayerCount: 2
Fore
SplineSet
933.5 24.5 m 0,0,1
 829 -27 829 -27 683.5 -27 c 128,-1,2
 538 -27 538 -27 432 22 c 128,-1,3
 326 71 326 71 257 162.5 c 0,4,5
 122 341.522 122 341.522 122 679 c 256,6,7
 122 1192.83 122 1192.83 436 1336.5 c 0,8,9
 542 1385 542 1385 688 1385 c 128,-1,10
 834 1385 834 1385 939.5 1339 c 128,-1,11
 1045 1293 1045 1293 1111.5 1205.5 c 0,12,13
 1240 1036.42 1240 1036.42 1240 698 c 0,14,15
 1240 175.55 1240 175.55 933.5 24.5 c 0,0,1
685 1223 m 0,16,17
 314 1223 314 1223 314 679 c 256,18,19
 314 284.539 314 284.539 515.5 174.5 c 0,20,21
 586 136 586 136 685.5 136 c 128,-1,22
 785 136 785 136 854 179 c 128,-1,23
 923 222 923 222 966 297.5 c 0,24,25
 1048 441.477 1048 441.477 1048 698 c 0,26,27
 1048 964.14 1048 964.14 966 1090 c 0,28,29
 879.349 1223 879.349 1223 685 1223 c 0,16,17
EndSplineSet
EndChar

StartChar: U
Encoding: 85 85 58
Width: 1365
Flags: HW
LayerCount: 2
Fore
SplineSet
1003 570 m 1,0,-1
 1001 973 l 2,1,2
 1000 1149 1000 1149 999 1358 c 1,3,-1
 1181 1358 l 1,4,-1
 1181 527 l 2,5,6
 1181 246.483 1181 246.483 1073 118 c 0,7,8
 957 -20 957 -20 685 -20 c 256,9,10
 412.196 -20 412.196 -20 293.5 120 c 0,11,12
 184 249.154 184 249.154 184 527 c 2,13,-1
 184 612 l 1,14,-1
 186 1007 l 2,15,16
 187 1171 187 1171 188 1358 c 1,17,-1
 371 1358 l 1,18,-1
 371 499 l 2,19,20
 371 238.475 371 238.475 538 167.5 c 0,21,22
 598 142 598 142 685 142 c 256,23,24
 1003 142 1003 142 1003 499 c 2,25,-1
 1003 570 l 1,0,-1
EndSplineSet
EndChar

StartChar: M
Encoding: 77 77 59
Width: 1535
Flags: HW
LayerCount: 2
Fore
SplineSet
172 1358 m 1,0,-1
 456 1358 l 1,1,-1
 756 406 l 1,2,-1
 780 406 l 1,3,-1
 1080 1358 l 1,4,-1
 1364 1358 l 1,5,-1
 1424 0 l 1,6,-1
 1242 0 l 1,7,-1
 1206 1159 l 1,8,-1
 1188 1159 l 1,9,-1
 880 238 l 1,10,-1
 658 238 l 1,11,-1
 346 1159 l 1,12,-1
 327 1159 l 1,13,-1
 294 0 l 1,14,-1
 111 0 l 1,15,-1
 172 1358 l 1,0,-1
EndSplineSet
EndChar

StartChar: N
Encoding: 78 78 60
Width: 1365
Flags: HW
LayerCount: 2
Fore
SplineSet
182 1358 m 1,0,-1
 507 1358 l 1,1,-1
 973 199 l 1,2,-1
 1006 199 l 1,3,-1
 1006 1358 l 1,4,-1
 1188 1358 l 1,5,-1
 1188 0 l 1,6,-1
 872 0 l 1,7,-1
 397 1159 l 1,8,-1
 365 1159 l 1,9,-1
 365 0 l 1,10,-1
 182 0 l 1,11,-1
 182 1358 l 1,0,-1
EndSplineSet
EndChar

StartChar: P
Encoding: 80 80 61
Width: 1195
Flags: HW
LayerCount: 2
Fore
SplineSet
599.833 519 m 0,0,1
 489.667 519 489.667 519 365 530 c 1,2,-1
 365 0 l 1,3,-1
 182 0 l 1,4,-1
 182 1358 l 1,5,-1
 673 1358 l 2,6,7
 863.336 1358 863.336 1358 966.5 1246.5 c 0,8,9
 1067 1137.88 1067 1137.88 1067 946 c 0,10,11
 1067 765.983 1067 765.983 946 647 c 0,12,13
 815.831 519 815.831 519 599.833 519 c 0,0,1
365 677 m 1,14,15
 425 667 425 667 514.5 667 c 128,-1,16
 604 667 604 667 667 682 c 128,-1,17
 730 697 730 697 775.5 729.5 c 0,18,19
 873 799.143 873 799.143 873 942 c 0,20,21
 873 1131.41 873 1131.41 736 1188 c 0,22,23
 690 1207 690 1207 628 1207 c 2,24,-1
 365 1207 l 1,25,-1
 365 677 l 1,14,15
EndSplineSet
EndChar

StartChar: R
Encoding: 82 82 62
Width: 1195
Flags: HW
LayerCount: 2
Fore
SplineSet
565 572 m 2,0,1
 448.333 572 448.333 572 365 582 c 1,2,-1
 365 0 l 1,3,-1
 182 0 l 1,4,-1
 182 1358 l 1,5,-1
 643 1358 l 2,6,7
 833.54 1358 833.54 1358 936.5 1254 c 0,8,9
 1037 1152.48 1037 1152.48 1037 977 c 0,10,11
 1037 767.115 1037 767.115 885 657.5 c 0,12,13
 833 620 833 620 762 598 c 1,14,-1
 1079 0 l 1,15,-1
 880 0 l 1,16,-1
 598 572 l 1,17,-1
 565 572 l 2,0,1
365 730 m 1,18,19
 431.667 720 431.667 720 521.833 720 c 128,-1,20
 612 720 612 720 667.5 735.5 c 128,-1,21
 723 751 723 751 762 782 c 0,22,23
 843 846.385 843 846.385 843 965.692 c 128,-1,24
 843 1085 843 1085 779.5 1146 c 128,-1,25
 716 1207 716 1207 598 1207 c 2,26,-1
 365 1207 l 1,27,-1
 365 730 l 1,18,19
EndSplineSet
EndChar

StartChar: Q
Encoding: 81 81 63
Width: 1362
Flags: HW
LayerCount: 2
Fore
SplineSet
741 -25 m 1,0,1
 713 -27 713 -27 685 -27 c 0,2,3
 399.902 -27 399.902 -27 257 162.5 c 0,4,5
 122 341.522 122 341.522 122 679 c 256,6,7
 122 1192.83 122 1192.83 436 1336.5 c 0,8,9
 542 1385 542 1385 688 1385 c 128,-1,10
 834 1385 834 1385 939.5 1339 c 128,-1,11
 1045 1293 1045 1293 1111.5 1205.5 c 0,12,13
 1240 1036.42 1240 1036.42 1240 698 c 0,14,15
 1240 212.035 1240 212.035 961 54 c 1,16,-1
 961 20 l 1,17,18
 1082.16 -56.0203 1082.16 -56.0203 1237 -124 c 1,19,20
 1208.56 -214.498 1208.56 -214.498 1138 -278 c 1,21,22
 1013 -206 1013 -206 912 -139 c 2,23,-1
 742 -25 l 1,24,-1
 741 -25 l 1,0,1
685 1223 m 0,25,26
 314 1223 314 1223 314 679 c 256,27,28
 314 284.539 314 284.539 515.5 174.5 c 0,29,30
 586 136 586 136 685.5 136 c 128,-1,31
 785 136 785 136 854 179 c 128,-1,32
 923 222 923 222 966 297.5 c 0,33,34
 1048 441.477 1048 441.477 1048 698 c 0,35,36
 1048 964.14 1048 964.14 966 1090 c 0,37,38
 879.349 1223 879.349 1223 685 1223 c 0,25,26
EndSplineSet
EndChar

StartChar: S
Encoding: 83 83 64
Width: 1195
Flags: HW
LayerCount: 2
Fore
SplineSet
159 43 m 1,0,1
 167.36 130.776 167.36 130.776 198 203 c 1,2,3
 381.941 144 381.941 144 499.471 144 c 128,-1,4
 617 144 617 144 674.5 157 c 128,-1,5
 732 170 732 170 767 195.5 c 0,6,7
 832 242.857 832 242.857 832 350 c 0,8,9
 832 453.982 832 453.982 786.5 497 c 0,10,11
 736.694 544.09 736.694 544.09 597.847 578.545 c 128,-1,12
 459 613 459 613 381 650 c 128,-1,13
 303 687 303 687 255 735 c 0,14,15
 166 824 166 824 166 979 c 0,16,17
 166 1185.14 166 1185.14 296.5 1288.5 c 0,18,19
 418.343 1385 418.343 1385 636.047 1385 c 128,-1,20
 853.75 1385 853.75 1385 985 1310 c 1,21,22
 977.963 1239.63 977.963 1239.63 928 1166 c 1,23,24
 827.529 1227 827.529 1227 662.265 1227 c 128,-1,25
 497 1227 497 1227 430.5 1175.5 c 128,-1,26
 364 1124 364 1124 364 1016 c 0,27,28
 364 912.9 364 912.9 415 867 c 0,29,30
 469.275 818.152 469.275 818.152 608.138 782.076 c 128,-1,31
 747 746 747 746 823 713 c 128,-1,32
 899 680 899 680 946.5 635 c 0,33,34
 1035 551.158 1035 551.158 1035 383 c 0,35,36
 1035 173.143 1035 173.143 920.5 75 c 0,37,38
 801.5 -27 801.5 -27 566 -27 c 128,-1,39
 330.5 -27 330.5 -27 159 43 c 1,0,1
EndSplineSet
EndChar

StartChar: V
Encoding: 86 86 65
Width: 1192
Flags: HW
LayerCount: 2
Fore
SplineSet
44 1358 m 1,0,-1
 236 1358 l 1,1,-1
 578 150 l 1,2,-1
 611 150 l 1,3,-1
 957 1358 l 1,4,-1
 1147 1358 l 1,5,-1
 743 0 l 1,6,-1
 441 0 l 1,7,-1
 44 1358 l 1,0,-1
EndSplineSet
EndChar

StartChar: W
Encoding: 87 87 66
Width: 1875
Flags: HW
LayerCount: 2
Fore
SplineSet
8 1358 m 1,0,-1
 200 1358 l 1,1,-1
 513 150 l 1,2,-1
 545 150 l 1,3,-1
 810 1358 l 1,4,-1
 1074 1358 l 1,5,-1
 1335 150 l 1,6,-1
 1368 150 l 1,7,-1
 1685 1358 l 1,8,-1
 1867 1358 l 1,9,-1
 1494 0 l 1,10,-1
 1198 0 l 1,11,-1
 948 1198 l 1,12,-1
 924 1198 l 1,13,-1
 671 0 l 1,14,-1
 375 0 l 1,15,-1
 8 1358 l 1,0,-1
EndSplineSet
EndChar

StartChar: X
Encoding: 88 88 67
Width: 1192
Flags: HW
LayerCount: 2
Fore
SplineSet
473 695 m 1,0,-1
 24 1358 l 1,1,-1
 237 1358 l 1,2,-1
 566 853 l 1,3,-1
 605 853 l 1,4,-1
 939 1358 l 1,5,-1
 1158 1358 l 1,6,-1
 690 673 l 1,7,-1
 1179 0 l 1,8,-1
 955 0 l 1,9,-1
 584 534 l 1,10,-1
 568 534 l 1,11,-1
 229 0 l 1,12,-1
 13 0 l 1,13,-1
 473 695 l 1,0,-1
EndSplineSet
EndChar

StartChar: Y
Encoding: 89 89 68
Width: 1025
Flags: HW
LayerCount: 2
Fore
SplineSet
422 509 m 1,0,-1
 13 1358 l 1,1,-1
 212 1358 l 1,2,-1
 493 700 l 1,3,-1
 529 700 l 1,4,-1
 813 1358 l 1,5,-1
 1012 1358 l 1,6,-1
 605 509 l 1,7,-1
 605 0 l 1,8,-1
 422 0 l 1,9,-1
 422 509 l 1,0,-1
EndSplineSet
EndChar

StartChar: Z
Encoding: 90 90 69
Width: 1025
Flags: HW
LayerCount: 2
Fore
SplineSet
980 118 m 1,0,1
 980 60 980 60 955 0 c 1,2,-1
 44 0 l 1,3,-1
 44 152 l 1,4,-1
 758 1217 l 1,5,6
 572 1217 572 1217 87 1207 c 1,7,8
 76 1251 76 1251 76 1291.67 c 128,-1,9
 76 1332.33 76 1332.33 87 1358 c 1,10,-1
 959 1358 l 1,11,-1
 959 1207 l 1,12,-1
 249 140 l 1,13,14
 574.5 140 574.5 140 977 154 c 1,15,-1
 980 118 l 1,0,1
EndSplineSet
EndChar

StartChar: one
Encoding: 49 49 70
Width: 854
Flags: HW
LayerCount: 2
Fore
SplineSet
450 1145 m 1,0,1
 362 1104.38 362 1104.38 290 1085 c 1,2,3
 241.786 1111.52 241.786 1111.52 231 1205 c 1,4,5
 285 1226 285 1226 331 1246 c 2,6,-1
 412 1282 l 2,7,8
 452 1300 452 1300 486 1318 c 1,9,-1
 623 1318 l 1,10,-1
 623 0 l 1,11,-1
 450 0 l 1,12,-1
 450 1145 l 1,0,1
EndSplineSet
EndChar

StartChar: two
Encoding: 50 50 71
Width: 1195
Flags: HW
LayerCount: 2
Fore
SplineSet
1003 123 m 1,0,1
 1003 37.7857 1003 37.7857 980 0 c 1,2,-1
 191 0 l 1,3,-1
 191 142 l 1,4,5
 506.32 462.108 506.32 462.108 580.66 543.554 c 128,-1,6
 655 625 655 625 697 679.5 c 128,-1,7
 739 734 739 734 762.5 778.5 c 0,8,9
 802 853.298 802 853.298 802 926.649 c 128,-1,10
 802 1000 802 1000 784 1046.5 c 128,-1,11
 766 1093 766 1093 733.5 1125 c 0,12,13
 665.453 1192 665.453 1192 559 1192 c 0,14,15
 402.538 1192 402.538 1192 271 1097 c 1,16,17
 229.6 1159.1 229.6 1159.1 214 1241 c 1,18,19
 390.037 1338 390.037 1338 583.519 1338 c 128,-1,20
 777 1338 777 1338 885.5 1244.5 c 128,-1,21
 994 1151 994 1151 994 961 c 0,22,23
 994 801.914 994 801.914 837 600.5 c 0,24,25
 761 503 761 503 652.5 391 c 1,26,-1
 409 144 l 1,27,28
 672 144 672 144 1001 172 c 1,29,30
 1001 166 1001 166 1002 158 c 2,31,-1
 1003 123 l 1,0,1
EndSplineSet
EndChar

StartChar: three
Encoding: 51 51 72
Width: 1195
Flags: HW
LayerCount: 2
Fore
SplineSet
988 1000 m 0,0,1
 988 769.529 988 769.529 760 698 c 1,2,-1
 760 687 l 1,3,4
 947.601 647.505 947.601 647.505 1008.5 496 c 0,5,6
 1029 445 1029 445 1029 364 c 128,-1,7
 1029 283 1029 283 995 207.5 c 128,-1,8
 961 132 961 132 899 81.5 c 0,9,10
 774.386 -20 774.386 -20 552 -20 c 0,11,12
 350.571 -20 350.571 -20 166 56 c 1,13,14
 176.061 126.429 176.061 126.429 224 201 c 1,15,16
 362.45 130 362.45 130 532 130 c 0,17,18
 660.696 130 660.696 130 745.5 200.5 c 0,19,20
 836 275.735 836 275.735 836 404 c 0,21,22
 836 491.429 836 491.429 774.5 550 c 0,23,24
 704.15 617 704.15 617 574 617 c 2,25,-1
 468 617 l 1,26,27
 457 663 457 663 457 701.5 c 128,-1,28
 457 740 457 740 462 760 c 1,29,-1
 574 760 l 2,30,31
 667.945 760 667.945 760 729.5 815.5 c 0,32,33
 795 874.557 795 874.557 795 983 c 0,34,35
 795 1128.22 795 1128.22 649.5 1174 c 0,36,37
 605 1188 605 1188 552 1188 c 0,38,39
 398.526 1188 398.526 1188 264 1117 c 1,40,41
 218.72 1178.96 218.72 1178.96 207 1261 c 1,42,43
 386.667 1338 386.667 1338 578.333 1338 c 128,-1,44
 770 1338 770 1338 879 1254 c 128,-1,45
 988 1170 988 1170 988 1000 c 0,0,1
EndSplineSet
EndChar

StartChar: zero
Encoding: 48 48 73
Width: 1362
Flags: HW
LayerCount: 2
Fore
SplineSet
684 -20 m 0,0,1
 202 -20 202 -20 202 659 c 256,2,3
 202 1160.98 202 1160.98 471.5 1293.5 c 0,4,5
 562 1338 562 1338 686.5 1338 c 128,-1,6
 811 1338 811 1338 901.5 1296.5 c 128,-1,7
 992 1255 992 1255 1049 1172 c 0,8,9
 1159 1011.82 1159 1011.82 1159 677 c 256,10,11
 1159 166.816 1159 166.816 896.5 27.5 c 0,12,13
 807 -20 807 -20 684 -20 c 0,0,1
394 659 m 256,14,15
 394 122 394 122 684 122 c 0,16,17
 828.405 122 828.405 122 901 280 c 0,18,19
 966 421.471 966 421.471 966 677 c 0,20,21
 966 1070.86 966 1070.86 813.5 1163.5 c 0,22,23
 760 1196 760 1196 684 1196 c 0,24,25
 394 1196 394 1196 394 659 c 256,14,15
EndSplineSet
EndChar

StartChar: four
Encoding: 52 52 74
Width: 1362
Flags: HW
LayerCount: 2
Fore
SplineSet
202 324 m 1,0,1
 160.857 369.714 160.857 369.714 157 470 c 1,2,-1
 678 1379 l 1,3,4
 813.552 1329.06 813.552 1329.06 852 1281 c 1,5,-1
 673 1007 l 1,6,7
 484.651 701.584 484.651 701.584 436.825 617.292 c 1,8,-1
 354 466 l 1,9,-1
 788 466 l 1,10,-1
 788 828 l 1,11,12
 864.71 884.914 864.71 884.914 971 892 c 1,13,-1
 971 466 l 1,14,-1
 1184 466 l 1,15,16
 1184 462 1184 462 1185 457 c 2,17,-1
 1186 434 l 1,18,19
 1186 368.357 1186 368.357 1163 324 c 1,20,-1
 971 324 l 1,21,-1
 971 0 l 1,22,-1
 788 0 l 1,23,-1
 788 324 l 1,24,-1
 202 324 l 1,0,1
EndSplineSet
EndChar

StartChar: five
Encoding: 53 53 75
Width: 1192
Flags: HW
LayerCount: 2
Fore
SplineSet
415 793 m 1,0,1
 475 803 475 803 569.5 803 c 128,-1,2
 664 803 664 803 750 777 c 128,-1,3
 836 751 836 751 895 701 c 0,4,5
 1016 598.458 1016 598.458 1016 416 c 0,6,7
 1016 206.872 1016 206.872 896.5 93.5 c 128,-1,8
 776.865 -20 776.865 -20 560 -20 c 0,9,10
 360.571 -20 360.571 -20 176 56 c 1,11,12
 191.248 136.053 191.248 136.053 233 201 c 1,13,14
 357.25 130 357.25 130 529 130 c 0,15,16
 671.243 130 671.243 130 750.5 206 c 0,17,18
 823 275.521 823 275.521 823 385 c 0,19,20
 823 515.909 823 515.909 731 587 c 0,21,22
 643 655 643 655 484 655 c 0,23,24
 386 655 386 655 316 641 c 1,25,26
 273.062 679.167 273.062 679.167 251 738 c 1,27,-1
 271.5 1025 l 2,28,29
 275 1073 275 1073 278 1124 c 2,30,-1
 284 1226.5 l 2,31,32
 287 1278 287 1278 289 1328 c 1,33,-1
 950 1328 l 1,34,35
 950 1323 950 1323 951 1317 c 2,36,-1
 952 1289 l 1,37,38
 952 1199 952 1199 928 1151 c 1,39,40
 655.833 1174 655.833 1174 442 1174 c 1,41,-1
 415 793 l 1,0,1
EndSplineSet
EndChar

StartChar: six
Encoding: 54 54 76
Width: 1365
Flags: HW
LayerCount: 2
Fore
SplineSet
480 760 m 1,0,1
 612 859 612 859 753 859 c 0,2,3
 1014.36 859 1014.36 859 1092.5 626 c 0,4,5
 1120 544 1120 544 1120 433.5 c 128,-1,6
 1120 323 1120 323 1089 240 c 128,-1,7
 1058 157 1058 157 1002.5 99 c 0,8,9
 888.629 -20 888.629 -20 697 -20 c 0,10,11
 347.29 -20 347.29 -20 284.5 302 c 0,12,13
 265 402 265 402 265 568 c 128,-1,14
 265 734 265 734 298.5 887.5 c 128,-1,15
 332 1041 332 1041 394 1141 c 0,16,17
 516.14 1338 516.14 1338 739 1338 c 0,18,19
 923.875 1338 923.875 1338 1045 1281 c 1,20,21
 1037.63 1207.29 1037.63 1207.29 994 1138 c 1,22,23
 908.286 1188 908.286 1188 759 1188 c 0,24,25
 614.263 1188 614.263 1188 535.5 1065 c 0,26,27
 463.365 952.351 463.365 952.351 457 772 c 1,28,-1
 480 760 l 1,0,1
693 132 m 0,29,30
 927 132 927 132 927 428 c 0,31,32
 927 572 927 572 864.5 645 c 128,-1,33
 802 718 802 718 687 718 c 0,34,35
 568.5 718 568.5 718 468 584 c 1,36,37
 459 505.25 459 505.25 459 438.625 c 128,-1,38
 459 372 459 372 471.5 318.5 c 128,-1,39
 484 265 484 265 512 223.5 c 0,40,41
 573.735 132 573.735 132 693 132 c 0,29,30
EndSplineSet
EndChar

StartChar: nine
Encoding: 57 57 77
Width: 1365
Flags: HW
LayerCount: 2
Fore
SplineSet
636 -20 m 0,0,1
 444 -20 444 -20 330 37 c 1,2,3
 337.539 112.395 337.539 112.395 381 180 c 1,4,5
 466.714 130 466.714 130 616 130 c 0,6,7
 760.737 130 760.737 130 839.5 253 c 0,8,9
 911.635 365.649 911.635 365.649 918 546 c 1,10,-1
 895 558 l 1,11,12
 764.179 459 764.179 459 622 459 c 0,13,14
 360.64 459 360.64 459 282.5 692 c 0,15,16
 255 774 255 774 255 884.5 c 128,-1,17
 255 995 255 995 286 1078 c 128,-1,18
 317 1161 317 1161 372.5 1219 c 0,19,20
 486.371 1338 486.371 1338 678 1338 c 0,21,22
 1027.71 1338 1027.71 1338 1090.5 1016 c 0,23,24
 1110 916 1110 916 1110 750 c 128,-1,25
 1110 584 1110 584 1076.5 430.5 c 128,-1,26
 1043 277 1043 277 981 177 c 0,27,28
 858.86 -20 858.86 -20 636 -20 c 0,0,1
682 1186 m 0,29,30
 448 1186 448 1186 448 890 c 0,31,32
 448 746 448 746 510.5 673 c 128,-1,33
 573 600 573 600 688 600 c 0,34,35
 806.5 600 806.5 600 907 734 c 1,36,37
 916 812.75 916 812.75 916 879.375 c 128,-1,38
 916 946 916 946 903.5 999.5 c 128,-1,39
 891 1053 891 1053 863 1094.5 c 0,40,41
 801.265 1186 801.265 1186 682 1186 c 0,29,30
EndSplineSet
EndChar

StartChar: endash
Encoding: 8211 8211 78
Width: 1363
Flags: HW
LayerCount: 2
Fore
SplineSet
174 652 m 1,0,-1
 1188 652 l 1,1,-1
 1188 520 l 1,2,-1
 174 520 l 1,3,-1
 174 652 l 1,0,-1
EndSplineSet
EndChar

StartChar: emdash
Encoding: 8212 8212 79
Width: 2044
Flags: HW
LayerCount: 2
Fore
SplineSet
174 652 m 1,0,-1
 1870 652 l 1,1,-1
 1870 520 l 1,2,-1
 174 520 l 1,3,-1
 174 652 l 1,0,-1
EndSplineSet
EndChar

StartChar: slash
Encoding: 47 47 80
Width: 854
Flags: HW
LayerCount: 2
Fore
SplineSet
674 1385 m 1,0,1
 761.245 1378.02 761.245 1378.02 806 1328 c 1,2,-1
 181 -236 l 1,3,4
 96.2998 -224.952 96.2998 -224.952 47 -178 c 1,5,-1
 674 1385 l 1,0,1
EndSplineSet
EndChar

StartChar: seven
Encoding: 55 55 81
Width: 1195
Flags: HW
LayerCount: 2
Fore
SplineSet
178 1328 m 1,0,-1
 986 1320 l 1,1,2
 1008.87 1300.94 1008.87 1300.94 1021 1250 c 1,3,-1
 928 1068.5 l 2,4,5
 868 952 868 952 792.5 789.5 c 1,6,-1
 630 421.5 l 1,7,8
 543 216 543 216 455 -27 c 1,9,10
 347.828 -21.7721 347.828 -21.7721 261 35 c 1,11,12
 373 297 373 297 473 507.5 c 1,13,-1
 651 869 l 1,14,15
 742 1045 742 1045 820 1182 c 1,16,17
 519.429 1182 519.429 1182 198 1157 c 1,18,19
 174 1190.6 174 1190.6 174 1243.3 c 128,-1,20
 174 1296 174 1296 178 1328 c 1,0,-1
EndSplineSet
EndChar

StartChar: eight
Encoding: 56 56 82
Width: 1364
Flags: HW
LayerCount: 2
Fore
SplineSet
483 698 m 1,0,1
 280 767.849 280 767.849 280 994 c 0,2,3
 280 1154.93 280 1154.93 387 1246.5 c 128,-1,4
 493.921 1338 493.921 1338 682 1338 c 0,5,6
 862.551 1338 862.551 1338 970.5 1246.5 c 0,7,8
 1081 1152.84 1081 1152.84 1081 994 c 0,9,10
 1081 829.684 1081 829.684 962 742 c 0,11,12
 924 714 924 714 878 698 c 1,13,-1
 878 687 l 1,14,15
 985.849 660.546 985.849 660.546 1051 573 c 0,16,17
 1118 482.969 1118 482.969 1118 373.484 c 128,-1,18
 1118 264 1118 264 1085 194.5 c 128,-1,19
 1052 125 1052 125 994 77.5 c 0,20,21
 874.947 -20 874.947 -20 682 -20 c 0,22,23
 483.625 -20 483.625 -20 364 79 c 0,24,25
 243 179.138 243 179.138 243 353 c 0,26,27
 243 472.143 243 472.143 310.5 567.5 c 0,28,29
 376.619 660.907 376.619 660.907 483 687 c 1,30,-1
 483 698 l 1,0,1
593.5 782 m 0,31,32
 632 766 632 766 678 766 c 128,-1,33
 724 766 724 766 762 781 c 128,-1,34
 800 796 800 796 828 824.5 c 0,35,36
 889 886.589 889 886.589 889 985 c 0,37,38
 889 1077.59 889 1077.59 828 1137.5 c 0,39,40
 768.436 1196 768.436 1196 676.218 1196 c 128,-1,41
 584 1196 584 1196 528.5 1139.5 c 128,-1,42
 473 1083 473 1083 473 985 c 0,43,44
 473 832.078 473 832.078 593.5 782 c 0,31,32
434 345 m 0,45,46
 434 296 434 296 453.5 252.5 c 128,-1,47
 473 209 473 209 507 180 c 0,48,49
 575 122 575 122 682 122 c 0,50,51
 784 122 784 122 852 180 c 0,52,53
 927 243.971 927 243.971 927 355 c 0,54,55
 927 448.533 927 448.533 869 522 c 0,56,57
 799.526 610 799.526 610 682 610 c 0,58,59
 554.158 610 554.158 610 487 522 c 0,60,61
 434 452.552 434 452.552 434 345 c 0,45,46
EndSplineSet
EndChar

StartChar: bracketleft
Encoding: 91 91 83
Width: 684
Flags: HW
LayerCount: 2
Fore
SplineSet
180 1551 m 1,0,-1
 590 1551 l 1,1,-1
 590 1439 l 1,2,-1
 362 1439 l 1,3,-1
 362 -227 l 1,4,-1
 590 -227 l 1,5,-1
 590 -339 l 1,6,-1
 180 -339 l 1,7,-1
 180 1551 l 1,0,-1
EndSplineSet
EndChar

StartChar: bracketright
Encoding: 93 93 84
Width: 684
Flags: HW
LayerCount: 2
Fore
SplineSet
321 -227 m 1,0,-1
 321 1439 l 1,1,-1
 94 1439 l 1,2,-1
 94 1551 l 1,3,-1
 504 1551 l 1,4,-1
 504 -339 l 1,5,-1
 94 -339 l 1,6,-1
 94 -227 l 1,7,-1
 321 -227 l 1,0,-1
EndSplineSet
EndChar

StartChar: semicolon
Encoding: 59 59 86
Width: 512
Flags: HW
LayerCount: 2
Fore
SplineSet
60 -201 m 1,0,1
 186.969 -14.0728 186.969 -14.0728 197 174 c 1,2,3
 329.231 174 329.231 174 380 108 c 1,4,5
 360.259 -30.184 360.259 -30.184 262 -155 c 0,6,7
 219 -210 219 -210 168 -251 c 1,8,9
 96.2308 -247.582 96.2308 -247.582 60 -201 c 1,0,1
128 870 m 256,10,11
 128 923 128 923 155.5 950.5 c 0,12,13
 203 998 203 998 256 998 c 256,14,15
 309 998 309 998 336.5 970.5 c 0,16,17
 384 923 384 923 384 870 c 256,18,19
 384 816 384 816 356.5 788.5 c 0,20,21
 309 741 309 741 256 741 c 256,22,23
 203 741 203 741 175.5 768.5 c 0,24,25
 128 816 128 816 128 870 c 256,10,11
EndSplineSet
EndChar

StartChar: periodcentered
Encoding: 183 183 87
Width: 512
Flags: HW
LayerCount: 2
Fore
SplineSet
256 425 m 256,0,1
 203 425 203 425 175.5 452.5 c 0,2,3
 128 500 128 500 128 554 c 256,4,5
 128 607 128 607 155.5 634.5 c 0,6,7
 203 682 203 682 256 682 c 256,8,9
 309 682 309 682 336.5 654.5 c 0,10,11
 384 607 384 607 384 554 c 256,12,13
 384 500 384 500 356.5 472.5 c 0,14,15
 309 425 309 425 256 425 c 256,0,1
EndSplineSet
EndChar

StartChar: exclam
Encoding: 33 33 88
Width: 512
Flags: HW
LayerCount: 2
Fore
SplineSet
159 1318 m 1,0,1
 243 1325 243 1325 255.5 1325 c 128,-1,2
 268 1325 268 1325 352 1318 c 1,3,4
 352 978 352 978 341 742.5 c 128,-1,5
 330 507 330 507 322 415 c 1,6,7
 286 407 286 407 262 407 c 0,8,9
 216.2 407 216.2 407 189 415 c 1,10,11
 159 718.333 159 718.333 159 1318 c 1,0,1
128 128 m 256,12,13
 128 181 128 181 155.5 208.5 c 0,14,15
 203 256 203 256 256 256 c 256,16,17
 309 256 309 256 336.5 228.5 c 0,18,19
 384 181 384 181 384 128 c 256,20,21
 384 74 384 74 356.5 46.5 c 0,22,23
 309 -1 309 -1 256 -1 c 256,24,25
 203 -1 203 -1 175.5 26.5 c 0,26,27
 128 74 128 74 128 128 c 256,12,13
EndSplineSet
EndChar

StartChar: paragraph
Encoding: 182 182 90
Width: 1366
Flags: HW
LayerCount: 2
Fore
SplineSet
630 519 m 1,0,1
 407.895 519 407.895 519 279.5 642 c 0,2,3
 159 757.437 159 757.437 159 936 c 0,4,5
 159 1125.19 159 1125.19 279.5 1241.5 c 128,-1,6
 400.198 1358 400.198 1358 593 1358 c 2,7,-1
 1190 1358 l 1,8,-1
 1190 -160 l 1,9,-1
 1007 -160 l 1,10,-1
 1007 1207 l 1,11,-1
 803 1207 l 1,12,-1
 803 -160 l 1,13,-1
 630 -160 l 1,14,-1
 630 519 l 1,0,1
EndSplineSet
EndChar

StartChar: dieresis
Encoding: 168 168 91
Width: 1022
Flags: HW
LayerCount: 2
Fore
SplineSet
730 1225 m 256,0,1
 683 1225 683 1225 658 1250 c 0,2,3
 615 1293 615 1293 615 1341 c 256,4,5
 615 1390.56 615 1390.56 640 1414.78 c 0,6,7
 683.581 1457 683.581 1457 730 1457 c 256,8,9
 806.349 1457 806.349 1457 837.5 1386.5 c 0,10,11
 847 1365 847 1365 847 1341 c 256,12,13
 847 1294.61 847 1294.61 822 1268.81 c 0,14,15
 779.562 1225 779.562 1225 730 1225 c 256,0,1
288 1225 m 256,16,17
 241 1225 241 1225 216 1250 c 0,18,19
 173 1293 173 1293 173 1341 c 256,20,21
 173 1390.56 173 1390.56 198 1414.78 c 0,22,23
 241.581 1457 241.581 1457 288 1457 c 256,24,25
 364.349 1457 364.349 1457 395.5 1386.5 c 0,26,27
 405 1365 405 1365 405 1341 c 256,28,29
 405 1294.61 405 1294.61 380 1268.81 c 0,30,31
 337.562 1225 337.562 1225 288 1225 c 256,16,17
EndSplineSet
EndChar

StartChar: dotlessj
Encoding: 567 567 92
Width: 512
Flags: HW
LayerCount: 2
Fore
SplineSet
176 1020 m 1,0,-1
 350 1020 l 1,1,-1
 350 -114 l 2,2,3
 350 -300.588 350 -300.588 206 -374 c 0,4,5
 155 -400 155 -400 83 -416 c 1,6,7
 43.6723 -353.076 43.6723 -353.076 37 -263 c 1,8,9
 116.084 -245.901 116.084 -245.901 138.042 -219.95 c 0,10,11
 176 -175.091 176 -175.091 176 -85 c 2,12,-1
 176 1020 l 1,0,-1
EndSplineSet
EndChar

StartChar: dotlessi
Encoding: 305 305 93
Width: 512
Flags: HW
LayerCount: 2
Fore
SplineSet
174 1021 m 1,0,-1
 348 1021 l 1,1,-1
 348 0 l 1,2,-1
 172 0 l 1,3,-1
 174 1021 l 1,0,-1
EndSplineSet
EndChar

StartChar: dotaccent.cap
Encoding: 65539 -1 94
Width: 487
Flags: HW
LayerCount: 2
Fore
SplineSet
242 1530 m 256,0,1
 195 1530 195 1530 170 1555 c 0,2,3
 127 1598 127 1598 127 1646 c 256,4,5
 127 1695.56 127 1695.56 152 1719.78 c 0,6,7
 195.581 1762 195.581 1762 242 1762 c 256,8,9
 318.349 1762 318.349 1762 349.5 1691.5 c 0,10,11
 359 1670 359 1670 359 1646 c 256,12,13
 359 1599.61 359 1599.61 334 1573.81 c 0,14,15
 291.562 1530 291.562 1530 242 1530 c 256,0,1
EndSplineSet
EndChar

StartChar: commaaccent
Encoding: 65540 -1 95
Width: 512
Flags: HW
LayerCount: 2
Fore
SplineSet
61 -490 m 1,0,1
 178.081 -340.988 178.081 -340.988 188 -155 c 1,2,3
 320.231 -155 320.231 -155 371 -221 c 1,4,5
 350.681 -363.232 350.681 -363.232 268 -464 c 0,6,7
 231 -510 231 -510 189 -540 c 1,8,9
 97.141 -536.467 97.141 -536.467 61 -490 c 1,0,1
EndSplineSet
EndChar

StartChar: grave.cap
Encoding: 65541 -1 96
Width: 487
Flags: HW
LayerCount: 2
Fore
SplineSet
-3 1818 m 1,0,1
 21.1403 1866.28 21.1403 1866.28 104.5 1922.5 c 0,2,3
 126 1937 126 1937 140 1941 c 1,4,-1
 430 1603 l 1,5,6
 406.556 1551.42 406.556 1551.42 353 1530 c 1,7,-1
 -3 1818 l 1,0,1
EndSplineSet
EndChar

StartChar: acute.cap
Encoding: 65542 -1 97
Width: 487
Flags: HW
LayerCount: 2
Fore
SplineSet
134 1530 m 1,0,1
 102.294 1541.53 102.294 1541.53 81.647 1566.76 c 128,-1,2
 61 1592 61 1592 57 1603 c 1,3,-1
 347 1941 l 1,4,5
 395.06 1927.27 395.06 1927.27 465 1851.5 c 0,6,7
 483 1832 483 1832 490 1818 c 1,8,-1
 134 1530 l 1,0,1
EndSplineSet
EndChar

StartChar: dieresis.cap
Encoding: 65543 -1 98
Width: 487
Flags: HW
LayerCount: 2
Fore
SplineSet
462 1528 m 256,0,1
 415 1528 415 1528 390 1553 c 0,2,3
 347 1596 347 1596 347 1644 c 256,4,5
 347 1693.56 347 1693.56 372 1717.78 c 0,6,7
 415.581 1760 415.581 1760 462 1760 c 256,8,9
 538.349 1760 538.349 1760 569.5 1689.5 c 0,10,11
 579 1668 579 1668 579 1644 c 256,12,13
 579 1597.61 579 1597.61 554 1571.81 c 0,14,15
 511.562 1528 511.562 1528 462 1528 c 256,0,1
24 1528 m 256,16,17
 -23 1528 -23 1528 -48 1553 c 0,18,19
 -91 1596 -91 1596 -91 1644 c 256,20,21
 -91 1693.56 -91 1693.56 -66 1717.78 c 0,22,23
 -22.4194 1760 -22.4194 1760 24 1760 c 256,24,25
 100.349 1760 100.349 1760 131.5 1689.5 c 0,26,27
 141 1668 141 1668 141 1644 c 256,28,29
 141 1597.61 141 1597.61 116 1571.81 c 0,30,31
 73.5625 1528 73.5625 1528 24 1528 c 256,16,17
EndSplineSet
EndChar

StartChar: ring.cap
Encoding: 65544 -1 99
Width: 538
Flags: HW
LayerCount: 2
Fore
SplineSet
416 1547 m 128,-1,1
 355 1493 355 1493 242.5 1493 c 128,-1,2
 130 1493 130 1493 71.5 1546 c 128,-1,3
 13 1599 13 1599 13 1694 c 256,4,5
 13 1789 13 1789 71.5 1843 c 128,-1,6
 130 1897 130 1897 242.5 1897 c 128,-1,7
 355 1897 355 1897 416 1844 c 128,-1,8
 477 1791 477 1791 477 1696 c 128,-1,0
 477 1601 477 1601 416 1547 c 128,-1,1
357 1701 m 0,9,10
 357 1801 357 1801 243 1801 c 0,11,12
 186 1801 186 1801 155.5 1771 c 128,-1,13
 125 1741 125 1741 125 1693.5 c 128,-1,14
 125 1646 125 1646 155.5 1618.5 c 128,-1,15
 186 1591 186 1591 245 1591 c 128,-1,16
 304 1591 304 1591 330.5 1623.5 c 128,-1,17
 357 1656 357 1656 357 1701 c 0,9,10
EndSplineSet
EndChar

StartChar: macron
Encoding: 175 175 100
Width: 1024
Flags: HW
LayerCount: 2
Fore
SplineSet
203 1365 m 1,0,1
 194 1399 194 1399 194 1434 c 128,-1,2
 194 1469 194 1469 204 1501 c 1,3,-1
 825 1501 l 1,4,5
 831 1474 831 1474 831 1437.5 c 128,-1,6
 831 1401 831 1401 819 1365 c 1,7,-1
 203 1365 l 1,0,1
EndSplineSet
EndChar

StartChar: macron.cap
Encoding: 65545 -1 101
Width: 1024
Flags: HW
LayerCount: 2
Fore
SplineSet
202 1716 m 1,0,1
 193 1750 193 1750 193 1785 c 128,-1,2
 193 1820 193 1820 203 1852 c 1,3,-1
 824 1852 l 1,4,5
 830 1825 830 1825 830 1788.5 c 128,-1,6
 830 1752 830 1752 818 1716 c 1,7,-1
 202 1716 l 1,0,1
EndSplineSet
EndChar

StartChar: hbar
Encoding: 295 295 102
Width: 1196
Flags: HW
LayerCount: 2
Fore
SplineSet
554 1326 m 1,0,1
 558 1294 558 1294 558 1258 c 128,-1,2
 558 1222 558 1222 548 1197 c 1,3,-1
 50 1197 l 1,4,5
 41 1231 41 1231 41 1263.5 c 128,-1,6
 41 1296 41 1296 51 1326 c 1,7,-1
 554 1326 l 1,0,1
781.5 867 m 128,-1,9
 726 923 726 923 589.158 923 c 128,-1,10
 452.316 923 452.316 923 370 855 c 1,11,-1
 370 0 l 1,12,-1
 198 0 l 1,13,-1
 198 1420 l 1,14,-1
 370 1420 l 1,15,-1
 370 973 l 1,16,-1
 413 973 l 1,17,18
 470 1020.5 470 1020.5 540.5 1042.25 c 128,-1,19
 611 1064 611 1064 680 1064 c 128,-1,20
 749 1064 749 1064 812 1039.5 c 128,-1,21
 875 1015 875 1015 919 969 c 0,22,23
 1009 874.909 1009 874.909 1009 714 c 2,24,-1
 1009 0 l 1,25,-1
 837 0 l 1,26,-1
 837 693 l 2,27,8
 837 811 837 811 781.5 867 c 128,-1,9
EndSplineSet
EndChar

StartChar: kgreenlandic
Encoding: 312 312 103
Width: 1024
Flags: HW
LayerCount: 2
Fore
SplineSet
190 1020 m 1,0,-1
 362 1020 l 1,1,-1
 362 586 l 1,2,-1
 434 586 l 1,3,-1
 784 1020 l 1,4,-1
 981 1020 l 1,5,-1
 573 530 l 1,6,-1
 999 0 l 1,7,-1
 801 0 l 1,8,-1
 428 474 l 1,9,-1
 362 474 l 1,10,-1
 362 0 l 1,11,-1
 190 0 l 1,12,-1
 190 1020 l 1,0,-1
EndSplineSet
EndChar

StartChar: lslash
Encoding: 322 322 105
Width: 512
Flags: HW
LayerCount: 2
Fore
SplineSet
27 697 m 1,0,-1
 485 935 l 1,1,-1
 485 793 l 1,2,-1
 27 555 l 1,3,-1
 27 697 l 1,0,-1
162 1422 m 1,4,-1
 335 1422 l 1,5,-1
 335 0 l 1,6,-1
 162 0 l 1,7,-1
 162 1422 l 1,4,-1
EndSplineSet
EndChar

StartChar: oe
Encoding: 339 339 106
Width: 1877
Flags: HW
LayerCount: 2
Fore
SplineSet
1672 39 m 1,0,1
 1540.12 -20 1540.12 -20 1370 -20 c 0,2,3
 1152.75 -20 1152.75 -20 1019.5 149 c 0,4,5
 983.986 194.042 983.986 194.042 977 215 c 1,6,7
 961.383 168.148 961.383 168.148 910.191 116.074 c 128,-1,8
 859 64 859 64 819.5 38.5 c 0,9,10
 728.882 -20 728.882 -20 616.941 -20 c 128,-1,11
 505 -20 505 -20 417.5 15 c 128,-1,12
 330 50 330 50 270 119 c 0,13,14
 146 261.6 146 261.6 146 523 c 256,15,16
 146 783.419 146 783.419 276 926 c 0,17,18
 401.824 1064 401.824 1064 616 1064 c 0,19,20
 840.7 1064 840.7 1064 955.5 900 c 0,21,22
 982.545 861.364 982.545 861.364 991 836 c 1,23,24
 1005 878 1005 878 1057.5 930.5 c 128,-1,25
 1110 983 1110 983 1148.5 1007.5 c 0,26,27
 1237.29 1064 1237.29 1064 1335.14 1064 c 128,-1,28
 1433 1064 1433 1064 1505.5 1033.5 c 128,-1,29
 1578 1003 1578 1003 1628 949 c 0,30,31
 1731 837.76 1731 837.76 1731 658 c 0,32,33
 1731 623 1731 623 1725 509 c 1,34,-1
 1070 509 l 1,35,36
 1070 318 1070 318 1148.5 222 c 128,-1,37
 1227 126 1227 126 1373.3 126 c 128,-1,38
 1519.6 126 1519.6 126 1634 178 c 1,39,40
 1646 149 1646 149 1653 124 c 2,41,-1
 1665 80 l 1,42,43
 1669 58 1669 58 1672 39 c 1,0,1
905 538 m 0,44,45
 905 927 905 927 616 927 c 0,46,47
 473.102 927 473.102 927 397.5 812 c 0,48,49
 328 706.282 328 706.282 328 523 c 0,50,51
 328 123 328 123 616 123 c 0,52,53
 759.429 123 759.429 123 835.5 243 c 0,54,55
 905 352.634 905 352.634 905 538 c 0,44,45
1563 635 m 1,56,57
 1571.07 758.111 1571.07 758.111 1510.5 841 c 0,58,59
 1449.12 925 1449.12 925 1342 925 c 0,60,61
 1239.24 925 1239.24 925 1164.5 845 c 0,62,63
 1090.03 765.281 1090.03 765.281 1078 635 c 1,64,-1
 1563 635 l 1,56,57
EndSplineSet
EndChar

StartChar: eth
Encoding: 240 240 107
Width: 1195
Flags: HW
LayerCount: 2
Fore
SplineSet
840 1388 m 1,0,1
 1070 1143.88 1070 1143.88 1070 593 c 0,2,3
 1070 168.924 1070 168.924 812 24.5 c 0,4,5
 720 -27 720 -27 602.5 -27 c 128,-1,6
 485 -27 485 -27 399.5 15.5 c 128,-1,7
 314 58 314 58 253 130.5 c 0,8,9
 125 282.631 125 282.631 125 498 c 0,10,11
 125 752.594 125 752.594 266 898 c 0,12,13
 393.03 1029 393.03 1029 580 1029 c 0,14,15
 753.39 1029 753.39 1029 828 948.5 c 0,16,17
 847 928 847 928 855 912 c 1,18,-1
 868 912 l 1,19,20
 868 1055 868 1055 790 1196 c 0,21,22
 764 1243 764 1243 731 1284 c 1,23,-1
 610 1170 l 1,24,-1
 517 1265 l 1,25,-1
 633 1376 l 1,26,27
 529.727 1447 529.727 1447 406 1447 c 0,28,29
 395 1447 395 1447 384 1447 c 128,-1,30
 373 1447 373 1447 362 1445 c 1,31,32
 339 1479.5 339 1479.5 339 1520.75 c 128,-1,33
 339 1562 339 1562 352 1588 c 1,34,35
 581 1579 581 1579 737 1475 c 1,36,-1
 873 1605 l 1,37,-1
 962 1503 l 1,38,-1
 840 1388 l 1,0,1
308 511.5 m 0,39,40
 308 435 308 435 323.5 367 c 128,-1,41
 339 299 339 299 373.5 243 c 0,42,43
 452.357 115 452.357 115 596 115 c 0,44,45
 733.538 115 733.538 115 816 249 c 0,46,47
 888 366 888 366 888 481 c 128,-1,48
 888 596 888 596 867 671 c 128,-1,49
 846 746 846 746 807 796 c 0,50,51
 728.22 897 728.22 897 588 897 c 0,52,53
 457.086 897 457.086 897 382 787.5 c 0,54,55
 308 679.583 308 679.583 308 511.5 c 0,39,40
EndSplineSet
EndChar

StartChar: thorn
Encoding: 254 254 108
Width: 1196
Flags: HW
LayerCount: 2
Fore
SplineSet
760 14.5 m 128,-1,1
 668 -20 668 -20 557.5 -20 c 128,-1,2
 447 -20 447 -20 365 -10 c 1,3,-1
 365 -395 l 1,4,-1
 192 -395 l 1,5,-1
 192 1420 l 1,6,-1
 364 1420 l 1,7,-1
 364 973 l 1,8,-1
 407 973 l 1,9,10
 516.2 1064 516.2 1064 672 1064 c 0,11,12
 948.525 1064 948.525 1064 1039.5 787 c 0,13,14
 1073 685 1073 685 1073 539.5 c 128,-1,15
 1073 394 1073 394 1032 290.5 c 128,-1,16
 991 187 991 187 921.5 118 c 128,-1,0
 852 49 852 49 760 14.5 c 128,-1,1
698.5 904 m 0,17,18
 637 923 637 923 550 923 c 128,-1,19
 463 923 463 923 364 857 c 1,20,-1
 364 142 l 1,21,22
 420.667 112 420.667 112 515.333 112 c 128,-1,23
 610 112 610 112 679 140 c 128,-1,24
 748 168 748 168 795 222 c 0,25,26
 891 332.298 891 332.298 891 532 c 0,27,28
 891 844.528 891 844.528 698.5 904 c 0,17,18
EndSplineSet
EndChar

StartChar: cedilla
Encoding: 184 184 109
Width: 512
Flags: HW
LayerCount: 2
Fore
SplineSet
174 -108 m 128,-1,1
 182 -84 182 -84 182 -50.1667 c 128,-1,2
 182 -16.3333 182 -16.3333 169 40 c 1,3,-1
 297 40 l 1,4,5
 326 -21.625 326 -21.625 326 -91.8125 c 128,-1,6
 326 -162 326 -162 308.5 -209.5 c 128,-1,7
 291 -257 291 -257 257.5 -293 c 0,8,9
 184.917 -371 184.917 -371 62 -371 c 0,10,11
 10.5 -371 10.5 -371 -2 -366 c 1,12,13
 -14 -322 -14 -322 -14 -271 c 256,14,15
 -14 -221.429 -14 -221.429 -2 -182 c 1,16,17
 28.3333 -189 28.3333 -189 54.6667 -189 c 128,-1,18
 81 -189 81 -189 106.5 -178.5 c 128,-1,19
 132 -168 132 -168 149 -150 c 128,-1,0
 166 -132 166 -132 174 -108 c 128,-1,1
EndSplineSet
EndChar

StartChar: cedilla.cap
Encoding: 65546 -1 110
Width: 512
Flags: HW
LayerCount: 2
Fore
SplineSet
-2 -182 m 1,0,1
 28.3333 -189 28.3333 -189 57.1667 -189 c 128,-1,2
 86 -189 86 -189 112.5 -176 c 128,-1,3
 139 -163 139 -163 154.5 -143 c 0,4,5
 182 -107.516 182 -107.516 182 -69.2581 c 128,-1,6
 182 -31 182 -31 179.5 -15 c 2,7,-1
 175 13 l 1,8,-1
 169 40 l 1,9,-1
 297 40 l 1,10,11
 321 -11 321 -11 321 -68.5 c 128,-1,12
 321 -126 321 -126 299 -179.5 c 128,-1,13
 277 -233 277 -233 238.5 -275.5 c 0,14,15
 151.988 -371 151.988 -371 32 -371 c 2,16,-1
 15 -371 l 2,17,18
 6 -371 6 -371 -2 -369 c 1,19,20
 -14 -321 -14 -321 -14 -271 c 256,21,22
 -14 -221.429 -14 -221.429 -2 -182 c 1,0,1
EndSplineSet
EndChar

StartChar: florin
Encoding: 402 402 111
Width: 683
Flags: HW
LayerCount: 2
Fore
SplineSet
656 1014 m 1,0,1
 659.774 934.742 659.774 934.742 623 871 c 1,2,-1
 392 871 l 1,3,-1
 311 -170 l 1,4,-1
 139 -170 l 1,5,-1
 220 871 l 1,6,-1
 57 871 l 1,7,8
 52.7792 932.201 52.7792 932.201 70 1014 c 1,9,-1
 233 1014 l 1,10,-1
 242 1107 l 2,11,12
 255.02 1241.54 255.02 1241.54 338.5 1326 c 0,13,14
 431.407 1420 431.407 1420 586 1420 c 0,15,16
 703.375 1420 703.375 1420 765 1391 c 1,17,18
 749.481 1313.4 749.481 1313.4 714 1259 c 1,19,20
 667.333 1279 667.333 1279 587.167 1279 c 128,-1,21
 507 1279 507 1279 464.5 1237.5 c 128,-1,22
 422 1196 422 1196 413 1101 c 2,23,-1
 405 1014 l 1,24,-1
 656 1014 l 1,0,1
EndSplineSet
EndChar

StartChar: commaaccent.cap
Encoding: 65547 -1 112
Width: 512
Flags: HW
LayerCount: 2
Fore
SplineSet
81 -490 m 1,0,1
 198.081 -340.988 198.081 -340.988 208 -155 c 1,2,3
 340.231 -155 340.231 -155 391 -221 c 1,4,5
 370.681 -363.232 370.681 -363.232 288 -464 c 0,6,7
 251 -510 251 -510 209 -540 c 1,8,9
 117.141 -536.467 117.141 -536.467 81 -490 c 1,0,1
EndSplineSet
EndChar

StartChar: C
Encoding: 67 67 113
Width: 1195
Flags: HW
LayerCount: 2
Fore
SplineSet
550 174.5 m 128,-1,1
 626 138 626 138 748.462 138 c 128,-1,2
 870.923 138 870.923 138 1016 184 c 1,3,4
 1046.89 118.358 1046.89 118.358 1042 23 c 1,5,6
 867 -27 867 -27 722 -27 c 0,7,8
 424 -27 424 -27 273 148 c 128,-1,9
 122 323 122 323 122 667 c 128,-1,10
 122 1010.89 122 1010.89 277 1197.5 c 0,11,12
 432.738 1385 432.738 1385 722 1385 c 0,13,14
 869.143 1385 869.143 1385 1037 1335 c 1,15,16
 1030.06 1258.7 1030.06 1258.7 994 1184 c 1,17,18
 859 1229 859 1229 742.5 1229 c 128,-1,19
 626 1229 626 1229 550 1187.5 c 128,-1,20
 474 1146 474 1146 421.5 1071.5 c 0,21,22
 314 918.952 314 918.952 314 667 c 256,23,24
 314 419.762 314 419.762 421.5 279.5 c 0,25,0
 474 211 474 211 550 174.5 c 128,-1,1
EndSplineSet
EndChar

StartChar: B
Encoding: 66 66 114
Width: 1194
Flags: HW
LayerCount: 2
Fore
SplineSet
182 1358 m 1,0,-1
 683 1358 l 2,1,2
 839.881 1358 839.881 1358 935 1273 c 0,3,4
 1036 1182.74 1036 1182.74 1036 1020 c 0,5,6
 1036 865.27 1036 865.27 922 779 c 0,7,8
 885 751 885 751 839 736 c 1,9,10
 1009.13 676.825 1009.13 676.825 1065 526.5 c 0,11,12
 1086 470 1086 470 1086 386 c 128,-1,13
 1086 302 1086 302 1057.5 228.5 c 128,-1,14
 1029 155 1029 155 973.5 104 c 0,15,16
 860.324 1.71464e-05 860.324 1.71464e-05 646 0 c 2,17,-1
 182 0 l 1,18,-1
 182 1358 l 1,0,-1
669 764 m 1,19,20
 748 787 748 787 795.5 849 c 128,-1,21
 843 911 843 911 843 1010 c 0,22,23
 843 1207 843 1207 638 1207 c 2,24,-1
 365 1207 l 1,25,-1
 365 764 l 1,26,-1
 669 764 l 1,19,20
893 391 m 256,27,28
 893 627 893 627 638 627 c 2,29,-1
 365 627 l 1,30,-1
 365 152 l 1,31,-1
 622 152 l 2,32,33
 819.714 152 819.714 152 873.5 277.5 c 0,34,35
 893 323 893 323 893 391 c 256,27,28
EndSplineSet
EndChar

StartChar: bar
Encoding: 124 124 115
Width: 512
Flags: HW
LayerCount: 2
Fore
SplineSet
170 1530 m 1,0,-1
 342 1530 l 1,1,-1
 342 -170 l 1,2,-1
 170 -170 l 1,3,-1
 170 1530 l 1,0,-1
EndSplineSet
EndChar

StartChar: brokenbar
Encoding: 166 166 116
Width: 512
Flags: HW
LayerCount: 2
Fore
SplineSet
170 1530 m 1,0,-1
 342 1530 l 1,1,-1
 342 850 l 1,2,-1
 170 850 l 1,3,-1
 170 1530 l 1,0,-1
170 510 m 1,4,-1
 342 510 l 1,5,-1
 342 -170 l 1,6,-1
 170 -170 l 1,7,-1
 170 510 l 1,4,-1
EndSplineSet
EndChar

StartChar: plus
Encoding: 43 43 117
Width: 1535
Flags: HW
LayerCount: 2
Fore
SplineSet
222 676 m 1,0,-1
 691 676 l 1,1,-1
 691 1170 l 1,2,-1
 844 1170 l 1,3,-1
 844 676 l 1,4,-1
 1313 676 l 1,5,-1
 1313 523 l 1,6,-1
 844 523 l 1,7,-1
 844 20 l 1,8,-1
 691 20 l 1,9,-1
 691 523 l 1,10,-1
 222 523 l 1,11,-1
 222 676 l 1,0,-1
EndSplineSet
EndChar

StartChar: plusminus
Encoding: 177 177 118
Width: 1535
Flags: HW
LayerCount: 2
Fore
SplineSet
222 844 m 1,0,-1
 692 844 l 1,1,-1
 692 1336 l 1,2,-1
 845 1336 l 1,3,-1
 845 844 l 1,4,-1
 1313 844 l 1,5,-1
 1313 691 l 1,6,-1
 845 691 l 1,7,-1
 845 336 l 1,8,-1
 692 336 l 1,9,-1
 692 691 l 1,10,-1
 222 691 l 1,11,-1
 222 844 l 1,0,-1
222 153 m 1,12,-1
 1313 153 l 1,13,-1
 1313 0 l 1,14,-1
 222 0 l 1,15,-1
 222 153 l 1,12,-1
EndSplineSet
EndChar

StartChar: equal
Encoding: 61 61 119
Width: 1362
Flags: HW
LayerCount: 2
Fore
SplineSet
256 841 m 1,0,-1
 1105 841 l 1,1,-1
 1105 688 l 1,2,-1
 256 688 l 1,3,-1
 256 841 l 1,0,-1
256 323 m 1,4,-1
 1105 323 l 1,5,-1
 1105 170 l 1,6,-1
 256 170 l 1,7,-1
 256 323 l 1,4,-1
EndSplineSet
EndChar

StartChar: Thorn
Encoding: 222 222 120
Width: 1196
Flags: HW
LayerCount: 2
Fore
SplineSet
599.833 270 m 0,0,1
 489.667 270 489.667 270 365 281 c 1,2,-1
 365 0 l 1,3,-1
 182 0 l 1,4,-1
 182 1358 l 1,5,-1
 367 1358 l 1,6,-1
 367 1109 l 1,7,-1
 673 1109 l 2,8,9
 863.336 1109 863.336 1109 966.5 997.5 c 0,10,11
 1067 888.879 1067 888.879 1067 697 c 0,12,13
 1067 516.983 1067 516.983 946 398 c 0,14,15
 815.831 270 815.831 270 599.833 270 c 0,0,1
365 428 m 1,16,17
 425 418 425 418 514.5 418 c 128,-1,18
 604 418 604 418 667 433 c 128,-1,19
 730 448 730 448 775.5 480.5 c 0,20,21
 873 550.143 873 550.143 873 693 c 0,22,23
 873 882.413 873 882.413 736 939 c 0,24,25
 690 958 690 958 628 958 c 2,26,-1
 365 958 l 1,27,-1
 365 428 l 1,16,17
EndSplineSet
EndChar

StartChar: Eth
Encoding: 208 208 121
Width: 1362
Flags: HW
LayerCount: 2
Fore
SplineSet
182 1358 m 1,0,1
 407 1368 407 1368 562.5 1368 c 128,-1,2
 718 1368 718 1368 836.5 1325.5 c 128,-1,3
 955 1283 955 1283 1035.5 1197.5 c 0,4,5
 1200 1022.78 1200 1022.78 1200 685 c 256,6,7
 1200 348.065 1200 348.065 1025.5 171.5 c 0,8,9
 856.006 1.62933e-05 856.006 1.62933e-05 551 0 c 2,10,-1
 182 0 l 1,11,-1
 182 631 l 1,12,-1
 165 631 l 1,13,-1
 53 629 l 1,14,-1
 53 762 l 1,15,-1
 165 764 l 1,16,-1
 182 764 l 1,17,-1
 182 1358 l 1,0,1
665 625 m 1,18,19
 581 625 581 625 365 629 c 1,20,-1
 365 152 l 1,21,-1
 580 152 l 2,22,23
 775.361 152 775.361 152 893 306 c 0,24,25
 1006 453.927 1006 453.927 1006 685 c 0,26,27
 1006 932.236 1006 932.236 893 1074 c 0,28,29
 779.014 1217 779.014 1217 580 1217 c 0,30,31
 457 1217 457 1217 365 1209 c 1,32,-1
 365 766 l 1,33,-1
 477 768 l 2,34,35
 532 769 532 769 580.5 770 c 2,36,-1
 676 772 l 1,37,38
 676 767 676 767 677 760 c 2,39,-1
 678 728 l 1,40,41
 678 670.5 678 670.5 665 625 c 1,18,19
EndSplineSet
EndChar

StartChar: Lslash
Encoding: 321 321 122
Width: 1025
Flags: HW
LayerCount: 2
Fore
SplineSet
0 614 m 1,0,-1
 850 913 l 1,1,-1
 850 770 l 1,2,-1
 0 471 l 1,3,-1
 0 614 l 1,0,-1
957 152 m 1,4,5
 960 125 960 125 960 84.5 c 128,-1,6
 960 44 960 44 944 0 c 1,7,-1
 182 0 l 1,8,-1
 182 1358 l 1,9,-1
 365 1358 l 1,10,-1
 365 136 l 1,11,12
 470.667 136 470.667 136 537.333 138 c 128,-1,13
 604 140 604 140 653 141 c 128,-1,14
 702 142 702 142 777 145 c 2,15,-1
 957 152 l 1,4,5
EndSplineSet
EndChar

StartChar: circumflex
Encoding: 710 710 123
Width: 1026
Flags: HW
LayerCount: 2
Fore
SplineSet
397 1630 m 1,0,-1
 637 1630 l 1,1,-1
 854 1193 l 1,2,-1
 691 1193 l 1,3,-1
 527 1514 l 1,4,-1
 494 1514 l 1,5,-1
 324 1193 l 1,6,-1
 170 1193 l 1,7,-1
 397 1630 l 1,0,-1
EndSplineSet
EndChar

StartChar: caron
Encoding: 711 711 124
Width: 1022
Flags: HW
LayerCount: 2
Fore
SplineSet
170 1630 m 1,0,-1
 327 1630 l 1,1,-1
 491 1309 l 1,2,-1
 536 1309 l 1,3,-1
 696 1630 l 1,4,-1
 854 1630 l 1,5,-1
 627 1193 l 1,6,-1
 387 1193 l 1,7,-1
 170 1630 l 1,0,-1
EndSplineSet
EndChar

StartChar: caron.cap
Encoding: 65548 -1 125
Width: 1022
Flags: HW
LayerCount: 2
Fore
SplineSet
-1 1869 m 1,0,-1
 156 1869 l 1,1,-1
 319 1646 l 1,2,-1
 370 1646 l 1,3,-1
 520 1869 l 1,4,-1
 678 1869 l 1,5,-1
 455 1530 l 1,6,-1
 215 1530 l 1,7,-1
 -1 1869 l 1,0,-1
EndSplineSet
EndChar

StartChar: circumflex.cap
Encoding: 65549 -1 126
Width: 685
Flags: HW
LayerCount: 2
Fore
SplineSet
228 1870 m 1,0,-1
 468 1870 l 1,1,-1
 685 1529 l 1,2,-1
 522 1529 l 1,3,-1
 358 1754 l 1,4,-1
 325 1754 l 1,5,-1
 155 1529 l 1,6,-1
 1 1529 l 1,7,-1
 228 1870 l 1,0,-1
EndSplineSet
EndChar

StartChar: underscore
Encoding: 95 95 127
Width: 1024
Flags: HW
LayerCount: 2
Fore
SplineSet
1063 -208 m 1,0,-1
 1063 -340 l 1,1,-1
 -40 -340 l 1,2,-1
 -40 -208 l 1,3,-1
 1063 -208 l 1,0,-1
EndSplineSet
EndChar

StartChar: backslash
Encoding: 92 92 128
Width: 854
Flags: HW
LayerCount: 2
Fore
SplineSet
48 1328 m 1,0,1
 89.9323 1377.79 89.9323 1377.79 180 1385 c 1,2,-1
 807 -178 l 1,3,4
 754.959 -225.31 754.959 -225.31 673 -236 c 1,5,-1
 48 1328 l 1,0,1
EndSplineSet
EndChar

StartChar: Oslash
Encoding: 216 216 129
Width: 1362
Flags: HW
LayerCount: 2
Fore
SplineSet
366 180 m 1,0,-1
 385 193 l 1,1,-1
 920 1236 l 1,2,-1
 921 1257 l 1,3,-1
 1055 1520 l 1,4,5
 1124.3 1509.61 1124.3 1509.61 1163 1458 c 1,6,-1
 1025 1190 l 1,7,-1
 1008 1175 l 1,8,-1
 478 134 l 1,9,-1
 472 110 l 1,10,-1
 324 -180 l 1,11,12
 261.231 -165.231 261.231 -165.231 213 -117 c 1,13,-1
 366 180 l 1,0,-1
933.5 24.5 m 0,14,15
 829 -27 829 -27 683.5 -27 c 128,-1,16
 538 -27 538 -27 432 22 c 128,-1,17
 326 71 326 71 257 162.5 c 0,18,19
 122 341.522 122 341.522 122 679 c 256,20,21
 122 1192.83 122 1192.83 436 1336.5 c 0,22,23
 542 1385 542 1385 688 1385 c 128,-1,24
 834 1385 834 1385 939.5 1339 c 128,-1,25
 1045 1293 1045 1293 1111.5 1205.5 c 0,26,27
 1240 1036.42 1240 1036.42 1240 698 c 0,28,29
 1240 175.55 1240 175.55 933.5 24.5 c 0,14,15
685 1223 m 0,30,31
 314 1223 314 1223 314 679 c 256,32,33
 314 284.539 314 284.539 515.5 174.5 c 0,34,35
 586 136 586 136 685.5 136 c 128,-1,36
 785 136 785 136 854 179 c 128,-1,37
 923 222 923 222 966 297.5 c 0,38,39
 1048 441.477 1048 441.477 1048 698 c 0,40,41
 1048 964.14 1048 964.14 966 1090 c 0,42,43
 879.349 1223 879.349 1223 685 1223 c 0,30,31
EndSplineSet
EndChar

StartChar: question
Encoding: 63 63 130
Width: 1195
Flags: HW
LayerCount: 2
Fore
SplineSet
316 1086 m 1,0,1
 266.465 1155.35 266.465 1155.35 259 1230 c 1,2,3
 331 1278 331 1278 436 1300.5 c 128,-1,4
 541 1323 541 1323 632.5 1323 c 128,-1,5
 724 1323 724 1323 798.5 1302 c 128,-1,6
 873 1281 873 1281 927 1240 c 0,7,8
 1042 1152.69 1042 1152.69 1042 999 c 0,9,10
 1042 812.07 1042 812.07 901 705.5 c 0,11,12
 858 673 858 673 813 649 c 128,-1,13
 768 625 768 625 741.5 606.5 c 128,-1,14
 715 588 715 588 699.5 563.5 c 0,15,16
 670 516.871 670 516.871 670 415 c 1,17,18
 635 407 635 407 603 407 c 256,19,20
 571 407 571 407 537 415 c 1,21,22
 531 475 531 475 531 520.5 c 128,-1,23
 531 566 531 566 538 598.5 c 128,-1,24
 545 631 545 631 561.5 656.5 c 0,25,26
 589.795 700.229 589.795 700.229 677.898 749.114 c 0,27,28
 854 846.829 854 846.829 854 968 c 0,29,30
 854 1170 854 1170 605 1170 c 0,31,32
 492.75 1170 492.75 1170 393 1128 c 0,33,34
 349 1110 349 1110 316 1086 c 1,0,1
470 128 m 256,35,36
 470 181 470 181 497.5 208.5 c 0,37,38
 545 256 545 256 598 256 c 256,39,40
 651 256 651 256 678.5 228.5 c 0,41,42
 726 181 726 181 726 128 c 256,43,44
 726 74 726 74 698.5 46.5 c 0,45,46
 651 -1 651 -1 598 -1 c 256,47,48
 545 -1 545 -1 517.5 26.5 c 0,49,50
 470 74 470 74 470 128 c 256,35,36
EndSplineSet
EndChar

StartChar: guilsinglleft
Encoding: 8249 8249 132
Width: 852
Flags: HW
LayerCount: 2
Fore
SplineSet
184 431 m 1,0,1
 174 457.667 174 457.667 174 495 c 256,2,3
 174 532 174 532 188 560 c 1,4,-1
 581 914 l 1,5,6
 666.009 867.953 666.009 867.953 679 803 c 1,7,-1
 327 517 l 1,8,-1
 327 476 l 1,9,-1
 681 206 l 1,10,11
 653.78 139.186 653.78 139.186 577 88 c 1,12,-1
 184 431 l 1,0,1
EndSplineSet
EndChar

StartChar: quotesingle
Encoding: 39 39 136
Width: 512
Flags: HW
LayerCount: 2
Fore
SplineSet
158 1632 m 1,0,1
 190.4 1650 190.4 1650 256 1650 c 256,2,3
 319.5 1650 319.5 1650 354 1627 c 1,4,-1
 313 1231 l 1,5,6
 291 1220 291 1220 254 1220 c 256,7,8
 212 1220 212 1220 195 1237 c 1,9,-1
 158 1632 l 1,0,1
EndSplineSet
EndChar

StartChar: multiply
Encoding: 215 215 138
Width: 1368
Flags: HW
LayerCount: 2
Fore
SplineSet
584 604 m 1,0,-1
 183 1000 l 1,1,-1
 286 1102 l 1,2,-1
 680 699 l 1,3,-1
 1075 1102 l 1,4,-1
 1177 1000 l 1,5,-1
 775 604 l 1,6,-1
 1177 209 l 1,7,-1
 1075 107 l 1,8,-1
 680 508 l 1,9,-1
 286 107 l 1,10,-1
 183 209 l 1,11,-1
 584 604 l 1,0,-1
EndSplineSet
EndChar

StartChar: divide
Encoding: 247 247 139
Width: 1535
Flags: HW
LayerCount: 2
Fore
SplineSet
222 676 m 1,0,-1
 1313 676 l 1,1,-1
 1313 523 l 1,2,-1
 222 523 l 1,3,-1
 222 676 l 1,0,-1
639 128 m 256,4,5
 639 181 639 181 666.5 208.5 c 0,6,7
 714 256 714 256 767 256 c 256,8,9
 820 256 820 256 847.5 228.5 c 0,10,11
 895 181 895 181 895 128 c 256,12,13
 895 74 895 74 867.5 46.5 c 0,14,15
 820 -1 820 -1 767 -1 c 256,16,17
 714 -1 714 -1 686.5 26.5 c 0,18,19
 639 74 639 74 639 128 c 256,4,5
639 1065 m 256,20,21
 639 1118 639 1118 666.5 1145.5 c 0,22,23
 714 1193 714 1193 767 1193 c 256,24,25
 820 1193 820 1193 847.5 1165.5 c 0,26,27
 895 1118 895 1118 895 1065 c 256,28,29
 895 1011 895 1011 867.5 983.5 c 0,30,31
 820 936 820 936 767 936 c 256,32,33
 714 936 714 936 686.5 963.5 c 0,34,35
 639 1011 639 1011 639 1065 c 256,20,21
EndSplineSet
EndChar

StartChar: less
Encoding: 60 60 140
Width: 1535
Flags: HW
LayerCount: 2
Fore
SplineSet
230 620 m 1,0,-1
 1243 1080 l 1,1,-1
 1305 945 l 1,2,-1
 512 585 l 1,3,-1
 419 556 l 1,4,-1
 515 526 l 1,5,-1
 1305 168 l 1,6,-1
 1243 33 l 1,7,-1
 230 493 l 1,8,-1
 230 620 l 1,0,-1
EndSplineSet
EndChar

StartChar: dollar
Encoding: 36 36 141
Width: 1195
Flags: HW
LayerCount: 2
Fore
SplineSet
520 -27 m 1,0,1
 325.119 -22.003 325.119 -22.003 159 43 c 1,2,3
 167.36 130.776 167.36 130.776 198 203 c 1,4,5
 381.941 144 381.941 144 499.471 144 c 128,-1,6
 617 144 617 144 674.5 157 c 128,-1,7
 732 170 732 170 767 195.5 c 0,8,9
 832 242.857 832 242.857 832 350 c 0,10,11
 832 453.982 832 453.982 786.5 497 c 0,12,13
 735.348 545.362 735.348 545.362 597.174 579.181 c 128,-1,14
 459 613 459 613 381 650 c 128,-1,15
 303 687 303 687 255 735 c 0,16,17
 166 824 166 824 166 979 c 0,18,19
 166 1331.29 166 1331.29 539 1379 c 1,20,-1
 539 1575 l 1,21,22
 594 1586 594 1586 622.125 1586 c 128,-1,23
 650.25 1586 650.25 1586 680 1572 c 1,24,-1
 680 1384 l 1,25,26
 870.507 1376.48 870.507 1376.48 985 1310 c 1,27,28
 977.963 1239.63 977.963 1239.63 928 1166 c 1,29,30
 827.529 1227 827.529 1227 662.265 1227 c 128,-1,31
 497 1227 497 1227 430.5 1175.5 c 128,-1,32
 364 1124 364 1124 364 1016 c 0,33,34
 364 911.9 364 911.9 415 866 c 0,35,36
 469.275 817.152 469.275 817.152 608.138 781.076 c 128,-1,37
 747 745 747 745 823 712.5 c 128,-1,38
 899 680 899 680 946.5 635 c 0,39,40
 1035 551.158 1035 551.158 1035 383 c 0,41,42
 1035 107.704 1035 107.704 832 20.5 c 0,43,44
 761 -10 761 -10 661 -21 c 1,45,-1
 661 -217 l 1,46,47
 629 -225 629 -225 591.643 -225 c 128,-1,48
 554.286 -225 554.286 -225 520 -213 c 1,49,-1
 520 -27 l 1,0,1
EndSplineSet
EndChar

StartChar: percent
Encoding: 37 37 143
Width: 1532
Flags: HW
LayerCount: 2
Fore
SplineSet
161 1088 m 0,0,1
 161 1393 161 1393 418 1393 c 0,2,3
 553 1393 553 1393 612 1318.5 c 128,-1,4
 671 1244 671 1244 671 1096.5 c 0,5,6
 671 783 671 783 418 783 c 0,7,8
 284 783 284 783 222.5 861.5 c 128,-1,9
 161 940 161 940 161 1088 c 0,0,1
1099 1390 m 1,10,11
 1179.22 1372.56 1179.22 1372.56 1213 1318 c 1,12,-1
 425 -18 l 1,13,14
 355.206 -4.04124 355.206 -4.04124 309 55 c 1,15,-1
 1099 1390 l 1,10,11
352.5 915 m 128,-1,17
 378 901 378 901 418.5 901 c 128,-1,18
 459 901 459 901 484 916.5 c 128,-1,19
 509 932 509 932 522.5 958.5 c 0,20,21
 544 1000.7 544 1000.7 544 1068.35 c 128,-1,22
 544 1136 544 1136 540 1169.5 c 128,-1,23
 536 1203 536 1203 522.5 1226.5 c 0,24,25
 494.638 1275 494.638 1275 418 1275 c 0,26,27
 309.435 1275 309.435 1275 291.5 1162.5 c 0,28,29
 286 1128 286 1128 286 1087.5 c 128,-1,30
 286 1047 286 1047 291.5 1013 c 128,-1,31
 297 979 297 979 312 954 c 128,-1,16
 327 929 327 929 352.5 915 c 128,-1,17
861 285 m 0,32,33
 861 590 861 590 1118 590 c 0,34,35
 1253 590 1253 590 1312 515.5 c 128,-1,36
 1371 441 1371 441 1371 293.5 c 0,37,38
 1371 -20 1371 -20 1118 -20 c 0,39,40
 984 -20 984 -20 922.5 58.5 c 128,-1,41
 861 137 861 137 861 285 c 0,32,33
991.5 359.5 m 0,42,43
 986 325 986 325 986 284.5 c 128,-1,44
 986 244 986 244 991.5 210 c 128,-1,45
 997 176 997 176 1012 151 c 0,46,47
 1043.8 97.9999 1043.8 97.9999 1118 98 c 0,48,49
 1226.26 98 1226.26 98 1240 216.5 c 0,50,51
 1244 251 1244 251 1244 292 c 128,-1,52
 1244 333 1244 333 1240 366.5 c 128,-1,53
 1236 400 1236 400 1222.5 423.5 c 0,54,55
 1194.64 472 1194.64 472 1118 472 c 0,56,57
 1009.43 472 1009.43 472 991.5 359.5 c 0,42,43
EndSplineSet
EndChar

StartChar: tilde
Encoding: 732 732 144
Width: 911
Flags: HW
LayerCount: 2
Fore
SplineSet
320 1358 m 0,0,1
 255.905 1358 255.905 1358 198 1282 c 1,2,3
 148.788 1309.07 148.788 1309.07 116 1371 c 1,4,5
 172.533 1445.08 172.533 1445.08 233.767 1477.54 c 128,-1,6
 295 1510 295 1510 338 1510 c 128,-1,7
 381 1510 381 1510 411 1493 c 128,-1,8
 441 1476 441 1476 468 1456 c 128,-1,9
 495 1436 495 1436 521.5 1419 c 128,-1,10
 548 1402 548 1402 578 1402 c 0,11,12
 642.095 1402 642.095 1402 700 1478 c 1,13,14
 731.241 1460.15 731.241 1460.15 752.12 1432.57 c 128,-1,15
 773 1405 773 1405 782 1389 c 1,16,17
 726.04 1313.74 726.04 1313.74 644.5 1271.5 c 0,18,19
 603 1250 603 1250 560 1250 c 128,-1,20
 517 1250 517 1250 487 1267 c 128,-1,21
 457 1284 457 1284 430 1304 c 128,-1,22
 403 1324 403 1324 376.5 1341 c 128,-1,23
 350 1358 350 1358 320 1358 c 0,0,1
EndSplineSet
EndChar

StartChar: mu
Encoding: 181 181 145
AltUni2: 0003bc.ffffffff.0
Width: 1195
Flags: HW
LayerCount: 2
Fore
SplineSet
332 30 m 1,0,-1
 312 11 l 1,1,-1
 365 -405 l 1,2,-1
 336 -436 l 1,3,-1
 192 -436 l 1,4,-1
 193 331 l 1,5,-1
 193 1022 l 1,6,-1
 365 1022 l 1,7,-1
 365 350 l 2,8,9
 365 234 365 234 413.5 178 c 128,-1,10
 462 122 462 122 599.553 122 c 128,-1,11
 737.105 122 737.105 122 817 188 c 1,12,-1
 817 1022 l 1,13,-1
 989 1022 l 1,14,-1
 989 154 l 1,15,-1
 1091 50 l 1,16,-1
 1091 0 l 1,17,-1
 919 0 l 1,18,-1
 838 71 l 1,19,-1
 774 71 l 1,20,21
 665.5 -20 665.5 -20 537.812 -20 c 128,-1,22
 410.125 -20 410.125 -20 332 30 c 1,0,-1
EndSplineSet
EndChar

StartChar: tilde.cap
Encoding: 65550 -1 146
Width: 685
Flags: HW
LayerCount: 2
Fore
SplineSet
214 1694 m 0,0,1
 149.905 1694 149.905 1694 92 1618 c 1,2,3
 42.7883 1645.07 42.7883 1645.07 10 1707 c 1,4,5
 66.533 1781.08 66.533 1781.08 127.767 1813.54 c 128,-1,6
 189 1846 189 1846 232 1846 c 128,-1,7
 275 1846 275 1846 305 1829 c 128,-1,8
 335 1812 335 1812 362 1792 c 128,-1,9
 389 1772 389 1772 415.5 1755 c 128,-1,10
 442 1738 442 1738 472 1738 c 0,11,12
 536.095 1738 536.095 1738 594 1814 c 1,13,14
 625.241 1796.15 625.241 1796.15 646.12 1768.57 c 128,-1,15
 667 1741 667 1741 676 1725 c 1,16,17
 620.04 1649.74 620.04 1649.74 538.5 1607.5 c 0,18,19
 497 1586 497 1586 454 1586 c 128,-1,20
 411 1586 411 1586 381 1603 c 128,-1,21
 351 1620 351 1620 324 1640 c 128,-1,22
 297 1660 297 1660 270.5 1677 c 128,-1,23
 244 1694 244 1694 214 1694 c 0,0,1
EndSplineSet
EndChar

StartChar: asciitilde
Encoding: 126 126 147
Width: 1196
Flags: HW
LayerCount: 2
Fore
SplineSet
399 617 m 0,0,1
 315.55 617 315.55 617 217 471 c 1,2,3
 150.623 501.423 150.623 501.423 115 550 c 1,4,5
 222.87 710.423 222.87 710.423 346 750 c 0,6,7
 374 759 374 759 409.5 759 c 128,-1,8
 445 759 445 759 483 746.5 c 128,-1,9
 521 734 521 734 555.5 715.5 c 128,-1,10
 590 697 590 697 621.5 675 c 128,-1,11
 653 653 653 653 683 634.5 c 0,12,13
 753.541 591 753.541 591 801 591 c 0,14,15
 900.659 591 900.659 591 979 737 c 1,16,17
 1047.71 707.929 1047.71 707.929 1081 658 c 1,18,19
 976.208 499.468 976.208 499.468 849.5 458 c 0,20,21
 822 449 822 449 786 449 c 128,-1,22
 750 449 750 449 714 461.5 c 128,-1,23
 678 474 678 474 645 492.5 c 128,-1,24
 612 511 612 511 582.5 533 c 128,-1,25
 553 555 553 555 523 573.5 c 0,26,27
 452.459 617 452.459 617 399 617 c 0,0,1
EndSplineSet
EndChar

StartChar: germandbls
Encoding: 223 223 148
Width: 1196
Flags: HW
LayerCount: 2
Fore
SplineSet
530 168 m 1,0,1
 628.182 128 628.182 128 723 128 c 0,2,3
 841.236 128 841.236 128 884 201.5 c 0,4,5
 900 229 900 229 900 280 c 128,-1,6
 900 331 900 331 864 380.5 c 128,-1,7
 828 430 828 430 758.5 459.5 c 128,-1,8
 689 489 689 489 641.5 515.5 c 128,-1,9
 594 542 594 542 562.5 574.5 c 0,10,11
 499 640.016 499 640.016 499 740 c 0,12,13
 499 851.962 499 851.962 599 938.5 c 128,-1,14
 699 1025.04 699 1025.04 699 1137 c 0,15,16
 699 1235.73 699 1235.73 611 1268 c 0,17,18
 581 1279 581 1279 532.5 1279 c 128,-1,19
 484 1279 484 1279 445.5 1269 c 128,-1,20
 407 1259 407 1259 382.5 1237.5 c 0,21,22
 335 1195.82 335 1195.82 335 1101 c 2,23,-1
 335 0 l 1,24,-1
 163 0 l 1,25,-1
 163 1107 l 2,26,27
 163 1322.82 163 1322.82 371 1394.5 c 0,28,29
 445 1420 445 1420 513.5 1420 c 128,-1,30
 582 1420 582 1420 619 1415 c 128,-1,31
 656 1410 656 1410 693 1398 c 128,-1,32
 730 1386 730 1386 764 1366.5 c 128,-1,33
 798 1347 798 1347 824.5 1318 c 0,34,35
 883 1253.98 883 1253.98 883 1175.49 c 128,-1,36
 883 1097 883 1097 868 1053 c 128,-1,37
 853 1009 853 1009 830 975.5 c 128,-1,38
 807 942 807 942 781 917 c 2,39,-1
 732 868.5 l 1,40,41
 679 814.348 679 814.348 679 761 c 0,42,43
 679 713.667 679 713.667 697 692.333 c 0,44,45
 727.069 656.695 727.069 656.695 804.035 623.848 c 128,-1,46
 881 591 881 591 934 556.5 c 128,-1,47
 987 522 987 522 1020 481 c 0,48,49
 1083 402.727 1083 402.727 1083 276 c 0,50,51
 1083 143.875 1083 143.875 981 61 c 0,52,53
 881.308 -20 881.308 -20 735.404 -20 c 128,-1,54
 589.5 -20 589.5 -20 495 29 c 1,55,56
 495 108 495 108 530 168 c 1,0,1
EndSplineSet
EndChar

StartChar: OE
Encoding: 338 338 149
Width: 1878
Flags: HW
LayerCount: 2
Fore
SplineSet
1023 153 m 1,0,1
 908.647 -27 908.647 -27 660 -27 c 0,2,3
 374.902 -27 374.902 -27 232 162.5 c 0,4,5
 97 341.522 97 341.522 97 679 c 256,6,7
 97 1192.83 97 1192.83 411 1336.5 c 0,8,9
 517 1385 517 1385 660 1385 c 0,10,11
 909.892 1385 909.892 1385 1023 1230 c 1,12,-1
 1023 1358 l 1,13,-1
 1770 1358 l 1,14,15
 1770 1353 1770 1353 1771 1348 c 2,16,-1
 1772 1321 l 1,17,18
 1772 1251 1772 1251 1750 1207 c 1,19,-1
 1566 1213 l 1,20,21
 1323 1219 1323 1219 1202 1219 c 1,22,-1
 1202 764 l 1,23,24
 1229 764 1229 764 1265.5 764.5 c 128,-1,25
 1302 765 1302 765 1343.5 765.5 c 2,26,-1
 1428.5 766.5 l 2,27,28
 1472 767 1472 767 1541.5 768.5 c 128,-1,29
 1611 770 1611 770 1717 772 c 1,30,31
 1717 767 1717 767 1718 760 c 2,32,-1
 1719 728 l 1,33,34
 1719 670.5 1719 670.5 1706 625 c 1,35,36
 1601 626 1601 626 1532.5 627 c 128,-1,37
 1464 628 1464 628 1421 628.5 c 2,38,-1
 1338 629.5 l 2,39,40
 1298 630 1298 630 1262.5 630.5 c 128,-1,41
 1227 631 1227 631 1202 631 c 1,42,-1
 1202 138 l 1,43,44
 1295 138 1295 138 1368.5 139.5 c 2,45,-1
 1489.5 142 l 2,46,47
 1579.34 143.891 1579.34 143.891 1778 152 c 1,48,49
 1778 147 1778 147 1779 140 c 2,50,-1
 1780 107 l 1,51,52
 1780 45 1780 45 1768 0 c 1,53,-1
 1023 0 l 1,54,-1
 1023 153 l 1,0,1
660 1223 m 0,55,56
 289 1223 289 1223 289 679 c 256,57,58
 289 284.539 289 284.539 490.5 174.5 c 0,59,60
 561 136 561 136 660.5 136 c 128,-1,61
 760 136 760 136 829 179 c 128,-1,62
 898 222 898 222 941 297.5 c 0,63,64
 1023 441.477 1023 441.477 1023 698 c 0,65,66
 1023 964.14 1023 964.14 941 1090 c 0,67,68
 854.349 1223 854.349 1223 660 1223 c 0,55,56
EndSplineSet
EndChar

StartChar: cent
Encoding: 162 162 150
Width: 1024
Flags: HW
LayerCount: 2
Fore
SplineSet
669 -207 m 1,0,1
 637 -215 637 -215 599.643 -215 c 128,-1,2
 562.286 -215 562.286 -215 528 -203 c 1,3,-1
 528 -13 l 1,4,5
 234.465 24.4726 234.465 24.4726 150 302 c 0,6,7
 122 394 122 394 122 513 c 256,8,9
 122 748.303 122 748.303 235.5 892 c 0,10,11
 345.726 1031.55 345.726 1031.55 539 1058 c 1,12,-1
 539 1252 l 1,13,14
 594 1263 594 1263 622.125 1263 c 128,-1,15
 650.25 1263 650.25 1263 680 1249 c 1,16,-1
 680 1061 l 1,17,18
 778.617 1050.89 778.617 1050.89 885 1020 c 1,19,20
 874.296 945.074 874.296 945.074 847 888 c 1,21,22
 732.3 925 732.3 925 640.15 925 c 128,-1,23
 548 925 548 925 489 893.5 c 128,-1,24
 430 862 430 862 389 806.5 c 0,25,26
 304 691.439 304 691.439 304 513 c 0,27,28
 304 325.585 304 325.585 389 224 c 0,29,30
 471 126 471 126 607.045 126 c 128,-1,31
 743.091 126 743.091 126 864 164 c 1,32,33
 893.444 97.7519 893.444 97.7519 891 22 c 1,34,35
 771.956 -10.4667 771.956 -10.4667 669 -18 c 1,36,-1
 669 -207 l 1,0,1
EndSplineSet
EndChar

StartChar: sterling
Encoding: 163 163 151
Width: 1195
Flags: HW
LayerCount: 2
Fore
SplineSet
494 48 m 0,0,1
 391.241 48 391.241 48 282 -18 c 1,2,3
 230.386 -3.66265 230.386 -3.66265 194 40 c 0,4,5
 184 52 184 52 180 61 c 1,6,7
 259.426 204.724 259.426 204.724 294.713 336.862 c 128,-1,8
 330 469 330 469 330 531 c 128,-1,9
 330 593 330 593 326 627 c 1,10,-1
 141 627 l 1,11,12
 131 660.333 131 660.333 131 700.167 c 128,-1,13
 131 740 131 740 141 770 c 1,14,-1
 304 770 l 1,15,16
 276 922.727 276 922.727 276 1026.36 c 128,-1,17
 276 1130 276 1130 298 1194.5 c 128,-1,18
 320 1259 320 1259 369 1309 c 0,19,20
 477.78 1420 477.78 1420 683 1420 c 0,21,22
 857.111 1420 857.111 1420 966 1322 c 1,23,24
 948.594 1255.86 948.594 1255.86 890 1210 c 1,25,26
 792.588 1279 792.588 1279 672 1279 c 0,27,28
 502.265 1279 502.265 1279 469.5 1149.5 c 0,29,30
 459 1108 459 1108 459 1023.72 c 128,-1,31
 459 939.444 459 939.444 484 770 c 1,32,-1
 798 770 l 1,33,34
 807 735.8 807 735.8 807 699 c 256,35,36
 807 667.5 807 667.5 798 627 c 1,37,-1
 501 627 l 1,38,39
 502 619 502 619 502 610.5 c 2,40,-1
 502 594 l 2,41,42
 502 428.615 502 428.615 434 290 c 0,43,44
 404 228 404 228 366 182 c 1,45,-1
 388 159 l 1,46,47
 477.706 220 477.706 220 570 220 c 0,48,49
 627.885 220 627.885 220 688.442 196.5 c 128,-1,50
 749 173 749 173 784.5 162.5 c 128,-1,51
 820 152 820 152 859 152 c 0,52,53
 949.531 152 949.531 152 1025 267 c 1,54,55
 1089.9 239.543 1089.9 239.543 1126 189 c 1,56,57
 1021.21 30.468 1021.21 30.468 894.5 -11 c 0,58,59
 867 -20 867 -20 824.5 -20 c 128,-1,60
 782 -20 782 -20 738 -9.5 c 128,-1,61
 694 1 694 1 654.5 14 c 0,62,63
 551.192 48 551.192 48 494 48 c 0,0,1
EndSplineSet
EndChar

StartChar: Euro
Encoding: 8364 8364 152
Width: 1195
Flags: HW
LayerCount: 2
Fore
SplineSet
11 429 m 1,0,1
 1 462.333 1 462.333 1 502.167 c 128,-1,2
 1 542 1 542 11 572 c 1,3,-1
 125 572 l 1,4,5
 122 617 122 617 122 666 c 128,-1,6
 122 715 122 715 127 790 c 1,7,-1
 21 790 l 1,8,9
 11 823.333 11 823.333 11 863.167 c 128,-1,10
 11 903 11 903 21 933 c 1,11,-1
 151 933 l 1,12,13
 229.877 1263.68 229.877 1263.68 514.5 1355 c 0,14,15
 608 1385 608 1385 738.571 1385 c 128,-1,16
 869.143 1385 869.143 1385 1037 1335 c 1,17,18
 1030.06 1258.7 1030.06 1258.7 994 1184 c 1,19,20
 859 1229 859 1229 756.5 1229 c 128,-1,21
 654 1229 654 1229 596.5 1208 c 128,-1,22
 539 1187 539 1187 492.5 1148.5 c 0,23,24
 399.98 1071.9 399.98 1071.9 353 933 c 1,25,-1
 865 933 l 1,26,27
 874 898.8 874 898.8 874 862 c 256,28,29
 874 830.5 874 830.5 865 790 c 1,30,-1
 321 790 l 1,31,32
 314 739.25 314 739.25 314 678.625 c 128,-1,33
 314 618 314 618 318 572 c 1,34,-1
 854 572 l 1,35,36
 863 537.8 863 537.8 863 501 c 256,37,38
 863 469.5 863 469.5 854 429 c 1,39,-1
 347 429 l 1,40,41
 390 289 390 289 485.5 213.5 c 128,-1,42
 581 138 581 138 725.962 138 c 128,-1,43
 870.923 138 870.923 138 1016 184 c 1,44,45
 1046.89 118.358 1046.89 118.358 1042 23 c 1,46,47
 867 -27 867 -27 722 -27 c 0,48,49
 240.423 -27 240.423 -27 144 429 c 1,50,-1
 11 429 l 1,0,1
EndSplineSet
EndChar

StartChar: yen
Encoding: 165 165 153
Width: 1196
Flags: HW
LayerCount: 2
Fore
SplineSet
262 199 m 1,0,1
 252 232.333 252 232.333 252 272.167 c 128,-1,2
 252 312 252 312 262 342 c 1,3,-1
 508 342 l 1,4,-1
 508 509 l 1,5,-1
 262 509 l 1,6,7
 252 542.333 252 542.333 252 582.167 c 128,-1,8
 252 622 252 622 262 652 c 1,9,-1
 439 652 l 1,10,-1
 98 1358 l 1,11,-1
 297 1358 l 1,12,-1
 579 700 l 1,13,-1
 615 700 l 1,14,-1
 899 1358 l 1,15,-1
 1098 1358 l 1,16,-1
 760 652 l 1,17,-1
 935 652 l 1,18,19
 944 617.8 944 617.8 944 581 c 256,20,21
 944 549.5 944 549.5 935 509 c 1,22,-1
 691 509 l 1,23,-1
 691 342 l 1,24,-1
 935 342 l 1,25,26
 944 307.8 944 307.8 944 271 c 256,27,28
 944 239.5 944 239.5 935 199 c 1,29,-1
 691 199 l 1,30,-1
 691 0 l 1,31,-1
 508 0 l 1,32,-1
 508 199 l 1,33,-1
 262 199 l 1,0,1
EndSplineSet
EndChar

StartChar: AE
Encoding: 198 198 154
Width: 1534
Flags: HW
LayerCount: 2
Fore
SplineSet
1394 105 m 1,0,1
 1394 43.5 1394 43.5 1382 0 c 1,2,-1
 708 0 l 1,3,-1
 708 467 l 1,4,-1
 355 467 l 1,5,-1
 221 0 l 1,6,-1
 41 0 l 1,7,-1
 440 1358 l 1,8,-1
 1384 1358 l 1,9,10
 1384 1354 1384 1354 1385 1348 c 2,11,-1
 1386 1320 l 1,12,13
 1386 1253.64 1386 1253.64 1363 1206 c 1,14,-1
 1206 1212 l 1,15,16
 999 1218 999 1218 891 1218 c 1,17,-1
 891 704 l 1,18,19
 914 704 914 704 945 704.5 c 128,-1,20
 976 705 976 705 1011.5 705.5 c 2,21,-1
 1084 706.5 l 2,22,23
 1168.45 707.641 1168.45 707.641 1331 713 c 1,24,25
 1331 707 1331 707 1332 700 c 2,26,-1
 1333 666 l 1,27,28
 1333 604.5 1333 604.5 1321 564 c 1,29,30
 1231 565 1231 565 1172.5 566 c 128,-1,31
 1114 567 1114 567 1077.5 567.5 c 2,32,-1
 1006.5 568.5 l 2,33,34
 972 569 972 569 942 569.5 c 128,-1,35
 912 570 912 570 891 570 c 1,36,-1
 891 138 l 1,37,38
 972.5 138 972.5 138 1036.25 139.5 c 2,39,-1
 1141.5 142 l 2,40,41
 1219.38 143.877 1219.38 143.877 1392 152 c 1,42,43
 1392 146 1392 146 1393 139 c 2,44,-1
 1394 105 l 1,0,1
708 618 m 1,45,-1
 708 1216 l 1,46,-1
 572 1216 l 1,47,-1
 400 618 l 1,48,-1
 708 618 l 1,45,-1
EndSplineSet
EndChar

StartChar: currency
Encoding: 164 164 155
Width: 1532
Flags: HW
LayerCount: 2
Fore
SplineSet
1169 966 m 1,0,1
 1233 852.452 1233 852.452 1233 675.79 c 128,-1,2
 1233 499.128 1233 499.128 1153 374 c 1,3,-1
 1322 208 l 1,4,5
 1281.17 130.058 1281.17 130.058 1221 110 c 1,6,-1
 1060 272 l 1,7,8
 945 184 945 184 765.5 184 c 128,-1,9
 586 184 586 184 471 268 c 1,10,-1
 310 104 l 1,11,12
 241.107 146.101 241.107 146.101 213 207 c 1,13,-1
 377 369 l 1,14,15
 300 488.553 300 488.553 300 667.462 c 128,-1,16
 300 846.371 300 846.371 371 962 c 1,17,-1
 209 1121 l 1,18,19
 249.04 1186.52 249.04 1186.52 312 1218 c 1,20,-1
 462 1065 l 1,21,22
 583 1162 583 1162 772 1162 c 128,-1,23
 961 1162 961 1162 1079 1071 c 1,24,-1
 1223 1217 l 1,25,26
 1297.82 1177.81 1297.82 1177.81 1321 1116 c 1,27,-1
 1169 966 l 1,0,1
1053 688 m 0,28,29
 1053 1029 1053 1029 770 1029 c 256,30,31
 625.938 1029 625.938 1029 550.5 927 c 0,32,33
 481 833.028 481 833.028 481 674 c 0,34,35
 481 417.239 481 417.239 640.5 347 c 0,36,37
 695 323 695 323 770 323 c 256,38,39
 912.273 323 912.273 323 986.5 429.5 c 0,40,41
 1053 524.913 1053 524.913 1053 688 c 0,28,29
EndSplineSet
EndChar

StartChar: logicalnot
Encoding: 172 172 156
Width: 1535
Flags: HW
LayerCount: 2
Fore
SplineSet
222 676 m 1,0,-1
 1313 676 l 1,1,-1
 1313 181 l 1,2,-1
 1160 181 l 1,3,-1
 1160 523 l 1,4,-1
 222 523 l 1,5,-1
 222 676 l 1,0,-1
EndSplineSet
EndChar

StartChar: degree
Encoding: 176 176 177
Width: 853
Flags: HW
LayerCount: 2
Fore
SplineSet
425 1045 m 0,0,1
 359 1045 359 1045 303.5 1065 c 128,-1,2
 248 1085 248 1085 206.5 1124.5 c 0,3,4
 118 1208.73 118 1208.73 118 1361 c 256,5,6
 118 1513.27 118 1513.27 206.5 1597.5 c 0,7,8
 291.076 1678 291.076 1678 423 1678 c 0,9,10
 561.924 1678 561.924 1678 646.5 1597.5 c 0,11,12
 734 1514.22 734 1514.22 734 1361 c 0,13,14
 734 1206.78 734 1206.78 646.5 1123.5 c 0,15,16
 564.025 1045 564.025 1045 425 1045 c 0,0,1
424 1161 m 0,17,18
 463 1161 463 1161 497 1173.5 c 128,-1,19
 531 1186 531 1186 556 1211.5 c 0,20,21
 609 1265.56 609 1265.56 609 1361 c 0,22,23
 609 1505.03 609 1505.03 497 1549.5 c 0,24,25
 463 1563 463 1563 424 1563 c 128,-1,26
 385 1563 385 1563 352.5 1549.5 c 128,-1,27
 320 1536 320 1536 296 1510.5 c 0,28,29
 244 1455.25 244 1455.25 244 1361 c 0,30,31
 244 1267.75 244 1267.75 296 1212.5 c 0,32,33
 344.471 1161 344.471 1161 424 1161 c 0,17,18
EndSplineSet
EndChar

StartChar: asciicircum
Encoding: 94 94 178
Width: 1196
Flags: HW
LayerCount: 2
Fore
SplineSet
534 1190 m 1,0,-1
 661 1190 l 1,1,-1
 1121 177 l 1,2,-1
 986 115 l 1,3,-1
 626 908 l 1,4,-1
 597 1001 l 1,5,-1
 567 905 l 1,6,-1
 209 115 l 1,7,-1
 74 177 l 1,8,-1
 534 1190 l 1,0,-1
EndSplineSet
EndChar

StartChar: ampersand
Encoding: 38 38 179
Width: 1629
Flags: HW
LayerCount: 2
Fore
SplineSet
969 128 m 1,0,1
 782.783 -40 782.783 -40 538 -40 c 0,2,3
 376.766 -40 376.766 -40 262 53 c 0,4,5
 133 157.534 133 157.534 133 340 c 0,6,7
 133 457.582 133 457.582 208.5 559 c 0,8,9
 275.844 649.463 275.844 649.463 374 680 c 1,10,-1
 391 710 l 1,11,12
 327 838 327 838 327 946 c 128,-1,13
 327 1054 327 1054 355.5 1124 c 128,-1,14
 384 1194 384 1194 433 1238.5 c 0,15,16
 528.247 1325 528.247 1325 686 1325 c 0,17,18
 807.808 1325 807.808 1325 906 1256 c 0,19,20
 949 1225 949 1225 979 1187 c 1,21,22
 952.378 1123.77 952.378 1123.77 876 1079 c 1,23,24
 797.778 1167 797.778 1167 701 1167 c 0,25,26
 511 1167 511 1167 511 964 c 0,27,28
 511 781.475 511 781.475 665.5 602.5 c 0,29,30
 776.512 473.902 776.512 473.902 962 338 c 1,31,32
 1051.54 447.646 1051.54 447.646 1136 601 c 1,33,34
 1216.38 564.966 1216.38 564.966 1264 511 c 1,35,36
 1165.47 350.349 1165.47 350.349 1085 252 c 1,37,38
 1234.34 155.17 1234.34 155.17 1318 107 c 1,39,40
 1296.72 4.15419 1296.72 4.15419 1239 -36 c 1,41,42
 1163 6 1163 6 1096 47 c 1,43,-1
 969 128 l 1,0,1
842 217 m 1,44,45
 574.082 417.046 574.082 417.046 442 622 c 1,46,47
 384 588 384 588 350.5 521.5 c 128,-1,48
 317 455 317 455 317 383 c 128,-1,49
 317 311 317 311 336.5 264.5 c 128,-1,50
 356 218 356 218 391 185.5 c 0,51,52
 463.692 118 463.692 118 587 118 c 0,53,54
 719.326 118 719.326 118 842 217 c 1,44,45
EndSplineSet
EndChar

StartChar: onesuperior
Encoding: 185 185 180
Width: 856
Flags: HW
LayerCount: 2
Fore
SplineSet
389 1514 m 1,0,1
 369 1506 369 1506 350.5 1498.5 c 0,2,3
 303.043 1479.26 303.043 1479.26 270 1471 c 1,4,5
 227.686 1493.27 227.686 1493.27 224 1567 c 1,6,7
 265 1583 265 1583 300 1598 c 2,8,-1
 361 1625 l 2,9,10
 391 1639 391 1639 416 1652 c 1,11,-1
 510 1652 l 1,12,-1
 510 919 l 1,13,-1
 389 919 l 1,14,-1
 389 1514 l 1,0,1
EndSplineSet
EndChar

StartChar: twosuperior
Encoding: 178 178 181
Width: 1195
Flags: HW
LayerCount: 2
Fore
SplineSet
857 1010 m 1,0,1
 857 941.75 857 941.75 844 919 c 1,2,-1
 361 919 l 1,3,-1
 361 1008 l 1,4,-1
 579 1234.5 l 1,5,6
 655.99 1316.56 655.99 1316.56 674.995 1347.78 c 0,7,8
 704 1395.43 704 1395.43 704 1444 c 0,9,10
 704 1568 704 1568 602 1568 c 0,11,12
 481.778 1568 481.778 1568 400 1504 c 1,13,14
 366.303 1533.48 366.303 1533.48 354 1595 c 1,15,16
 470.25 1670 470.25 1670 599 1670 c 0,17,18
 832 1670 832 1670 832 1455 c 0,19,20
 832 1367.37 832 1367.37 749.5 1264.5 c 0,21,22
 709 1214 709 1214 649.5 1155 c 2,23,-1
 514 1020 l 1,24,25
 681 1020 681 1020 856 1045 c 1,26,-1
 856 1035 l 1,27,-1
 857 1010 l 1,0,1
EndSplineSet
EndChar

StartChar: threesuperior
Encoding: 179 179 182
Width: 1195
Flags: HW
LayerCount: 2
Fore
SplineSet
827 1478 m 0,0,1
 827 1344.38 827 1344.38 691 1312 c 1,2,-1
 691 1298 l 1,3,4
 761 1288 761 1288 805.5 1243.5 c 128,-1,5
 850 1199 850 1199 850 1135.5 c 128,-1,6
 850 1072 850 1072 829 1029 c 128,-1,7
 808 986 808 986 770 957.5 c 0,8,9
 693.333 900 693.333 900 563 900 c 0,10,11
 447.917 900 447.917 900 344 943 c 1,12,13
 351.517 995.617 351.517 995.617 377 1035 c 1,14,15
 457 995 457 995 551 995 c 0,16,17
 624.25 995 624.25 995 658.625 1022.5 c 0,18,19
 719 1070.8 719 1070.8 719 1137 c 0,20,21
 719 1181.16 719 1181.16 690.5 1206.58 c 0,22,23
 638.455 1253 638.455 1253 575 1253 c 2,24,-1
 515 1253 l 1,25,26
 509 1277 509 1277 509 1296.5 c 2,27,-1
 509 1323.5 l 2,28,29
 509 1332 509 1332 512 1350 c 1,30,-1
 575 1350 l 2,31,32
 658.286 1350 658.286 1350 688.5 1420.5 c 0,33,34
 699 1445 699 1445 699 1484 c 128,-1,35
 699 1523 699 1523 663 1547.5 c 128,-1,36
 627 1572 627 1572 552.444 1572 c 128,-1,37
 477.889 1572 477.889 1572 404 1537 c 1,38,39
 374.808 1568.44 374.808 1568.44 367 1627 c 1,40,41
 476.455 1670 476.455 1670 583.727 1670 c 128,-1,42
 691 1670 691 1670 759 1622.5 c 128,-1,43
 827 1575 827 1575 827 1478 c 0,0,1
EndSplineSet
EndChar

StartChar: numbersign
Encoding: 35 35 183
Width: 1364
Flags: HW
LayerCount: 2
Fore
SplineSet
460 -6 m 1,0,1
 432 -14 432 -14 396.5 -14 c 128,-1,2
 361 -14 361 -14 326 0 c 1,3,-1
 360 360 l 1,4,-1
 103 360 l 1,5,6
 95 392 95 392 95 425 c 128,-1,7
 95 458 95 458 105 494 c 1,8,-1
 372 494 l 1,9,-1
 408 866 l 1,10,-1
 155 866 l 1,11,12
 147 898 147 898 147 931 c 128,-1,13
 147 964 147 964 157 1000 c 1,14,-1
 421 1000 l 1,15,-1
 456 1369 l 1,16,-1
 476 1374 l 2,17,18
 498.5 1379 498.5 1379 531.95 1379 c 128,-1,19
 565.4 1379 565.4 1379 591 1363 c 1,20,-1
 556 1000 l 1,21,-1
 846 1000 l 1,22,-1
 878 1369 l 1,23,-1
 898 1374 l 2,24,25
 920.5 1379 920.5 1379 953.95 1379 c 128,-1,26
 987.4 1379 987.4 1379 1013 1363 c 1,27,-1
 981 1000 l 1,28,-1
 1257 1000 l 1,29,30
 1268 945 1268 945 1268 918.929 c 128,-1,31
 1268 892.857 1268 892.857 1255 865 c 1,32,-1
 969 865 l 1,33,-1
 936 494 l 1,34,-1
 1205 494 l 1,35,36
 1216 439 1216 439 1216 412.929 c 128,-1,37
 1216 386.857 1216 386.857 1203 359 c 1,38,-1
 924 359 l 1,39,-1
 892 -6 l 1,40,41
 864 -14 864 -14 828.5 -14 c 128,-1,42
 793 -14 793 -14 758 0 c 1,43,-1
 789 359 l 1,44,-1
 495 360 l 1,45,-1
 460 -6 l 1,0,1
801 494 m 1,46,-1
 834 865 l 1,47,-1
 543 866 l 1,48,-1
 508 494 l 1,49,-1
 801 494 l 1,46,-1
EndSplineSet
EndChar

StartChar: section
Encoding: 167 167 184
Width: 1024
Flags: HW
LayerCount: 2
Fore
SplineSet
894 543 m 0,0,1
 894 405.5 894 405.5 763 340 c 1,2,-1
 763 313 l 1,3,4
 869 238 869 238 869 125 c 0,5,6
 869 -120.962 869 -120.962 620 -184 c 0,7,8
 541 -204 541 -204 464.5 -204 c 0,9,10
 309.692 -204 309.692 -204 162 -156 c 1,11,12
 155.04 -82.9199 155.04 -82.9199 188 -17 c 1,13,14
 284.062 -70 284.062 -70 448 -70 c 0,15,16
 563.656 -70 563.656 -70 607.328 -48.5 c 128,-1,17
 651 -27 651 -27 670 3 c 128,-1,18
 689 33 689 33 689 74.5 c 128,-1,19
 689 116 689 116 675.5 142.5 c 128,-1,20
 662 169 662 169 634.5 193.5 c 128,-1,21
 607 218 607 218 565.5 243 c 2,22,-1
 469 299 l 1,23,24
 260.364 417.636 260.364 417.636 209.682 468.318 c 128,-1,25
 159 519 159 519 144.5 558 c 128,-1,26
 130 597 130 597 130 644 c 128,-1,27
 130 691 130 691 145 725 c 128,-1,28
 160 759 160 759 181.5 783 c 0,29,30
 217.388 823.062 217.388 823.062 269 846 c 1,31,-1
 269 873 l 1,32,33
 165 937.711 165 937.711 165 1063 c 0,34,35
 165 1301.88 165 1301.88 402 1363.5 c 0,36,37
 477 1383 477 1383 557 1383 c 0,38,39
 736 1383 736 1383 838 1332 c 1,40,41
 826.744 1253.21 826.744 1253.21 793 1205 c 1,42,43
 712.333 1249 712.333 1249 566 1249 c 0,44,45
 345 1249 345 1249 345 1114 c 0,46,47
 345 1047.45 345 1047.45 400.5 997 c 0,48,49
 441.842 959.416 441.842 959.416 553.421 895.708 c 128,-1,50
 665 832 665 832 729 790.5 c 128,-1,51
 793 749 793 749 829.5 711.5 c 0,52,53
 894 645.233 894 645.233 894 543 c 0,0,1
379 805 m 1,54,55
 314 752.188 314 752.188 314 667 c 0,56,57
 314 624.333 314 624.333 327 602.667 c 128,-1,58
 340 581 340 581 361.5 561 c 128,-1,59
 383 541 383 541 420.5 515.5 c 0,60,61
 500.442 461.14 500.442 461.14 653 383 c 1,62,63
 710 431.857 710 431.857 710 512 c 0,64,65
 710 567.714 710 567.714 697 591.857 c 128,-1,66
 684 616 684 616 663 636 c 128,-1,67
 642 656 642 656 605.5 680 c 128,-1,68
 569 704 569 704 513.5 734.5 c 1,69,-1
 379 805 l 1,54,55
EndSplineSet
EndChar

StartChar: asterisk
Encoding: 42 42 185
Width: 1362
Flags: HW
LayerCount: 2
Fore
SplineSet
706 783 m 1,0,1
 583.979 663.42 583.979 663.42 429 597 c 1,2,3
 383.36 616.56 383.36 616.56 370 670 c 1,4,5
 406 702 406 702 440.5 736.5 c 1,6,-1
 512 811 l 1,7,8
 549 851 549 851 582 894 c 1,9,10
 417.586 978.859 417.586 978.859 320 1100 c 1,11,12
 330.419 1152.09 330.419 1152.09 372 1179 c 1,13,-1
 460 1131 l 1,14,-1
 548.5 1087.5 l 2,15,16
 598 1064 598 1064 649 1045 c 1,17,18
 679.554 1220.69 679.554 1220.69 766 1359 c 1,19,20
 814.44 1365.92 814.44 1365.92 857 1334 c 1,21,22
 819.915 1159.7 819.915 1159.7 815 1027 c 1,23,24
 885 1037 885 1037 939 1037 c 0,25,26
 1057.33 1037 1057.33 1037 1149 1015 c 1,27,28
 1161 987 1161 987 1161 964.5 c 128,-1,29
 1161 942 1161 942 1154 922 c 1,30,31
 970.588 899.073 970.588 899.073 849 864 c 1,32,33
 926.297 709.405 926.297 709.405 941 544 c 1,34,35
 899.676 506.432 899.676 506.432 854 511 c 1,36,37
 782.571 668.143 782.571 668.143 706 783 c 1,0,1
EndSplineSet
EndChar

StartChar: braceleft
Encoding: 123 123 186
Width: 854
Flags: HW
LayerCount: 2
Fore
SplineSet
683 -172 m 1,0,1
 680.512 -239.17 680.512 -239.17 640 -276 c 1,2,3
 402.084 -246.668 402.084 -246.668 331.5 -45 c 0,4,5
 307 25 307 25 307 91 c 128,-1,6
 307 157 307 157 313 196 c 128,-1,7
 319 235 319 235 326.5 274.5 c 0,8,9
 347 382.467 347 382.467 347 441.233 c 128,-1,10
 347 500 347 500 332 535 c 128,-1,11
 317 570 317 570 293 587 c 0,12,13
 259.118 611 259.118 611 178 611 c 1,14,15
 171 637.25 171 637.25 171 672.375 c 128,-1,16
 171 707.5 171 707.5 178 739 c 1,17,18
 258.5 739 258.5 739 287.75 758.5 c 0,19,20
 346 797.333 346 797.333 346 900 c 0,21,22
 346 949.143 346 949.143 333 1021.57 c 0,23,24
 308 1160.86 308 1160.86 308 1231.93 c 128,-1,25
 308 1303 308 1303 332.5 1371 c 128,-1,26
 357 1439 357 1439 401 1486 c 0,27,28
 488.428 1579.39 488.428 1579.39 640 1596 c 1,29,30
 678.259 1557.74 678.259 1557.74 683 1489 c 1,31,32
 468 1453.9 468 1453.9 468 1229 c 0,33,34
 468 1196 468 1196 472.5 1163.5 c 2,35,-1
 482 1097 l 2,36,37
 496 1001.8 496 1001.8 496 937.9 c 128,-1,38
 496 874 496 874 479.5 825.5 c 128,-1,39
 463 777 463 777 440 749.5 c 0,40,41
 413.481 717.792 413.481 717.792 354 694 c 1,42,-1
 354 656 l 1,43,44
 420.829 621.348 420.829 621.348 446.914 583.174 c 0,45,46
 497 509.878 497 509.878 497 396 c 0,47,48
 497 351.7 497 351.7 487.5 282.35 c 0,49,50
 469 147.3 469 147.3 469 99 c 0,51,52
 469 -131.875 469 -131.875 683 -172 c 1,0,1
EndSplineSet
EndChar

StartChar: parenleft
Encoding: 40 40 188
Width: 684
Flags: HW
LayerCount: 2
Fore
SplineSet
482 -283 m 1,0,1
 130 111.24 130 111.24 130 667 c 0,2,3
 130 1057 130 1057 314.5 1385 c 0,4,5
 382 1505 382 1505 482 1617 c 1,6,7
 555.409 1587.64 555.409 1587.64 570 1539 c 1,8,9
 338.271 1202.18 338.271 1202.18 302 867.5 c 0,10,11
 291 766 291 766 291 668 c 256,12,13
 291 442.645 291 442.645 333 296.323 c 128,-1,14
 375 150 375 150 429.5 35 c 128,-1,15
 484 -80 484 -80 570 -205 c 1,16,17
 555.409 -253.636 555.409 -253.636 482 -283 c 1,0,1
EndSplineSet
EndChar

StartChar: at
Encoding: 64 64 190
Width: 2048
Flags: HW
LayerCount: 2
Fore
SplineSet
988 -248 m 0,0,1
 1211.76 -248 1211.76 -248 1344 -161 c 1,2,3
 1389.6 -199.581 1389.6 -199.581 1400 -249 c 1,4,5
 1312.74 -311.048 1312.74 -311.048 1193.37 -336.524 c 128,-1,6
 1074 -362 1074 -362 954.5 -362 c 128,-1,7
 835 -362 835 -362 726 -332 c 128,-1,8
 617 -302 617 -302 530.5 -249.5 c 128,-1,9
 444 -197 444 -197 379 -125 c 128,-1,10
 314 -53 314 -53 271 30.5 c 0,11,12
 185 197.5 185 197.5 185 378.75 c 128,-1,13
 185 560 185 560 225 696.5 c 128,-1,14
 265 833 265 833 334 939 c 128,-1,15
 403 1045 403 1045 495 1121.5 c 128,-1,16
 587 1198 587 1198 691 1247.5 c 0,17,18
 893.747 1344 893.747 1344 1121 1344 c 0,19,20
 1444.94 1344 1444.94 1344 1650.5 1156 c 0,21,22
 1863 961.653 1863 961.653 1863 643 c 0,23,24
 1863 381.973 1863 381.973 1747.5 203 c 0,25,26
 1626.82 16.0001 1626.82 16.0001 1445.01 16 c 128,-1,27
 1263.2 16 1263.2 16 1166 178 c 1,28,-1
 1104 178 l 1,29,30
 1030 104 1030 104 916 104 c 0,31,32
 734.854 104 734.854 104 671 282.5 c 0,33,34
 649 344 649 344 649 446.5 c 128,-1,35
 649 549 649 549 681 643.5 c 128,-1,36
 713 738 713 738 767 804 c 0,37,38
 877.455 939 877.455 939 1037 939 c 0,39,40
 1134.43 939 1134.43 939 1203 915 c 1,41,-1
 1207 945 l 1,42,-1
 1346 945 l 1,43,-1
 1272 232 l 1,44,45
 1301.1 162.166 1301.1 162.166 1373 137 c 0,46,47
 1393 130 1393 130 1433 130 c 128,-1,48
 1473 130 1473 130 1528 158.5 c 128,-1,49
 1583 187 1583 187 1624 249 c 0,50,51
 1713 383.585 1713 383.585 1713 650 c 0,52,53
 1713 919.409 1713 919.409 1547.5 1074.5 c 0,54,55
 1382.63 1229 1382.63 1229 1109 1229 c 0,56,57
 765.86 1229 765.86 1229 550 1001.5 c 0,58,59
 335 774.907 335 774.907 335 421 c 0,60,61
 335 118.728 335 118.728 509.5 -63 c 0,62,63
 687.142 -248 687.142 -248 988 -248 c 0,0,1
1190 816 m 1,64,65
 1146.67 836 1146.67 836 1080.33 836 c 128,-1,66
 1014 836 1014 836 965.5 808 c 128,-1,67
 917 780 917 780 880 729.5 c 0,68,69
 799 618.946 799 618.946 799 454 c 0,70,71
 799 282.627 799 282.627 908.5 238.5 c 0,72,73
 942 225 942 225 987.5 225 c 0,74,75
 1066.67 225 1066.67 225 1112 265 c 0,76,77
 1132 283 1132 283 1141 306 c 1,78,-1
 1190 816 l 1,64,65
EndSplineSet
EndChar

StartChar: lessequal
Encoding: 8804 8804 191
Width: 1326
Flags: HW
LayerCount: 2
Fore
SplineSet
114 956 m 1,0,-1
 1127 1416 l 1,1,-1
 1189 1281 l 1,2,-1
 396 921 l 1,3,-1
 303 892 l 1,4,-1
 399 862 l 1,5,-1
 1189 556 l 1,6,-1
 1143 414 l 1,7,-1
 114 816 l 1,8,-1
 114 956 l 1,0,-1
116 260 m 1,9,-1
 1158 260 l 1,10,-1
 1158 107 l 1,11,-1
 116 107 l 1,12,-1
 116 260 l 1,9,-1
EndSplineSet
EndChar

StartChar: copyright
Encoding: 169 169 193
Width: 1707
Flags: HW
LayerCount: 2
Fore
SplineSet
186 670 m 256,0,1
 186 943.884 186 943.884 381.5 1141 c 0,2,3
 502.516 1263.02 502.516 1263.02 676 1312 c 0,4,5
 761 1336 761 1336 853 1336 c 256,6,7
 1031.84 1336 1031.84 1336 1189.5 1245 c 0,8,9
 1338.59 1158.95 1338.59 1158.95 1428.5 1006 c 0,10,11
 1520 850.345 1520 850.345 1520 670 c 256,12,13
 1520 395.116 1520 395.116 1324.5 198 c 0,14,15
 1203.48 75.9836 1203.48 75.9836 1030 27 c 0,16,17
 945 3 945 3 853 3 c 256,18,19
 674.163 3 674.163 3 516.5 94 c 0,20,21
 367.408 180.053 367.408 180.053 277.5 333 c 0,22,23
 186 488.655 186 488.655 186 670 c 256,0,1
276 650 m 0,24,25
 276 550 276 550 321.5 445 c 128,-1,26
 367 340 367 340 445 261.5 c 0,27,28
 612.427 93 612.427 93 853 93 c 256,29,30
 1093.57 93 1093.57 93 1261 261.5 c 0,31,32
 1430 431.583 1430 431.583 1430 670 c 0,33,34
 1430 910.094 1430 910.094 1261 1077.5 c 0,35,36
 1090.9 1246 1090.9 1246 853 1246 c 256,37,38
 615.105 1246 615.105 1246 445 1077.5 c 0,39,40
 276 910.094 276 910.094 276 650 c 0,24,25
869 276 m 0,41,42
 531 276 531 276 531 666 c 256,43,44
 531 859 531 859 618 964.5 c 128,-1,45
 705 1070 705 1070 869 1070 c 0,46,47
 951.5 1070 951.5 1070 1046 1042 c 1,48,49
 1042.76 983.68 1042.76 983.68 1021 932 c 1,50,51
 953.143 957 953.143 957 887.071 957 c 128,-1,52
 821 957 821 957 783 935.5 c 128,-1,53
 745 914 745 914 718.5 875.5 c 0,54,55
 664 796.321 664 796.321 664 666 c 0,56,57
 664 471.434 664 471.434 783 413.5 c 0,58,59
 821 395 821 395 888.5 395 c 128,-1,60
 956 395 956 395 1034 421 c 1,61,62
 1056.67 388.621 1056.67 388.621 1054 314 c 1,63,64
 1025 303 1025 303 996.5 295 c 0,65,66
 928.812 276 928.812 276 869 276 c 0,41,42
EndSplineSet
EndChar

StartChar: registered
Encoding: 174 174 194
Width: 1707
Flags: HW
LayerCount: 2
Fore
SplineSet
186 670 m 256,0,1
 186 943.884 186 943.884 381.5 1141 c 0,2,3
 502.516 1263.02 502.516 1263.02 676 1312 c 0,4,5
 761 1336 761 1336 853 1336 c 256,6,7
 1031.84 1336 1031.84 1336 1189.5 1245 c 0,8,9
 1338.59 1158.95 1338.59 1158.95 1428.5 1006 c 0,10,11
 1520 850.345 1520 850.345 1520 670 c 256,12,13
 1520 395.116 1520 395.116 1324.5 198 c 0,14,15
 1203.48 75.9836 1203.48 75.9836 1030 27 c 0,16,17
 945 3 945 3 853 3 c 256,18,19
 674.163 3 674.163 3 516.5 94 c 0,20,21
 367.408 180.053 367.408 180.053 277.5 333 c 0,22,23
 186 488.655 186 488.655 186 670 c 256,0,1
276 650 m 0,24,25
 276 550 276 550 321.5 445 c 128,-1,26
 367 340 367 340 445 261.5 c 0,27,28
 612.427 93 612.427 93 853 93 c 256,29,30
 1093.57 93 1093.57 93 1261 261.5 c 0,31,32
 1430 431.583 1430 431.583 1430 670 c 0,33,34
 1430 910.094 1430 910.094 1261 1077.5 c 0,35,36
 1090.9 1246 1090.9 1246 853 1246 c 256,37,38
 615.105 1246 615.105 1246 445 1077.5 c 0,39,40
 276 910.094 276 910.094 276 650 c 0,24,25
838 614 m 2,41,42
 766 614 766 614 727 620 c 1,43,-1
 727 294 l 1,44,-1
 601 294 l 1,45,-1
 601 1054 l 1,46,-1
 892 1054 l 2,47,48
 1012 1054 1012 1054 1071.5 996 c 128,-1,49
 1131 938 1131 938 1131 841 c 0,50,51
 1131 677.765 1131 677.765 973 629 c 1,52,-1
 1156 294 l 1,53,-1
 1014 294 l 1,54,-1
 856 614 l 1,55,-1
 838 614 l 2,41,42
993 838 m 0,56,57
 993 955 993 955 856 955 c 2,58,-1
 727 955 l 1,59,-1
 727 716 l 1,60,61
 760 710 760 710 825 710 c 0,62,63
 993 710 993 710 993 838 c 0,56,57
EndSplineSet
EndChar

StartChar: onequarter
Encoding: 188 188 195
Width: 1532
Flags: HW
LayerCount: 2
Fore
SplineSet
389 1392 m 1,0,1
 369 1384 369 1384 350.5 1376.5 c 0,2,3
 303.043 1357.26 303.043 1357.26 270 1349 c 1,4,5
 227.686 1371.27 227.686 1371.27 224 1445 c 1,6,7
 265 1461 265 1461 300 1476 c 2,8,-1
 361 1503 l 2,9,10
 391 1517 391 1517 416 1530 c 1,11,-1
 510 1530 l 1,12,-1
 510 797 l 1,13,-1
 389 797 l 1,14,-1
 389 1392 l 1,0,1
932 1417 m 1,15,16
 1003.58 1420.41 1003.58 1420.41 1046 1373 c 1,17,-1
 501 10 l 1,18,19
 436.039 6.39108 436.039 6.39108 385 55 c 1,20,-1
 932 1417 l 1,15,16
878 169 m 1,21,22
 834 195.889 834 195.889 834 260 c 1,23,-1
 1121 762 l 1,24,25
 1212.67 732.667 1212.67 732.667 1236 707 c 1,26,-1
 1051 413 l 1,27,-1
 964 262 l 1,28,-1
 1202 262 l 1,29,-1
 1202 441 l 1,30,31
 1245.18 476.082 1245.18 476.082 1323 493 c 1,32,-1
 1323 262 l 1,33,-1
 1440 262 l 1,34,35
 1446.76 204.523 1446.76 204.523 1429 169 c 1,36,-1
 1323 169 l 1,37,-1
 1323 0 l 1,38,-1
 1202 0 l 1,39,-1
 1202 169 l 1,40,-1
 878 169 l 1,21,22
EndSplineSet
EndChar

StartChar: onehalf
Encoding: 189 189 196
Width: 1532
Flags: HW
LayerCount: 2
Fore
SplineSet
389 1392 m 1,0,1
 369 1384 369 1384 350.5 1376.5 c 0,2,3
 303.043 1357.26 303.043 1357.26 270 1349 c 1,4,5
 227.686 1371.27 227.686 1371.27 224 1445 c 1,6,7
 265 1461 265 1461 300 1476 c 2,8,-1
 361 1503 l 2,9,10
 391 1517 391 1517 416 1530 c 1,11,-1
 510 1530 l 1,12,-1
 510 797 l 1,13,-1
 389 797 l 1,14,-1
 389 1392 l 1,0,1
932 1417 m 1,15,16
 1003.58 1420.41 1003.58 1420.41 1046 1373 c 1,17,-1
 501 10 l 1,18,19
 436.039 6.39108 436.039 6.39108 385 55 c 1,20,-1
 932 1417 l 1,15,16
1451 92 m 1,21,22
 1451 23.75 1451 23.75 1438 1 c 1,23,-1
 955 1 l 1,24,-1
 955 90 l 1,25,-1
 1173 316.5 l 1,26,27
 1249.99 398.555 1249.99 398.555 1269 429.778 c 0,28,29
 1298 477.429 1298 477.429 1298 526 c 0,30,31
 1298 650 1298 650 1196 650 c 0,32,33
 1075.78 650 1075.78 650 994 586 c 1,34,35
 960.303 615.485 960.303 615.485 948 677 c 1,36,37
 1064.25 752 1064.25 752 1193 752 c 0,38,39
 1426 752 1426 752 1426 537 c 0,40,41
 1426 449.37 1426 449.37 1343.5 346.5 c 0,42,43
 1303 296 1303 296 1243.5 237 c 2,44,-1
 1108 102 l 1,45,46
 1275 102 1275 102 1450 127 c 1,47,-1
 1450 117 l 1,48,-1
 1451 92 l 1,21,22
EndSplineSet
EndChar

StartChar: threequarters
Encoding: 190 190 197
Width: 1532
Flags: HW
LayerCount: 2
Fore
SplineSet
932 1417 m 1,0,1
 1003.58 1420.41 1003.58 1420.41 1046 1373 c 1,2,-1
 501 10 l 1,3,4
 436.039 6.39108 436.039 6.39108 385 55 c 1,5,-1
 932 1417 l 1,0,1
928 169 m 1,6,7
 884 195.889 884 195.889 884 260 c 1,8,-1
 1171 762 l 1,9,10
 1262.67 732.667 1262.67 732.667 1286 707 c 1,11,-1
 1101 413 l 1,12,-1
 1014 262 l 1,13,-1
 1252 262 l 1,14,-1
 1252 441 l 1,15,16
 1295.18 476.082 1295.18 476.082 1373 493 c 1,17,-1
 1373 262 l 1,18,-1
 1490 262 l 1,19,20
 1496.76 204.523 1496.76 204.523 1479 169 c 1,21,-1
 1373 169 l 1,22,-1
 1373 0 l 1,23,-1
 1252 0 l 1,24,-1
 1252 169 l 1,25,-1
 928 169 l 1,6,7
511 1336 m 0,26,27
 511 1202.38 511 1202.38 375 1170 c 1,28,-1
 375 1156 l 1,29,30
 445 1146 445 1146 489.5 1101.5 c 128,-1,31
 534 1057 534 1057 534 993.5 c 128,-1,32
 534 930 534 930 513 887 c 128,-1,33
 492 844 492 844 454 815.5 c 0,34,35
 377.333 758 377.333 758 247 758 c 0,36,37
 131.917 758 131.917 758 28 801 c 1,38,39
 35.5167 853.617 35.5167 853.617 61 893 c 1,40,41
 141 853 141 853 235 853 c 0,42,43
 308.25 853 308.25 853 342.625 880.5 c 0,44,45
 403 928.8 403 928.8 403 995 c 0,46,47
 403 1039.16 403 1039.16 374.5 1064.58 c 0,48,49
 322.455 1111 322.455 1111 259 1111 c 2,50,-1
 199 1111 l 1,51,52
 193 1135 193 1135 193 1154.5 c 2,53,-1
 193 1181.5 l 2,54,55
 193 1190 193 1190 196 1208 c 1,56,-1
 259 1208 l 2,57,58
 342.286 1208 342.286 1208 372.5 1278.5 c 0,59,60
 383 1303 383 1303 383 1342 c 128,-1,61
 383 1381 383 1381 347 1405.5 c 128,-1,62
 311 1430 311 1430 236.444 1430 c 128,-1,63
 161.889 1430 161.889 1430 88 1395 c 1,64,65
 58.8084 1426.44 58.8084 1426.44 51 1485 c 1,66,67
 160.455 1528 160.455 1528 267.727 1528 c 128,-1,68
 375 1528 375 1528 443 1480.5 c 128,-1,69
 511 1433 511 1433 511 1336 c 0,26,27
EndSplineSet
EndChar

StartChar: ordfeminine
Encoding: 170 170 198
Width: 855
Flags: HW
LayerCount: 2
Fore
SplineSet
536 754 m 1,0,1
 484.824 696 484.824 696 385 696 c 0,2,3
 294.549 696 294.549 696 240 749.5 c 0,4,5
 186 802.462 186 802.462 186 871.731 c 128,-1,6
 186 941 186 941 200.5 977 c 128,-1,7
 215 1013 215 1013 243 1036.5 c 0,8,9
 293.169 1078.61 293.169 1078.61 404 1085 c 2,10,-1
 563 1094 l 1,11,-1
 563 1144 l 2,12,13
 563 1218 563 1218 535 1250.5 c 128,-1,14
 507 1283 507 1283 425 1283 c 128,-1,15
 343 1283 343 1283 257 1240 c 1,16,17
 232.617 1277.68 232.617 1277.68 225 1331 c 1,18,19
 338.077 1380 338.077 1380 425.038 1380 c 128,-1,20
 512 1380 512 1380 558 1366 c 128,-1,21
 604 1352 604 1352 631.5 1324 c 0,22,23
 681 1273.6 681 1273.6 681 1163 c 2,24,-1
 681 806 l 1,25,-1
 746 741 l 1,26,-1
 746 709 l 1,27,-1
 626 709 l 1,28,-1
 576 754 l 1,29,-1
 536 754 l 1,0,1
428 796 m 0,30,31
 509.923 796 509.923 796 563 842 c 1,32,-1
 563 1008 l 1,33,-1
 417 998 l 2,34,35
 307 991.016 307 991.016 307 896 c 0,36,37
 307 814.8 307 814.8 378.5 800.5 c 0,38,39
 401 796 401 796 428 796 c 0,30,31
EndSplineSet
EndChar

StartChar: ordmasculine
Encoding: 186 186 199
Width: 1025
Flags: HW
LayerCount: 2
Fore
SplineSet
292 783.5 m 128,-1,1
 214 871 214 871 214 1039 c 0,2,3
 214 1203.59 214 1203.59 296 1294 c 0,4,5
 374.907 1381 374.907 1381 511.453 1381 c 128,-1,6
 648 1381 648 1381 726 1298 c 128,-1,7
 804 1215 804 1215 804 1049 c 128,-1,8
 804 883.092 804 883.092 725 788.5 c 0,9,10
 647.747 696 647.747 696 508.874 696 c 128,-1,0
 370 696 370 696 292 783.5 c 128,-1,1
339 1039 m 0,11,12
 339 797 339 797 511 797 c 0,13,14
 595.485 797 595.485 797 639.5 870 c 0,15,16
 679 935.512 679 935.512 679 1049.76 c 128,-1,17
 679 1164 679 1164 640 1224.5 c 128,-1,18
 601 1285 601 1285 511 1285 c 0,19,20
 381.889 1285 381.889 1285 349 1137 c 0,21,22
 339 1092 339 1092 339 1039 c 0,11,12
EndSplineSet
EndChar

StartChar: ellipsis
Encoding: 8230 8230 268
Width: 1536
Flags: HW
LayerCount: 2
Fore
SplineSet
1152 128 m 256,0,1
 1152 181 1152 181 1179.5 208.5 c 0,2,3
 1227 256 1227 256 1280 256 c 256,4,5
 1333 256 1333 256 1360.5 228.5 c 0,6,7
 1408 181 1408 181 1408 128 c 256,8,9
 1408 74 1408 74 1380.5 46.5 c 0,10,11
 1333 -1 1333 -1 1280 -1 c 256,12,13
 1227 -1 1227 -1 1199.5 26.5 c 0,14,15
 1152 74 1152 74 1152 128 c 256,0,1
640 128 m 256,16,17
 640 181 640 181 667.5 208.5 c 0,18,19
 715 256 715 256 768 256 c 256,20,21
 821 256 821 256 848.5 228.5 c 0,22,23
 896 181 896 181 896 128 c 256,24,25
 896 74 896 74 868.5 46.5 c 0,26,27
 821 -1 821 -1 768 -1 c 256,28,29
 715 -1 715 -1 687.5 26.5 c 0,30,31
 640 74 640 74 640 128 c 256,16,17
128 128 m 256,32,33
 128 181 128 181 155.5 208.5 c 0,34,35
 203 256 203 256 256 256 c 256,36,37
 309 256 309 256 336.5 228.5 c 0,38,39
 384 181 384 181 384 128 c 256,40,41
 384 74 384 74 356.5 46.5 c 0,42,43
 309 -1 309 -1 256 -1 c 256,44,45
 203 -1 203 -1 175.5 26.5 c 0,46,47
 128 74 128 74 128 128 c 256,32,33
EndSplineSet
EndChar

StartChar: hungarumlaut
Encoding: 733 733 269
Width: 1134
Flags: HW
LayerCount: 2
Fore
SplineSet
730 1204 m 1,0,1
 698.294 1215.53 698.294 1215.53 677.647 1240.76 c 128,-1,2
 657 1266 657 1266 653 1277 c 1,3,-1
 893 1615 l 1,4,5
 940.758 1601.35 940.758 1601.35 1002.5 1534 c 0,6,7
 1019 1516 1019 1516 1026 1502 c 1,8,-1
 730 1204 l 1,0,1
351 1204 m 1,9,10
 319.294 1215.53 319.294 1215.53 298.647 1240.76 c 128,-1,11
 278 1266 278 1266 274 1277 c 1,12,-1
 514 1615 l 1,13,14
 561.758 1601.35 561.758 1601.35 623.5 1534 c 0,15,16
 640 1516 640 1516 647 1502 c 1,17,-1
 351 1204 l 1,9,10
EndSplineSet
EndChar

StartChar: hungarumlaut.cap
Encoding: 65551 -1 270
Width: 685
Flags: HW
LayerCount: 2
Fore
SplineSet
493 1530 m 1,0,1
 461.294 1541.53 461.294 1541.53 440.647 1566.76 c 128,-1,2
 420 1592 420 1592 416 1603 c 1,3,-1
 656 1941 l 1,4,5
 703.758 1927.35 703.758 1927.35 765.5 1860 c 0,6,7
 782 1842 782 1842 789 1828 c 1,8,-1
 493 1530 l 1,0,1
114 1530 m 1,9,10
 82.2941 1541.53 82.2941 1541.53 61.647 1566.76 c 128,-1,11
 41 1592 41 1592 37 1603 c 1,12,-1
 277 1941 l 1,13,14
 324.758 1927.35 324.758 1927.35 386.5 1860 c 0,15,16
 403 1842 403 1842 410 1828 c 1,17,-1
 114 1530 l 1,9,10
EndSplineSet
EndChar

StartChar: ogonek
Encoding: 731 731 271
Width: 1229
Flags: HW
LayerCount: 2
Fore
SplineSet
510 -182 m 1,0,1
 522 -221.429 522 -221.429 522 -271 c 256,2,3
 522 -322 522 -322 510 -366 c 1,4,5
 497.5 -371 497.5 -371 446 -371 c 0,6,7
 318 -371 318 -371 250 -316.5 c 128,-1,8
 182 -262 182 -262 182 -169 c 0,9,10
 182 -102.6 182 -102.6 231 -34 c 0,11,12
 270.8 21.72 270.8 21.72 309 37 c 1,13,-1
 519 39 l 1,14,15
 509 34 509 34 477 21 c 128,-1,16
 445 8 445 8 410 -12 c 0,17,18
 320 -63.4286 320 -63.4286 320 -120 c 0,19,20
 320 -189 320 -189 462 -189 c 0,21,22
 479.667 -189 479.667 -189 510 -182 c 1,0,1
EndSplineSet
EndChar

StartChar: iogonek
Encoding: 303 303 272
Width: 512
Flags: HW
LayerCount: 2
Fore
SplineSet
336 -182 m 1,0,1
 348 -221.429 348 -221.429 348 -271 c 256,2,3
 348 -322 348 -322 336 -366 c 1,4,5
 323.5 -371 323.5 -371 269.75 -371 c 128,-1,6
 216 -371 216 -371 171 -356.5 c 128,-1,7
 126 -342 126 -342 94 -316 c 0,8,9
 27 -261.562 27 -261.562 27 -177.281 c 128,-1,10
 27 -93 27 -93 61.5 -39.5 c 128,-1,11
 96 14 96 14 170 56 c 1,12,-1
 340 0 l 1,13,14
 220.238 0 220.238 0 179.5 -59 c 0,15,16
 165 -80 165 -80 165 -109 c 0,17,18
 165 -189 165 -189 288 -189 c 0,19,20
 305.667 -189 305.667 -189 336 -182 c 1,0,1
261 1225 m 256,21,22
 214 1225 214 1225 189 1250 c 0,23,24
 146 1293 146 1293 146 1341 c 256,25,26
 146 1390.56 146 1390.56 171 1414.78 c 0,27,28
 214.581 1457 214.581 1457 261 1457 c 256,29,30
 337.349 1457 337.349 1457 368.5 1386.5 c 0,31,32
 378 1365 378 1365 378 1341 c 256,33,34
 378 1294.61 378 1294.61 353 1268.81 c 0,35,36
 310.562 1225 310.562 1225 261 1225 c 256,21,22
174 1021 m 1,37,-1
 348 1021 l 1,38,-1
 348 0 l 1,39,-1
 172 0 l 1,40,-1
 174 1021 l 1,37,-1
EndSplineSet
EndChar

StartChar: uogonek
Encoding: 371 371 273
Width: 1195
Flags: HW
LayerCount: 2
Fore
SplineSet
1080 -182 m 1,0,1
 1092 -221.429 1092 -221.429 1092 -271 c 256,2,3
 1092 -322 1092 -322 1080 -366 c 1,4,5
 1067.5 -371 1067.5 -371 1016 -371 c 0,6,7
 889 -371 889 -371 827 -316 c 128,-1,8
 765 -261 765 -261 765 -169 c 0,9,10
 765 -102.6 765 -102.6 814 -34 c 0,11,12
 853.8 21.72 853.8 21.72 892 37 c 1,13,-1
 1091 0 l 1,14,15
 1001 0 1001 0 952 -26.5 c 128,-1,16
 903 -53 903 -53 903 -94.5 c 128,-1,17
 903 -136 903 -136 932.5 -162.5 c 128,-1,18
 962 -189 962 -189 1032 -189 c 0,19,20
 1049.67 -189 1049.67 -189 1080 -182 c 1,0,1
413.5 178 m 128,-1,22
 462 122 462 122 599.553 122 c 128,-1,23
 737.105 122 737.105 122 817 188 c 1,24,-1
 817 1022 l 1,25,-1
 989 1022 l 1,26,-1
 989 154 l 1,27,-1
 1091 50 l 1,28,-1
 1091 0 l 1,29,-1
 919 0 l 1,30,-1
 838 71 l 1,31,-1
 774 71 l 1,32,33
 665.5 -20 665.5 -20 519 -20 c 0,34,35
 361.055 -20 361.055 -20 275 75.5 c 0,36,37
 193 166.5 193 166.5 193 331 c 2,38,-1
 193 1022 l 1,39,-1
 365 1022 l 1,40,-1
 365 350 l 2,41,21
 365 234 365 234 413.5 178 c 128,-1,22
EndSplineSet
EndChar

StartChar: aogonek
Encoding: 261 261 274
Width: 1024
Flags: HW
LayerCount: 2
Fore
SplineSet
962 -182 m 1,0,1
 974 -221.429 974 -221.429 974 -271 c 256,2,3
 974 -322 974 -322 962 -366 c 1,4,5
 949.5 -371 949.5 -371 898 -371 c 0,6,7
 770 -371 770 -371 702 -316.5 c 128,-1,8
 634 -262 634 -262 634 -169 c 0,9,10
 634 -102.6 634 -102.6 683 -34 c 0,11,12
 722.8 21.72 722.8 21.72 761 37 c 1,13,-1
 960 0 l 1,14,15
 772 0 772 0 772 -109 c 0,16,17
 772 -146 772 -146 808 -167.5 c 128,-1,18
 844 -189 844 -189 887.833 -189 c 128,-1,19
 931.667 -189 931.667 -189 962 -182 c 1,0,1
643 71 m 1,20,21
 559 -20 559 -20 404 -20 c 0,22,23
 262.111 -20 262.111 -20 174.5 65.5 c 0,24,25
 88 149.916 88 149.916 88 286 c 0,26,27
 88 517.326 88 517.326 287.5 573 c 0,28,29
 352 591 352 591 434 596 c 2,30,-1
 686 610 l 1,31,-1
 686 706 l 2,32,33
 686 824.137 686 824.137 638.5 873.5 c 0,34,35
 588.943 925 588.943 925 455.027 925 c 128,-1,36
 321.111 925 321.111 925 202 858 c 1,37,38
 162.103 911.978 162.103 911.978 151 986 c 1,39,40
 314.429 1064 314.429 1064 451.714 1064 c 128,-1,41
 589 1064 589 1064 662 1041.5 c 128,-1,42
 735 1019 735 1019 778.5 975.5 c 0,43,44
 858 896 858 896 858 720 c 2,45,-1
 858 154 l 1,46,-1
 960 50 l 1,47,-1
 960 0 l 1,48,-1
 787 0 l 1,49,-1
 707 71 l 1,50,-1
 643 71 l 1,20,21
473 122 m 0,51,52
 602.571 122 602.571 122 686 195 c 1,53,-1
 686 489 l 1,54,-1
 455 474 l 1,55,56
 264 463.582 264 463.582 264 296 c 0,57,58
 264 155.662 264 155.662 387.5 130 c 0,59,60
 426 122 426 122 473 122 c 0,51,52
EndSplineSet
EndChar

StartChar: eogonek
Encoding: 281 281 275
Width: 1196
Flags: HW
LayerCount: 2
Fore
SplineSet
938 -182 m 1,0,1
 950 -221.429 950 -221.429 950 -271 c 256,2,3
 950 -322 950 -322 938 -366 c 1,4,5
 925.5 -371 925.5 -371 874 -371 c 0,6,7
 746 -371 746 -371 678 -316.5 c 128,-1,8
 610 -262 610 -262 610 -169 c 0,9,10
 610 -102.6 610 -102.6 659 -34 c 0,11,12
 698.8 21.72 698.8 21.72 737 37 c 1,13,-1
 947 39 l 1,14,15
 937 34 937 34 905 21 c 128,-1,16
 873 8 873 8 838 -12 c 0,17,18
 748 -63.4286 748 -63.4286 748 -120 c 0,19,20
 748 -189 748 -189 890 -189 c 0,21,22
 907.667 -189 907.667 -189 938 -182 c 1,0,1
947 39 m 1,23,24
 818.588 -20 818.588 -20 677.294 -20 c 128,-1,25
 536 -20 536 -20 442.5 13.5 c 128,-1,26
 349 47 349 47 284.5 114 c 0,27,28
 153 250.597 153 250.597 153 513 c 256,29,30
 153 771.667 153 771.667 286 920.5 c 0,31,32
 414.234 1064 414.234 1064 627 1064 c 0,33,34
 818 1064 818 1064 927.5 954.5 c 0,35,36
 1036 846 1036 846 1036 658 c 0,37,38
 1036 573 1036 573 1020 509 c 1,39,-1
 335 509 l 1,40,41
 335 126 335 126 655 126 c 0,42,43
 798.067 126 798.067 126 909 178 c 1,44,45
 934.957 115.269 934.957 115.269 947 39 c 1,23,24
868 635 m 1,46,47
 876.317 759.751 876.317 759.751 811.5 840 c 0,48,49
 742.846 925 742.846 925 627 925 c 0,50,51
 512.895 925 512.895 925 435 845 c 128,-1,52
 356.987 764.878 356.987 764.878 343 635 c 1,53,-1
 868 635 l 1,46,47
EndSplineSet
EndChar

StartChar: Uogonek
Encoding: 370 370 276
Width: 1365
Flags: HW
LayerCount: 2
Fore
SplineSet
1116 -182 m 1,0,1
 1128 -221.429 1128 -221.429 1128 -271 c 256,2,3
 1128 -322 1128 -322 1116 -366 c 1,4,5
 1078.5 -371 1078.5 -371 1016 -371 c 0,6,7
 889 -371 889 -371 827 -316 c 128,-1,8
 765 -261 765 -261 765 -169 c 0,9,10
 765 -96.2727 765 -96.2727 819 -30 c 0,11,12
 859.857 20.1428 859.857 20.1428 902 37 c 1,13,-1
 1044 88 l 1,14,-1
 1001.5 51.5 l 1,15,16
 903 -30.9184 903 -30.9184 903 -99 c 0,17,18
 903 -136 903 -136 932.5 -162.5 c 128,-1,19
 962 -189 962 -189 1023.83 -189 c 128,-1,20
 1085.67 -189 1085.67 -189 1116 -182 c 1,0,1
1003 570 m 1,21,-1
 1001 973 l 2,22,23
 1000 1149 1000 1149 999 1358 c 1,24,-1
 1181 1358 l 1,25,-1
 1181 527 l 2,26,27
 1181 246.483 1181 246.483 1073 118 c 0,28,29
 957 -20 957 -20 685 -20 c 256,30,31
 412.196 -20 412.196 -20 293.5 120 c 0,32,33
 184 249.154 184 249.154 184 527 c 2,34,-1
 184 612 l 1,35,-1
 186 1007 l 2,36,37
 187 1171 187 1171 188 1358 c 1,38,-1
 371 1358 l 1,39,-1
 371 499 l 2,40,41
 371 238.475 371 238.475 538 167.5 c 0,42,43
 598 142 598 142 685 142 c 256,44,45
 1003 142 1003 142 1003 499 c 2,46,-1
 1003 570 l 1,21,-1
EndSplineSet
EndChar

StartChar: Iogonek
Encoding: 302 302 277
Width: 513
Flags: HW
LayerCount: 2
Fore
SplineSet
344 -182 m 1,0,1
 356 -221.429 356 -221.429 356 -271 c 256,2,3
 356 -322 356 -322 344 -366 c 1,4,5
 331.5 -371 331.5 -371 277.75 -371 c 128,-1,6
 224 -371 224 -371 179 -356.5 c 128,-1,7
 134 -342 134 -342 102 -316 c 0,8,9
 35 -261.562 35 -261.562 35 -169 c 0,10,11
 35 -54.9434 35 -54.9434 121.5 18.5 c 0,12,13
 148 41 148 41 178 56 c 1,14,-1
 348 0 l 1,15,16
 228.238 0 228.238 0 187.5 -59 c 0,17,18
 173 -80 173 -80 173 -109 c 0,19,20
 173 -189 173 -189 296 -189 c 0,21,22
 313.667 -189 313.667 -189 344 -182 c 1,0,1
165 1358 m 1,23,-1
 348 1358 l 1,24,-1
 348 0 l 1,25,-1
 165 0 l 1,26,-1
 165 1358 l 1,23,-1
EndSplineSet
EndChar

StartChar: Eogonek
Encoding: 280 280 278
Width: 1025
Flags: HW
LayerCount: 2
Fore
SplineSet
939 -182 m 1,0,1
 951 -221.429 951 -221.429 951 -271 c 256,2,3
 951 -322 951 -322 939 -366 c 1,4,5
 926.5 -371 926.5 -371 875 -371 c 0,6,7
 747 -371 747 -371 679 -316.5 c 128,-1,8
 611 -262 611 -262 611 -169 c 0,9,10
 611 -102 611 -102 641 -54 c 0,11,12
 688.833 22.5333 688.833 22.5333 725 37 c 1,13,-1
 924 0 l 1,14,15
 804.238 0 804.238 0 763.5 -59 c 0,16,17
 749 -80 749 -80 749 -113 c 128,-1,18
 749 -146 749 -146 785 -167.5 c 128,-1,19
 821 -189 821 -189 864.833 -189 c 128,-1,20
 908.667 -189 908.667 -189 939 -182 c 1,0,1
939 107 m 1,21,22
 939 45 939 45 927 0 c 1,23,-1
 182 0 l 1,24,-1
 182 1358 l 1,25,-1
 929 1358 l 1,26,27
 929 1353 929 1353 930 1348 c 2,28,-1
 931 1321 l 1,29,30
 931 1251 931 1251 909 1207 c 1,31,-1
 727 1213 l 1,32,33
 487 1219 487 1219 365 1219 c 1,34,-1
 365 764 l 1,35,36
 392 764 392 764 428.5 764.5 c 128,-1,37
 465 765 465 765 506 765.5 c 2,38,-1
 590.5 766.5 l 2,39,40
 634 767 634 767 702.5 768.5 c 128,-1,41
 771 770 771 770 876 772 c 1,42,43
 876 767 876 767 877 760 c 2,44,-1
 878 728 l 1,45,46
 878 670.5 878 670.5 865 625 c 1,47,48
 761 626 761 626 693 627 c 128,-1,49
 625 628 625 628 582.5 628.5 c 2,50,-1
 500.5 629.5 l 2,51,52
 461 630 461 630 425.5 630.5 c 128,-1,53
 390 631 390 631 365 631 c 1,54,-1
 365 138 l 1,55,56
 457 138 457 138 530.5 139.5 c 2,57,-1
 651.5 142 l 2,58,59
 739.349 143.849 739.349 143.849 937 152 c 1,60,61
 937 147 937 147 938 140 c 2,62,-1
 939 107 l 1,21,22
EndSplineSet
EndChar

StartChar: Aogonek
Encoding: 260 260 279
Width: 1192
Flags: HW
LayerCount: 2
Fore
SplineSet
1149 -182 m 1,0,1
 1161 -221.429 1161 -221.429 1161 -271 c 256,2,3
 1161 -322 1161 -322 1149 -366 c 1,4,5
 1136.5 -371 1136.5 -371 1079.25 -371 c 128,-1,6
 1022 -371 1022 -371 972.5 -353.5 c 128,-1,7
 923 -336 923 -336 889.5 -306 c 0,8,9
 821 -244.657 821 -244.657 821 -149 c 0,10,11
 821 -81.6585 821 -81.6585 870.5 -22.5 c 0,12,13
 907.853 22.1411 907.853 22.1411 950 39 c 1,14,-1
 1147 0 l 1,15,16
 959 0 959 0 959 -109 c 0,17,18
 959 -146 959 -146 995 -167.5 c 128,-1,19
 1031 -189 1031 -189 1074.83 -189 c 128,-1,20
 1118.67 -189 1118.67 -189 1149 -182 c 1,0,1
440 1358 m 1,21,-1
 748 1358 l 1,22,-1
 1147 0 l 1,23,-1
 961 0 l 1,24,-1
 836 436 l 1,25,-1
 346 436 l 1,26,-1
 221 0 l 1,27,-1
 41 0 l 1,28,-1
 440 1358 l 1,21,-1
791 588 m 1,29,-1
 602 1242 l 1,30,-1
 578 1242 l 1,31,-1
 389 588 l 1,32,-1
 791 588 l 1,29,-1
EndSplineSet
EndChar

StartChar: Dcroat
Encoding: 272 272 280
Width: 1362
Flags: HW
LayerCount: 2
Fore
SplineSet
182 1358 m 1,0,1
 407 1368 407 1368 562.5 1368 c 128,-1,2
 718 1368 718 1368 836.5 1325.5 c 128,-1,3
 955 1283 955 1283 1035.5 1197.5 c 0,4,5
 1200 1022.78 1200 1022.78 1200 685 c 256,6,7
 1200 348.065 1200 348.065 1025.5 171.5 c 0,8,9
 856.006 1.62933e-05 856.006 1.62933e-05 551 0 c 2,10,-1
 182 0 l 1,11,-1
 182 631 l 1,12,-1
 165 631 l 1,13,-1
 53 629 l 1,14,-1
 53 762 l 1,15,-1
 165 764 l 1,16,-1
 182 764 l 1,17,-1
 182 1358 l 1,0,1
665 625 m 1,18,19
 581 625 581 625 365 629 c 1,20,-1
 365 152 l 1,21,-1
 580 152 l 2,22,23
 775.361 152 775.361 152 893 306 c 0,24,25
 1006 453.927 1006 453.927 1006 685 c 0,26,27
 1006 932.236 1006 932.236 893 1074 c 0,28,29
 779.014 1217 779.014 1217 580 1217 c 0,30,31
 457 1217 457 1217 365 1209 c 1,32,-1
 365 766 l 1,33,-1
 477 768 l 2,34,35
 532 769 532 769 580.5 770 c 2,36,-1
 676 772 l 1,37,38
 676 767 676 767 677 760 c 2,39,-1
 678 728 l 1,40,41
 678 670.5 678 670.5 665 625 c 1,18,19
EndSplineSet
EndChar

StartChar: tbar
Encoding: 359 359 379
Width: 852
Flags: HW
LayerCount: 2
Fore
SplineSet
102 511 m 1,0,1
 93 545 93 545 93 580 c 128,-1,2
 93 615 93 615 102 647 c 1,3,-1
 702 647 l 1,4,5
 708 620 708 620 708 583.5 c 128,-1,6
 708 547 708 547 696 511 c 1,7,-1
 102 511 l 1,0,1
774 49 m 1,8,9
 677.4 -20 677.4 -20 515 -20 c 0,10,11
 302.5 -20 302.5 -20 260 150 c 0,12,13
 246 206 246 206 246 280 c 2,14,-1
 246 871 l 1,15,-1
 101 871 l 1,16,17
 97 907 97 907 97 943 c 256,18,19
 97 974 97 974 101 1014 c 1,20,-1
 246 1014 l 1,21,-1
 246 1196 l 1,22,-1
 354 1318 l 1,23,-1
 418 1318 l 1,24,-1
 418 1014 l 1,25,-1
 720 1014 l 1,26,27
 723 993 723 993 723 954 c 128,-1,28
 723 915 723 915 701 871 c 1,29,-1
 418 871 l 1,30,-1
 418 280 l 2,31,32
 418 199 418 199 449 162.5 c 128,-1,33
 480 126 480 126 557.571 126 c 128,-1,34
 635.143 126 635.143 126 728 176 c 1,35,36
 763.056 129.259 763.056 129.259 774 49 c 1,8,9
EndSplineSet
EndChar

StartChar: breve
Encoding: 728 728 381
Width: 680
Flags: HW
LayerCount: 2
Fore
SplineSet
529 1531 m 1,0,1
 564 1545 564 1545 600 1545 c 128,-1,2
 636 1545 636 1545 668 1529 c 1,3,4
 668 1359.56 668 1359.56 567.5 1269 c 0,5,6
 479.829 1190 479.829 1190 340 1190 c 256,7,8
 118.562 1190 118.562 1190 39.5 1374 c 0,9,10
 12 1438 12 1438 12 1529 c 1,11,12
 48 1545 48 1545 82 1545 c 128,-1,13
 116 1545 116 1545 151 1531 c 1,14,15
 151 1437 151 1437 201 1389.5 c 128,-1,16
 251 1342 251 1342 340 1342 c 256,17,18
 429 1342 429 1342 479 1389.5 c 128,-1,19
 529 1437 529 1437 529 1531 c 1,0,1
EndSplineSet
EndChar

StartChar: breve.cap
Encoding: 65552 -1 382
Width: 685
Flags: HW
LayerCount: 2
Fore
SplineSet
531 1867 m 1,0,1
 566 1881 566 1881 602 1881 c 128,-1,2
 638 1881 638 1881 670 1865 c 1,3,4
 670 1695.56 670 1695.56 569.5 1605 c 0,5,6
 481.829 1526 481.829 1526 342 1526 c 256,7,8
 120.562 1526 120.562 1526 41.5 1710 c 0,9,10
 14 1774 14 1774 14 1865 c 1,11,12
 50 1881 50 1881 84 1881 c 128,-1,13
 118 1881 118 1881 153 1867 c 1,14,15
 153 1781 153 1781 203 1729.5 c 128,-1,16
 253 1678 253 1678 342 1678 c 256,17,18
 431 1678 431 1678 481 1729.5 c 128,-1,19
 531 1781 531 1781 531 1867 c 1,0,1
EndSplineSet
EndChar

StartChar: notequal
Encoding: 8800 8800 395
Width: 1362
Flags: HW
LayerCount: 2
Fore
SplineSet
897 1176 m 1,0,1
 968.582 1179.41 968.582 1179.41 1011 1132 c 1,2,-1
 466 -231 l 1,3,4
 401.039 -234.609 401.039 -234.609 350 -186 c 1,5,-1
 897 1176 l 1,0,1
256 841 m 1,6,-1
 1105 841 l 1,7,-1
 1105 688 l 1,8,-1
 256 688 l 1,9,-1
 256 841 l 1,6,-1
256 323 m 1,10,-1
 1105 323 l 1,11,-1
 1105 170 l 1,12,-1
 256 170 l 1,13,-1
 256 323 l 1,10,-1
EndSplineSet
EndChar

StartChar: minus
Encoding: 8722 8722 397
Width: 1535
Flags: HW
LayerCount: 2
Fore
SplineSet
222 676 m 1,0,-1
 1313 676 l 1,1,-1
 1313 523 l 1,2,-1
 222 523 l 1,3,-1
 222 676 l 1,0,-1
EndSplineSet
EndChar

StartChar: partialdiff
Encoding: 8706 8706 398
Width: 1226
Flags: HW
LayerCount: 2
Fore
SplineSet
184 1513 m 1,0,1
 330.667 1601 330.667 1601 479.833 1601 c 128,-1,2
 629 1601 629 1601 733.5 1553.5 c 128,-1,3
 838 1506 838 1506 912 1416.5 c 0,4,5
 1058.2 1239.68 1058.2 1239.68 1089 907 c 0,6,7
 1094 858.667 1094 858.667 1094 765.333 c 128,-1,8
 1094 672 1094 672 1070.5 535.5 c 128,-1,9
 1047 399 1047 399 997.5 293 c 128,-1,10
 948 187 948 187 878.5 119 c 0,11,12
 742.566 -14 742.566 -14 536 -14 c 0,13,14
 323.907 -14 323.907 -14 199 107.5 c 0,15,16
 76.2458 226.906 76.2458 226.906 80 424 c 1,17,18
 90.237 659.452 90.237 659.452 234.5 808 c 0,19,20
 371.433 949 371.433 949 577.155 949 c 128,-1,21
 782.877 949 782.877 949 918 812 c 1,22,23
 898.196 1267.5 898.196 1267.5 665 1412.5 c 0,24,25
 587 1461 587 1461 477.094 1461 c 128,-1,26
 367.188 1461 367.188 1461 229 1394 c 1,27,-1
 184 1513 l 1,0,1
912 661 m 1,28,29
 772.88 802 772.88 802 606 802 c 0,30,31
 410.215 802 410.215 802 316 633.5 c 0,32,33
 262.836 538.419 262.836 538.419 267 426 c 1,34,35
 267 298.738 267 298.738 330.5 216.5 c 0,36,37
 395.018 132.943 395.018 132.943 502 127 c 1,38,39
 822.372 105.246 822.372 105.246 899 563 c 0,40,41
 903 587 903 587 906 611.5 c 2,42,-1
 912 661 l 1,28,29
EndSplineSet
EndChar

StartChar: summation
Encoding: 8721 8721 399
Width: 1196
Flags: HW
LayerCount: 2
Fore
SplineSet
994 -62 m 1,0,1
 994 -120 994 -120 969 -180 c 1,2,-1
 58 -180 l 1,3,-1
 58 -28 l 1,4,-1
 591 653 l 1,5,-1
 88 1382 l 1,6,-1
 88 1533 l 1,7,-1
 960 1533 l 1,8,9
 971 1494.5 971 1494.5 971 1463 c 256,10,11
 971 1426 971 1426 960 1382 c 1,12,13
 863 1384 863 1384 761 1386.5 c 0,14,15
 536.6 1392 536.6 1392 289 1392 c 1,16,-1
 794 650 l 1,17,-1
 263 -40 l 1,18,19
 588.5 -40 588.5 -40 991 -26 c 1,20,-1
 994 -62 l 1,0,1
EndSplineSet
EndChar

StartChar: product
Encoding: 8719 8719 400
Width: 1537
Flags: HW
LayerCount: 2
Fore
SplineSet
682 1356 m 1,0,-1
 509 1355 l 1,1,-1
 509 -203 l 1,2,-1
 332 -203 l 1,3,-1
 332 1352 l 1,4,5
 132 1348 132 1348 93 1348 c 1,6,7
 89 1380 89 1380 89 1418.9 c 128,-1,8
 89 1457.8 89 1457.8 98 1501 c 1,9,-1
 1442 1501 l 1,10,-1
 1445 1449 l 1,11,12
 1445 1392.25 1445 1392.25 1432 1350 c 1,13,14
 1402 1351 1402 1351 1367.5 1351 c 2,15,-1
 1291 1351 l 2,16,17
 1249 1351 1249 1351 1199 1352 c 1,18,-1
 1199 -203 l 1,19,-1
 1024 -203 l 1,20,-1
 1024 1354 l 1,21,22
 976 1354 976 1354 928 1354.5 c 2,23,-1
 835.5 1355.5 l 2,24,25
 791 1356 791 1356 752 1356 c 2,26,-1
 682 1356 l 1,0,-1
EndSplineSet
EndChar

StartChar: pi
Encoding: 960 960 401
Width: 1356
Flags: HW
LayerCount: 2
Fore
SplineSet
560 1009 m 1,0,1
 539.497 311.909 539.497 311.909 393 -20 c 1,2,3
 268.031 -9.4094 268.031 -9.4094 236 49 c 1,4,5
 346.055 240.89 346.055 240.89 378.5 665.5 c 0,6,7
 390 816 390 816 399 1014 c 1,8,9
 291 1014 291 1014 191 964 c 1,10,11
 160.869 1017.31 160.869 1017.31 153 1096 c 1,12,13
 256.25 1155 256.25 1155 414 1155 c 2,14,-1
 1208 1157 l 1,15,-1
 1199 1009 l 1,16,-1
 1021 1009 l 1,17,-1
 1021 336 l 2,18,19
 1021 88 1021 88 1053 40 c 1,20,21
 981.644 -11.2871 981.644 -11.2871 898 -20 c 1,22,23
 849 63.3 849 63.3 849 336 c 2,24,-1
 849 1009 l 1,25,-1
 560 1009 l 1,0,1
EndSplineSet
EndChar

StartChar: integral
Encoding: 8747 8747 402
Width: 854
Flags: HW
LayerCount: 2
Fore
SplineSet
678 1735 m 0,0,1
 482 1735 482 1735 482 1302 c 0,2,3
 482 1163.79 482 1163.79 509 932.897 c 128,-1,4
 536 702 536 702 548.5 579 c 128,-1,5
 561 456 561 456 561 368 c 128,-1,6
 561 280 561 280 558 205.5 c 128,-1,7
 555 131 555 131 544 55.5 c 128,-1,8
 533 -20 533 -20 510.5 -91 c 128,-1,9
 488 -162 488 -162 449.5 -217 c 0,10,11
 364.1 -339 364.1 -339 213 -339 c 0,12,13
 114.5 -339 114.5 -339 76 -317 c 1,14,15
 72 -300 72 -300 72 -265.5 c 128,-1,16
 72 -231 72 -231 100 -184 c 1,17,18
 143.429 -200 143.429 -200 186.214 -200 c 128,-1,19
 229 -200 229 -200 262.5 -176 c 128,-1,20
 296 -152 296 -152 318.5 -111.5 c 128,-1,21
 341 -71 341 -71 354.5 -18 c 128,-1,22
 368 35 368 35 375 93.5 c 0,23,24
 386 185.429 386 185.429 386 310.714 c 128,-1,25
 386 436 386 436 374.5 557 c 128,-1,26
 363 678 363 678 348.5 800 c 0,27,28
 311 1115.52 311 1115.52 311 1267 c 0,29,30
 311 1870 311 1870 671 1870 c 0,31,32
 738.571 1870 738.571 1870 775 1855 c 1,33,34
 782 1833 782 1833 782 1809 c 0,35,36
 782 1758.84 782 1758.84 747 1722 c 1,37,38
 701.5 1735 701.5 1735 678 1735 c 0,0,1
EndSplineSet
EndChar

StartChar: Omega
Encoding: 937 937 403
AltUni2: 002126.ffffffff.0
Width: 1534
Flags: HW
LayerCount: 2
Fore
SplineSet
136 0 m 1,0,1
 113 37.7857 113 37.7857 113 123 c 2,2,-1
 113 142.5 l 2,3,4
 113 160 113 160 115 172 c 1,5,6
 352.545 133 352.545 133 518 133 c 1,7,-1
 518 153 l 1,8,9
 362.013 204.024 362.013 204.024 256.5 360 c 0,10,11
 136 538.13 136 538.13 136 834 c 0,12,13
 136 1167.79 136 1167.79 331.5 1365.5 c 0,14,15
 508.994 1545 508.994 1545 766 1545 c 0,16,17
 1020.03 1545 1020.03 1545 1198 1370 c 0,18,19
 1397 1174.32 1397 1174.32 1397 834 c 0,20,21
 1397 467 1397 467 1205 275 c 0,22,23
 1121 190 1121 190 1014 153 c 1,24,-1
 1014 133 l 1,25,26
 1179.45 133 1179.45 133 1417 172 c 1,27,28
 1417 166 1417 166 1418 158 c 2,29,-1
 1419 123 l 1,30,31
 1419 37.7857 1419 37.7857 1396 0 c 1,32,-1
 884 0 l 1,33,-1
 884 211 l 1,34,35
 1130.38 287.576 1130.38 287.576 1194.5 630.5 c 0,36,37
 1214 734.783 1214 734.783 1214 853.391 c 128,-1,38
 1214 972 1214 972 1176 1076.5 c 128,-1,39
 1138 1181 1138 1181 1075.5 1252 c 0,40,41
 949.62 1395 949.62 1395 766 1395 c 0,42,43
 586.13 1395 586.13 1395 460.5 1257.5 c 0,44,45
 319 1102.63 319 1102.63 319 834 c 0,46,47
 319 452.112 319 452.112 521.5 278 c 0,48,49
 575 232 575 232 649 209 c 1,50,-1
 648 0 l 1,51,-1
 136 0 l 1,0,1
EndSplineSet
EndChar

StartChar: radical
Encoding: 8730 8730 404
Width: 1366
Flags: HW
LayerCount: 2
Fore
SplineSet
84 785 m 256,0,1
 84 818 84 818 88 850 c 1,2,-1
 428 850 l 1,3,-1
 671 219 l 1,4,-1
 701 120 l 1,5,-1
 729 219 l 1,6,-1
 1182 1700 l 1,7,-1
 1348 1700 l 1,8,-1
 806 0 l 1,9,-1
 595 0 l 1,10,-1
 298 715 l 1,11,-1
 88 715 l 1,12,13
 84 755 84 755 84 785 c 256,0,1
EndSplineSet
EndChar

StartChar: Delta
Encoding: 916 916 405
AltUni2: 002206.ffffffff.0
Width: 1532
Flags: HW
LayerCount: 2
Fore
SplineSet
172 137 m 1,0,-1
 682 1530 l 1,1,-1
 849 1530 l 1,2,-1
 1359 137 l 1,3,-1
 1359 5 l 1,4,-1
 172 5 l 1,5,-1
 172 137 l 1,0,-1
1192 137 m 1,6,-1
 794 1258 l 1,7,-1
 765 1371 l 1,8,-1
 735 1255 l 1,9,-1
 339 137 l 1,10,-1
 1192 137 l 1,6,-1
EndSplineSet
EndChar

StartChar: fraction
Encoding: 8260 8260 407
Width: 1026
Flags: HW
LayerCount: 2
Fore
SplineSet
729 1417 m 1,0,1
 800.582 1420.41 800.582 1420.41 843 1373 c 1,2,-1
 298 10 l 1,3,4
 233.039 6.39108 233.039 6.39108 182 55 c 1,5,-1
 729 1417 l 1,0,1
EndSplineSet
EndChar

StartChar: perthousand
Encoding: 8240 8240 408
Width: 2218
Flags: HW
LayerCount: 2
Fore
SplineSet
161 1088 m 0,0,1
 161 1393 161 1393 418 1393 c 0,2,3
 553 1393 553 1393 612 1318.5 c 128,-1,4
 671 1244 671 1244 671 1096.5 c 0,5,6
 671 783 671 783 418 783 c 0,7,8
 284 783 284 783 222.5 861.5 c 128,-1,9
 161 940 161 940 161 1088 c 0,0,1
1099 1390 m 1,10,11
 1179.22 1372.56 1179.22 1372.56 1213 1318 c 1,12,-1
 425 -18 l 1,13,14
 355.206 -4.04124 355.206 -4.04124 309 55 c 1,15,-1
 1099 1390 l 1,10,11
352.5 915 m 128,-1,17
 378 901 378 901 418.5 901 c 128,-1,18
 459 901 459 901 484 916.5 c 128,-1,19
 509 932 509 932 522.5 958.5 c 0,20,21
 544 1000.7 544 1000.7 544 1068.35 c 128,-1,22
 544 1136 544 1136 540 1169.5 c 128,-1,23
 536 1203 536 1203 522.5 1226.5 c 0,24,25
 494.638 1275 494.638 1275 418 1275 c 0,26,27
 309.435 1275 309.435 1275 291.5 1162.5 c 0,28,29
 286 1128 286 1128 286 1087.5 c 128,-1,30
 286 1047 286 1047 291.5 1013 c 128,-1,31
 297 979 297 979 312 954 c 128,-1,16
 327 929 327 929 352.5 915 c 128,-1,17
1531 285 m 0,32,33
 1531 590 1531 590 1788 590 c 0,34,35
 1923 590 1923 590 1982 515.5 c 128,-1,36
 2041 441 2041 441 2041 293.5 c 0,37,38
 2041 -20 2041 -20 1788 -20 c 0,39,40
 1654 -20 1654 -20 1592.5 58.5 c 128,-1,41
 1531 137 1531 137 1531 285 c 0,32,33
861 285 m 0,42,43
 861 590 861 590 1118 590 c 0,44,45
 1253 590 1253 590 1312 515.5 c 128,-1,46
 1371 441 1371 441 1371 293.5 c 0,47,48
 1371 -20 1371 -20 1118 -20 c 0,49,50
 984 -20 984 -20 922.5 58.5 c 128,-1,51
 861 137 861 137 861 285 c 0,42,43
1661.5 359.5 m 0,52,53
 1656 325 1656 325 1656 284.5 c 128,-1,54
 1656 244 1656 244 1661.5 210 c 128,-1,55
 1667 176 1667 176 1682 151 c 0,56,57
 1713.8 97.9999 1713.8 97.9999 1788 98 c 0,58,59
 1896.26 98 1896.26 98 1910 216.5 c 0,60,61
 1914 251 1914 251 1914 292 c 128,-1,62
 1914 333 1914 333 1910 366.5 c 128,-1,63
 1906 400 1906 400 1892.5 423.5 c 0,64,65
 1864.64 472 1864.64 472 1788 472 c 0,66,67
 1679.43 472 1679.43 472 1661.5 359.5 c 0,52,53
991.5 359.5 m 0,68,69
 986 325 986 325 986 284.5 c 128,-1,70
 986 244 986 244 991.5 210 c 128,-1,71
 997 176 997 176 1012 151 c 0,72,73
 1043.8 97.9999 1043.8 97.9999 1118 98 c 0,74,75
 1226.26 98 1226.26 98 1240 216.5 c 0,76,77
 1244 251 1244 251 1244 292 c 128,-1,78
 1244 333 1244 333 1240 366.5 c 128,-1,79
 1236 400 1236 400 1222.5 423.5 c 0,80,81
 1194.64 472 1194.64 472 1118 472 c 0,82,83
 1009.43 472 1009.43 472 991.5 359.5 c 0,68,69
EndSplineSet
EndChar

StartChar: dagger
Encoding: 8224 8224 409
Width: 854
Flags: HW
LayerCount: 2
Fore
SplineSet
698 1014 m 1,0,1
 701 993 701 993 701 954 c 128,-1,2
 701 915 701 915 679 871 c 1,3,-1
 514 871 l 1,4,-1
 514 -340 l 1,5,-1
 342 -340 l 1,6,-1
 342 871 l 1,7,-1
 157 871 l 1,8,9
 153 907 153 907 153 943 c 256,10,11
 153 974 153 974 157 1014 c 1,12,-1
 342 1014 l 1,13,-1
 342 1530 l 1,14,-1
 514 1530 l 1,15,-1
 514 1014 l 1,16,-1
 698 1014 l 1,0,1
EndSplineSet
EndChar

StartChar: daggerdbl
Encoding: 8225 8225 410
Width: 854
Flags: HW
LayerCount: 2
Fore
SplineSet
698 316 m 1,0,1
 701 295 701 295 701 256 c 128,-1,2
 701 217 701 217 679 173 c 1,3,-1
 514 173 l 1,4,-1
 514 -342 l 1,5,-1
 342 -342 l 1,6,-1
 342 173 l 1,7,-1
 157 173 l 1,8,9
 153 209 153 209 153 245 c 256,10,11
 153 276 153 276 157 316 c 1,12,-1
 342 316 l 1,13,-1
 342 871 l 1,14,-1
 157 871 l 1,15,16
 153 907 153 907 153 943 c 256,17,18
 153 974 153 974 157 1014 c 1,19,-1
 342 1014 l 1,20,-1
 342 1530 l 1,21,-1
 514 1530 l 1,22,-1
 514 1014 l 1,23,-1
 698 1014 l 1,24,25
 701 993 701 993 701 954 c 128,-1,26
 701 915 701 915 679 871 c 1,27,-1
 514 871 l 1,28,-1
 514 316 l 1,29,-1
 698 316 l 1,0,1
EndSplineSet
EndChar

StartChar: dcaron
Encoding: 271 271 411
Width: 1708
Flags: HW
LayerCount: 2
Fore
SplineSet
1164 1023 m 1,0,1
 1193 1128.12 1193 1128.12 1193 1234.88 c 128,-1,2
 1193 1341.64 1193 1341.64 1168 1422 c 1,3,4
 1169 1422 1169 1422 1178 1425.5 c 128,-1,5
 1187 1429 1187 1429 1201 1433 c 0,6,7
 1236 1443 1236 1443 1264 1443 c 0,8,9
 1320.15 1443 1320.15 1443 1354 1421 c 1,10,11
 1364 1369 1364 1369 1364 1310.5 c 0,12,13
 1364 1159.27 1364 1159.27 1283 1012 c 1,14,15
 1258.5 1005 1258.5 1005 1237.25 1005 c 0,16,17
 1191.82 1005 1191.82 1005 1164 1023 c 1,0,1
798 71 m 1,18,19
 710.5 -20 710.5 -20 558 -20 c 0,20,21
 388.56 -20 388.56 -20 269 102.5 c 0,22,23
 131 243.893 131 243.893 131 493 c 0,24,25
 131 765.64 131 765.64 282.5 921.5 c 0,26,27
 421.014 1064 421.014 1064 638 1064 c 0,28,29
 770 1064 770 1064 840 1044 c 1,30,-1
 840 1422 l 1,31,-1
 1013 1422 l 1,32,-1
 1013 154 l 1,33,-1
 1114 50 l 1,34,-1
 1114 0 l 1,35,-1
 941 0 l 1,36,-1
 860 71 l 1,37,-1
 798 71 l 1,18,19
840 913 m 1,38,39
 790 933 790 933 697 933 c 128,-1,40
 604 933 604 933 533 903 c 128,-1,41
 462 873 462 873 413 816.5 c 0,42,43
 313 701.194 313 701.194 313 493 c 0,44,45
 313 122 313 122 644 122 c 0,46,47
 744 122 744 122 840 186 c 1,48,-1
 840 913 l 1,38,39
EndSplineSet
EndChar

StartChar: lcaron
Encoding: 318 318 412
Width: 512
Flags: HW
LayerCount: 2
Fore
SplineSet
482 1023 m 1,0,1
 511 1128.12 511 1128.12 511 1234.88 c 128,-1,2
 511 1341.64 511 1341.64 486 1422 c 1,3,4
 487 1422 487 1422 496 1425.5 c 128,-1,5
 505 1429 505 1429 519 1433 c 0,6,7
 554 1443 554 1443 582 1443 c 0,8,9
 638.154 1443 638.154 1443 672 1421 c 1,10,11
 682 1369 682 1369 682 1310.5 c 0,12,13
 682 1159.27 682 1159.27 601 1012 c 1,14,15
 576.5 1005 576.5 1005 555.25 1005 c 0,16,17
 509.818 1005 509.818 1005 482 1023 c 1,0,1
162 1422 m 1,18,-1
 335 1422 l 1,19,-1
 335 0 l 1,20,-1
 162 0 l 1,21,-1
 162 1422 l 1,18,-1
EndSplineSet
EndChar

StartChar: Lcaron
Encoding: 317 317 413
Width: 1025
Flags: HW
LayerCount: 2
Fore
SplineSet
510 1023 m 1,0,1
 539 1128.12 539 1128.12 539 1234.88 c 128,-1,2
 539 1341.64 539 1341.64 514 1422 c 1,3,4
 515 1422 515 1422 524 1425.5 c 128,-1,5
 533 1429 533 1429 547 1433 c 0,6,7
 582 1443 582 1443 610 1443 c 0,8,9
 666.154 1443 666.154 1443 700 1421 c 1,10,11
 710 1369 710 1369 710 1310.5 c 0,12,13
 710 1159.27 710 1159.27 629 1012 c 1,14,15
 604.5 1005 604.5 1005 583.25 1005 c 0,16,17
 537.818 1005 537.818 1005 510 1023 c 1,0,1
957 152 m 1,18,19
 960 125 960 125 960 84.5 c 128,-1,20
 960 44 960 44 944 0 c 1,21,-1
 182 0 l 1,22,-1
 182 1358 l 1,23,-1
 365 1358 l 1,24,-1
 365 136 l 1,25,26
 470.667 136 470.667 136 537.333 138 c 128,-1,27
 604 140 604 140 653 141 c 128,-1,28
 702 142 702 142 777 145 c 2,29,-1
 957 152 l 1,18,19
EndSplineSet
EndChar

StartChar: tcaron
Encoding: 357 357 414
Width: 1364
Flags: HW
LayerCount: 2
Fore
SplineSet
626 1175 m 1,0,1
 655 1280.12 655 1280.12 655 1386.88 c 128,-1,2
 655 1493.64 655 1493.64 630 1574 c 1,3,4
 631 1574 631 1574 640 1577.5 c 128,-1,5
 649 1581 649 1581 663 1585 c 0,6,7
 698 1595 698 1595 726 1595 c 0,8,9
 782.154 1595 782.154 1595 816 1573 c 1,10,11
 826 1521 826 1521 826 1462.5 c 0,12,13
 826 1311.27 826 1311.27 745 1164 c 1,14,15
 720.5 1157 720.5 1157 699.25 1157 c 0,16,17
 653.818 1157 653.818 1157 626 1175 c 1,0,1
774 49 m 1,18,19
 677.4 -20 677.4 -20 515 -20 c 0,20,21
 302.5 -20 302.5 -20 260 150 c 0,22,23
 246 206 246 206 246 280 c 2,24,-1
 246 871 l 1,25,-1
 101 871 l 1,26,27
 97 907 97 907 97 943 c 256,28,29
 97 974 97 974 101 1014 c 1,30,-1
 246 1014 l 1,31,-1
 246 1196 l 1,32,-1
 354 1318 l 1,33,-1
 418 1318 l 1,34,-1
 418 1014 l 1,35,-1
 720 1014 l 1,36,37
 723 993 723 993 723 954 c 128,-1,38
 723 915 723 915 701 871 c 1,39,-1
 418 871 l 1,40,-1
 418 280 l 2,41,42
 418 199 418 199 449 162.5 c 128,-1,43
 480 126 480 126 557.571 126 c 128,-1,44
 635.143 126 635.143 126 728 176 c 1,45,46
 763.056 129.259 763.056 129.259 774 49 c 1,18,19
EndSplineSet
EndChar

StartChar: caronvertical
Encoding: 65553 -1 415
Width: 512
Flags: HW
LayerCount: 2
Fore
SplineSet
140 1023 m 1,0,1
 169 1128.12 169 1128.12 169 1234.88 c 128,-1,2
 169 1341.64 169 1341.64 144 1422 c 1,3,4
 145 1422 145 1422 154 1425.5 c 128,-1,5
 163 1429 163 1429 177 1433 c 0,6,7
 212 1443 212 1443 240 1443 c 0,8,9
 296.154 1443 296.154 1443 330 1421 c 1,10,11
 340 1369 340 1369 340 1310.5 c 0,12,13
 340 1159.27 340 1159.27 259 1012 c 1,14,15
 234.5 1005 234.5 1005 213.25 1005 c 0,16,17
 167.818 1005 167.818 1005 140 1023 c 1,0,1
EndSplineSet
EndChar

StartChar: infinity
Encoding: 8734 8734 416
Width: 1703
Flags: HW
LayerCount: 2
Fore
SplineSet
446.5 271 m 0,0,1
 377 271 377 271 314.5 297.5 c 128,-1,2
 252 324 252 324 206 372 c 0,3,4
 108 474.261 108 474.261 108 629 c 0,5,6
 108 779.857 108 779.857 213 887 c 0,7,8
 319.82 996 319.82 996 471 996 c 0,9,10
 624.065 996 624.065 996 784.5 824.5 c 1,11,-1
 867 733 l 1,12,-1
 947 827 l 1,13,14
 1087.23 996 1087.23 996 1243 996 c 0,15,16
 1394.67 996 1394.67 996 1494 893.5 c 0,17,18
 1595 789.277 1595 789.277 1595 629 c 0,19,20
 1595 483.277 1595 483.277 1486.5 378 c 0,21,22
 1376.22 271 1376.22 271 1219 271 c 0,23,24
 1075.17 271 1075.17 271 925.5 441 c 2,25,-1
 847 530 l 1,26,-1
 763 437.5 l 2,27,28
 612.613 271 612.613 271 446.5 271 c 0,0,1
954 640 m 1,29,-1
 1013 567 l 1,30,31
 1133.12 412 1133.12 412 1244 412 c 0,32,33
 1327.31 412 1327.31 412 1376.5 476.5 c 0,34,35
 1422 536.156 1422 536.156 1422 607.078 c 128,-1,36
 1422 678 1422 678 1408.5 719 c 128,-1,37
 1395 760 1395 760 1370.5 790 c 0,38,39
 1318.23 854 1318.23 854 1232 854 c 0,40,41
 1122.92 854 1122.92 854 1015 715.5 c 1,42,-1
 954 640 l 1,29,-1
388.5 428.5 m 128,-1,44
 423 412 423 412 466.5 412 c 128,-1,45
 510 412 510 412 549.5 430.5 c 128,-1,46
 589 449 589 449 624.5 479 c 128,-1,47
 660 509 660 509 692.5 546 c 2,48,-1
 755 619 l 1,49,-1
 690.5 695 l 1,50,51
 560.585 854 560.585 854 451 854 c 0,52,53
 325.841 854 325.841 854 290.5 716 c 0,54,55
 280 675 280 675 280 628.5 c 128,-1,56
 280 582 280 582 293 542.5 c 128,-1,57
 306 503 306 503 330 474 c 128,-1,43
 354 445 354 445 388.5 428.5 c 128,-1,44
EndSplineSet
EndChar

StartChar: dcroat
Encoding: 273 273 417
Width: 1196
Flags: HW
LayerCount: 2
Fore
SplineSet
676 1160 m 1,0,1
 667 1194 667 1194 667 1229 c 128,-1,2
 667 1264 667 1264 676 1296 c 1,3,-1
 1166 1296 l 1,4,5
 1172 1269 1172 1269 1172 1232.5 c 128,-1,6
 1172 1196 1172 1196 1160 1160 c 1,7,-1
 676 1160 l 1,0,1
798 71 m 1,8,9
 710.5 -20 710.5 -20 558 -20 c 0,10,11
 388.56 -20 388.56 -20 269 102.5 c 0,12,13
 131 243.893 131 243.893 131 493 c 0,14,15
 131 765.64 131 765.64 282.5 921.5 c 0,16,17
 421.014 1064 421.014 1064 638 1064 c 0,18,19
 770 1064 770 1064 840 1044 c 1,20,-1
 840 1422 l 1,21,-1
 1013 1422 l 1,22,-1
 1013 154 l 1,23,-1
 1114 50 l 1,24,-1
 1114 0 l 1,25,-1
 941 0 l 1,26,-1
 860 71 l 1,27,-1
 798 71 l 1,8,9
840 913 m 1,28,29
 790 933 790 933 697 933 c 128,-1,30
 604 933 604 933 533 903 c 128,-1,31
 462 873 462 873 413 816.5 c 0,32,33
 313 701.194 313 701.194 313 493 c 0,34,35
 313 122 313 122 644 122 c 0,36,37
 744 122 744 122 840 186 c 1,38,-1
 840 913 l 1,28,29
EndSplineSet
EndChar

StartChar: Hbar
Encoding: 294 294 419
Width: 1365
Flags: HW
LayerCount: 2
Fore
SplineSet
110 1043 m 1,0,1
 101 1077 101 1077 101 1112 c 128,-1,2
 101 1147 101 1147 111 1179 c 1,3,-1
 1259 1179 l 1,4,5
 1265 1152 1265 1152 1265 1115.5 c 128,-1,6
 1265 1079 1265 1079 1253 1043 c 1,7,-1
 110 1043 l 1,0,1
205 1358 m 1,8,-1
 388 1358 l 1,9,-1
 388 770 l 1,10,-1
 976 770 l 1,11,-1
 976 1358 l 1,12,-1
 1159 1358 l 1,13,-1
 1159 0 l 1,14,-1
 976 0 l 1,15,-1
 976 619 l 1,16,-1
 388 619 l 1,17,-1
 388 0 l 1,18,-1
 205 0 l 1,19,-1
 205 1358 l 1,8,-1
EndSplineSet
EndChar

StartChar: lozenge
Encoding: 9674 9674 422
Width: 1196
Flags: HW
LayerCount: 2
Fore
SplineSet
126 678 m 1,0,-1
 535 1357 l 1,1,-1
 661 1357 l 1,2,-1
 1070 678 l 1,3,-1
 661 0 l 1,4,-1
 535 0 l 1,5,-1
 126 678 l 1,0,-1
598 150 m 1,6,-1
 627 223 l 1,7,-1
 889 678 l 1,8,-1
 627 1133 l 1,9,-1
 598 1207 l 1,10,-1
 568 1131 l 1,11,-1
 307 678 l 1,12,-1
 568 225 l 1,13,-1
 598 150 l 1,6,-1
EndSplineSet
EndChar

StartChar: trademark
Encoding: 8482 8482 423
Width: 2048
Flags: HW
LayerCount: 2
Fore
SplineSet
971 1358 m 1,0,-1
 1181 1358 l 1,1,-1
 1382 819 l 1,2,-1
 1399 819 l 1,3,-1
 1600 1358 l 1,4,-1
 1810 1358 l 1,5,-1
 1872 509 l 1,6,-1
 1724 509 l 1,7,-1
 1698 1216 l 1,8,-1
 1686 1216 l 1,9,-1
 1469 679 l 1,10,-1
 1313 679 l 1,11,-1
 1093 1216 l 1,12,-1
 1080 1216 l 1,13,-1
 1057 509 l 1,14,-1
 908 509 l 1,15,-1
 971 1358 l 1,0,-1
765 1230 m 1,16,17
 625 1234 625 1234 499 1234 c 1,18,-1
 499 509 l 1,19,-1
 350 509 l 1,20,-1
 350 1234 l 1,21,22
 258 1234 258 1234 88 1229 c 1,23,24
 85 1250 85 1250 85 1261 c 2,25,-1
 85 1284 l 2,26,27
 85 1326.5 85 1326.5 92 1358 c 1,28,-1
 771 1358 l 1,29,-1
 774 1307 l 1,30,31
 774 1262.4 774 1262.4 765 1230 c 1,16,17
EndSplineSet
EndChar

StartChar: eng
Encoding: 331 331 424
Width: 1196
Flags: HW
LayerCount: 2
Fore
SplineSet
786 867 m 128,-1,1
 731 923 731 923 594.158 923 c 128,-1,2
 457.316 923 457.316 923 375 855 c 1,3,-1
 375 0 l 1,4,-1
 203 0 l 1,5,-1
 203 911 l 1,6,-1
 122 994 l 1,7,-1
 122 1044 l 1,8,-1
 284 1044 l 1,9,-1
 354 973 l 1,10,-1
 418 973 l 1,11,12
 475 1020.5 475 1020.5 545.5 1042.25 c 128,-1,13
 616 1064 616 1064 685 1064 c 128,-1,14
 754 1064 754 1064 817 1039.5 c 128,-1,15
 880 1015 880 1015 924 969 c 0,16,17
 1014 874.909 1014 874.909 1014 714 c 2,18,-1
 1014 0 l 1,19,-1
 1015 -114 l 1,20,21
 1015 -300.588 1015 -300.588 871 -374 c 0,22,23
 820 -400 820 -400 748 -416 c 1,24,25
 708.672 -353.076 708.672 -353.076 702 -263 c 1,26,27
 781.084 -245.901 781.084 -245.901 803.042 -219.95 c 0,28,29
 841 -175.091 841 -175.091 841 -85 c 2,30,-1
 841 693 l 2,31,0
 841 811 841 811 786 867 c 128,-1,1
EndSplineSet
EndChar

StartChar: Eng
Encoding: 330 330 425
Width: 1365
Flags: HW
LayerCount: 2
Fore
SplineSet
868 -358 m 1,0,1
 956.691 -340.262 956.691 -340.262 981.5 -291.5 c 0,2,3
 1006 -243.345 1006 -243.345 1006 -95 c 2,4,-1
 1006 127 l 1,5,-1
 1099 226 l 1,6,-1
 1188 0 l 1,7,-1
 1188 -145 l 2,8,9
 1188 -310.683 1188 -310.683 1130.5 -391 c 0,10,11
 1069.67 -475.975 1069.67 -475.975 914 -511 c 1,12,13
 879.2 -458.8 879.2 -458.8 868 -358 c 1,0,1
182 1358 m 1,14,-1
 507 1358 l 1,15,-1
 973 199 l 1,16,-1
 1006 199 l 1,17,-1
 1006 1358 l 1,18,-1
 1188 1358 l 1,19,-1
 1188 0 l 1,20,-1
 872 0 l 1,21,-1
 397 1159 l 1,22,-1
 365 1159 l 1,23,-1
 365 0 l 1,24,-1
 182 0 l 1,25,-1
 182 1358 l 1,14,-1
EndSplineSet
EndChar
